<?xml version="1.0" encoding="UTF-8" standalone="no"?>
<!-- Created with Inkscape (http://www.inkscape.org/) -->
<svg id="svg3971" xmlns:rdf="http://www.w3.org/1999/02/22-rdf-syntax-ns#" xmlns="http://www.w3.org/2000/svg" height="773" viewBox="0 0 773 773" width="773" version="1.1" xmlns:cc="http://creativecommons.org/ns#" xmlns:dc="http://purl.org/dc/elements/1.1/">
 <metadata id="metadata3977">
  <rdf:RDF>
   <cc:Work rdf:about="">
    <dc:format>image/svg+xml</dc:format>
    <dc:type rdf:resource="http://purl.org/dc/dcmitype/StillImage"/>
    <dc:title/>
   </cc:Work>
  </rdf:RDF>
 </metadata>
 <g id="g6572" stroke-opacity="0" fill-opacity=".49804" transform="translate(2.5,-2.5)">
  <path id="path6574" d="m0 386.5v-386.5h386.5 386.5v386.5 386.5h-386.5-386.5v-386.5zm734.53 359.72c8.1465-4.1881 12.487-11.315 12.449-20.442-0.049-11.789-6.3541-18.461-23.514-24.881-10.685-3.9978-15.399-10.815-12.432-17.978 3.0816-7.4397 13.942-11.017 21.596-7.1124 2.2034 1.1241 4.5858 2.7422 5.2943 3.5959 0.96519 1.163 1.7632 1.2978 3.1831 0.5379 2.811-1.5044 2.3198-3.448-1.7113-6.7708-11.913-9.8197-31.605-4.2433-35.451 10.039-2.5374 9.4234 3.4635 17.756 16.75 23.258 14.988 6.2071 19.538 10.755 19.538 19.53 0 12.828-12.761 20.853-24.021 15.106-4.5713-2.3331-6.6872-4.6105-8.6516-9.312-1.379-3.3004-1.7709-3.5622-4.2881-2.8651-2.1732 0.60185-2.7095 1.285-2.4879 3.1689 0.63691 5.4148 7.9628 13.258 14.718 15.756 4.3687 1.616 14.384 0.75808 19.029-1.63zm-662.53-15.56c0.47701-16.067 0.60569-16.927 2.7989-18.7 1.2644-1.0223 2.9502-1.6088 3.7463-1.3034 0.79607 0.30548 7.5288 8.1305 14.962 17.389 16.973 21.142 16.022 20.214 19.867 19.391 1.7195-0.36801 3.2933-0.82104 3.4974-1.0067 0.20412-0.1857-7.1084-9.3132-16.25-20.283-9.14-10.97-16.62-20.78-16.62-21.79 0-1.042 7.0369-8.8854 16.239-18.1l16.24-16.26h-4.1491c-4.0604 0-4.4881 0.35415-20.013 16.574-8.9347 9.3343-16.727 16.651-17.84 16.75-1.887 0.17-1.989-0.58-2.251-16.57l-0.274-16.75h-3.476-3.476v38.333c0 21.083 0.32066 38.654 0.71258 39.046 0.39192 0.39192 1.8544 0.57942 3.25 0.41667l2.537-0.29 0.5-16.84zm61.56 7.6424c2.0855-4.6805 4.42-9.138 5.1876-9.9056 1.0924-1.0924 5.3665-1.3957 19.669-1.3957 21.041 0 19.165-0.83902 24.585 11 1.8884 4.125 3.8406 8.0625 4.3384 8.75 1.0256 1.4165 5.2685 1.6927 6.0704 0.39514 0.29058-0.47017-2.8676-8.2327-7.0183-17.25-4.15-9.01-10.71-23.37-14.58-31.89-8.0268-17.677-12.623-27-13.309-27-0.93753 0-15.371 30.332-30.657 64.424-5.0306 11.22-5.0807 12.727-0.39316 11.831 1.8023-0.34452 3.1644-2.3402 6.1111-8.9533zm9.782-18.853c-0.55592-1.4487 11.705-30.801 13.745-32.905 0.58721-0.6057 1.4865-0.39858 2.4491 0.56406 2.1998 2.1998 14.616 31.056 14.025 32.596-0.38 0.98-4.05 1.3-15.06 1.3-12.239 0-14.658-0.24764-15.158-1.552zm67.774 2.27c2.5385-14.18 4.8816-26.048 5.2069-26.374 1.7741-1.7741 4.3042 2.7015 14.163 25.054 5.9681 13.531 11.139 24.602 11.491 24.602 0.35221 0 5.524-11.067 11.493-24.593 10.141-22.981 12.707-27.357 14.417-24.589 0.37689 0.60983 2.6332 12.263 5.0141 25.896 2.3808 13.633 4.5286 25.124 4.7728 25.537 0.64739 1.0936 5.104 0.91812 5.8129-0.22882 0.66905-1.0826-13.566-75.027-14.44-75.011-0.30084 0.006-1.2718 1.6931-2.1577 3.75-16.9 39.27-23.33 53.24-24.48 53.24-2.08 0-3.35-2.52-15.52-30.75-6.23-14.44-11.58-26.25-11.9-26.25-0.92412 0-15.137 73.938-14.432 75.078 0.3522 0.56987 1.8354 0.89784 3.2959 0.72882l2.66-0.31 4.62-25.78zm92.65-12.97 0.26-38.75h-3.5118-3.5117v38.333c0 21.083 0.32066 38.654 0.71258 39.046 0.39191 0.39192 1.8544 0.57942 3.25 0.41667l2.54-0.29 0.26174-38.75zm37.001 3.5284c0.24076-32.272 0.40825-35.298 2-36.131 0.95548-0.5002 5.1122-0.90238 9.2372-0.89373 7.3601 0.0154 7.5059-0.0334 7.8164-2.6189l0.32-2.64h-22.56-22.57v2.5c0 2.4464 0.16228 2.5 7.5657 2.5 12.49 0 11.43-3.42 11.43 36.87 0 19.139 0.32066 35.119 0.71258 35.511 0.39191 0.39192 1.8544 0.57942 3.25 0.41667l2.54-0.3 0.26276-35.222zm89.355 33.76c8.0228-2.35 14.143-8.7019 15.367-15.949 1.2857-7.6102-3.0707-16.884-9.4849-20.19-6.1375-3.164-6.4754-3.7932-3.6318-6.7619 6.8231-7.1235 7.3982-19.142 1.2433-25.984-4.3749-4.8635-9.3524-6.5251-20.861-6.964l-10.75-0.40992v38.444c0 21.144 0.3375 38.797 0.75 39.229 1.0039 1.0505 22.799-0.0746 27.368-1.4128zm-20.37-4.6c-0.4125-0.42311-0.75-7.4239-0.75-15.557v-14.788l3.25-0.60856c4.343-0.81322 15.113 0.99845 19.619 3.3001 4.9095 2.508 7.3585 7.3666 6.8263 13.542-0.80808 9.3774-6.9627 13.792-20.173 14.469-4.4122 0.22626-8.3596 0.0652-8.7721-0.35789zm0.5-36.042c-0.91589-0.41065-1.25-4.3959-1.25-14.91 0-13.606 0.10659-14.383 2.0581-15.002 3.1409-0.99687 11.274 0.43422 14.86 2.6146 8.2098 4.9927 7.9352 20.248-0.45164 25.086-3.1003 1.7882-12.963 3.2219-15.216 2.2119zm56.524 25.416c0.2563-15.618 0.40089-16.73 2.25-17.317 1.0868-0.34495 2.7636-0.3482 3.7261-0.007 0.9625 0.34098 6.7399 7.9088 12.839 16.817l11.089 16.197 4.2012 0.30944 4.2012 0.30945-5.2067-7.3094c-2.8637-4.0202-8.1006-11.258-11.638-16.084-3.537-4.8258-6.2006-9.3743-5.9191-10.108 0.28147-0.73352 1.788-1.5901 3.3477-1.9034 5.029-1.0104 9.7112-4.9705 12.586-10.645 4.3642-8.6145 3.3204-17.219-2.9277-24.135-4.76-5.28-10.61-6.94-24.49-6.94h-10.82v38.333c0 21.083 0.32066 38.654 0.71258 39.046 0.39191 0.39192 1.8544 0.57942 3.25 0.41667l2.54-0.29 0.27-16.69zm0.98-23.38c-0.41-0.43-0.75-7.66-0.75-16.09v-15.314l2.4257-0.60882c3.9751-0.9977 15.508 1.2692 19.194 3.7729 6.3895 4.3394 8.2373 15.487 3.5986 21.711-3.3348 4.4745-7.8457 6.3966-16.108 6.8638-4.1858 0.23668-7.9481 0.0836-8.3606-0.3401zm49.865 39.798c0.61301-0.40408 2.7762-4.5597 4.8072-9.2347s4.4279-9.0625 5.3266-9.75c1.1651-0.89137 6.7116-1.25 19.332-1.25 20.566 0 20.032-0.21891 24.381 10 3.877 9.1108 5.233 11 7.895 11 4.5898 0 6.2188 4.4124-17.075-46.25-8.0289-17.462-14.864-31.746-15.19-31.741-0.32546 0.005-3.5007 6.4176-7.056 14.25-3.5554 7.8324-11.485 25.136-17.621 38.453-6.1361 13.317-10.915 24.454-10.619 24.75 0.77791 0.7779 4.5151 0.63163 5.8188-0.22775zm14.38-28.21c0-2.1643 12.348-30.778 13.992-32.421 0.69686-0.69686 1.4709-0.55845 2.4296 0.4345 2.1976 2.2759 14.827 31.747 14.105 32.915-0.4 0.65-6.3 1.04-15.59 1.04-14.2 0-14.94-0.1-14.94-1.97zm68.76-10.28 0.26-38.75h-3.5118-3.5117v38.333c0 21.083 0.32066 38.654 0.71258 39.046 0.39191 0.39192 1.8544 0.57942 3.25 0.41667l2.54-0.29 0.26-38.75zm24.24 9.18c0.43767-25.738 0.69681-29.441 2.0787-29.707 0.9807-0.18846 12.129 10.791 29.432 28.987 15.319 16.11 28.221 29.44 28.671 29.624 0.44984 0.18334 0.81789-17.029 0.81789-38.25v-38.58h-3.5-3.5v29c0 27.353-0.10313 29-1.8158 29-1.0751 0-13.201-11.899-29.724-29.168-25.403-26.549-27.969-28.951-28.584-26.75-0.88876 3.1788-1.0762 74.383-0.19816 75.261 0.37244 0.37243 1.8349 0.52239 3.25 0.33325l2.57-0.35 0.5-29.4zm-484-57.97c0-1.0729 9.4804-11.058 58-61.088 104.77-108.02 137.98-142.31 183.95-189.87 15.681-16.225 36.861-38.05 47.066-48.5s38.108-39.25 62.007-64 51.358-53.1 61.022-63c19.163-19.632 63.91-65.839 95.873-99 11.133-11.55 21.106-21.406 22.162-21.903 1.4023-0.65922 1.9205-1.9357 1.9205-4.731 0-3.1387-0.40522-3.9282-2.25-4.3835-1.2375-0.30545-13.612 0.36098-27.5 1.481s-36.612 2.9414-50.5 4.0476-38.975 3.13-55.75 4.4973-41.75 3.3938-55.5 4.5034-33.1 2.676-43 3.481c-63.039 5.1256-92.374 7.4916-210.5 16.977-101.76 8.1718-107.06 8.8516-125.06 16.054-19.515 7.81-34.367 18-50.562 34.72-20.581 21.25-32.924 44.3-39.544 73.87-2.072 9.25-2.324 12.93-2.324 33.88 0 19.14 0.34336 25.077 1.8508 32 6.6606 30.589 18.88 53.845 39.599 75.365 22.539 23.41 42.413 34.601 75.8 42.683l4.25 1.0288v105.79c0 58.187 0.3 106.09 0.66667 106.46 1.08 1.1 8.33 0.77 8.33-0.36zm-6.6528-1.0155c-0.80764-0.80764-0.96614-29.985-0.58021-106.81l0.53099-105.69-12.399-3.0971c-55.657-13.89-96.314-58.14-108.06-117.58-2.866-14.5-3.13-41.38-0.543-55.26 11.543-61.93 55.247-108.65 113.2-121.02 5.722-1.2211 62.312-6.14 166.5-14.472 19.406-1.552 236.24-19.059 310-25.029 34.375-2.7822 63.621-4.9288 64.991-4.7702 5.6929 0.65905 3.5902 3.4454-24.21 32.082-15.06 15.52-48.94 50.49-75.29 77.71-45.97 47.5-57.25 59.13-95.01 97.99-18.43 18.97-56.76 58.55-109.45 113.01-18.357 18.975-47.353 48.9-64.434 66.5-17.082 17.6-44.115 45.5-60.075 62s-36.463 37.65-45.562 47c-9.0995 9.3502-25.524 26.225-36.5 37.5s-20.415 20.626-20.976 20.779c-0.56145 0.15355-1.5208-0.22085-2.132-0.832zm491.38-26.812c3.5521-5.9788 3.6881-16.242 0.3168-23.915-4.27-9.72-15.43-17.22-25.62-17.22-9.5894 0-20.844 7.3905-25.068 16.462-2.5685 5.5159-3.2535 16.01-1.2851 19.688 1.8066 3.3757 7.064 4.8496 17.298 4.8496 9.3172 0 9.4778 0.0411 12.032 3.0767 1.4239 1.6922 2.5889 3.6272 2.5889 4.3 0 1.8578-2.1569 3.6214-4.45 3.6386-4.1753 0.0312-5.0332 1.4466-3.2082 5.2926 0.912 1.9219 1.6582 5.219 1.6582 7.3269v3.8326l11.569-11.484c6.363-6.316 12.736-13.448 14.162-15.848zm-66.313-32.742c1.8843-0.72308 2.1007-4.7326 0.33179-6.149-0.6875-0.55048-27.8-14.629-60.25-31.286-80.356-41.247-84.88-43.626-85.835-45.137-0.54687-0.86472 10.386-26.027 31.66-72.869 17.872-39.352 32.589-72.202 32.704-73 0.52479-3.6514-0.0979-4.9517-2.3715-4.9517-2.5322 0-10.038 7.4311-78.284 77.5-20.356 20.9-52.73 54.127-71.942 73.837s-35.346 36.717-35.853 37.793c-0.64685 1.3723-0.49772 2.3758 0.5 3.3646 0.96577 0.95712 42.957 7.6626 130.92 20.906 71.225 10.724 130.62 19.684 132 19.912 4.2214 0.70044 4.7836 0.70746 6.4182 0.0802zm-103.42-16.39c-53.625-8.1608-111.68-16.935-129-19.498-31.392-4.6437-36-5.5946-36-7.4292 0-0.53205 10.912-12.136 24.25-25.785 33.47-34.25 92.45-94.74 128.26-131.54 16.46-16.91 30.5-30.75 31.21-30.75 0.70476 0 1.2814 0.78056 1.2814 1.7346 0 0.95401-14.85 34.407-33 74.341-18.15 39.933-33 72.86-33 73.17 0 0.95691 7.2487 4.853 43 23.112 87.436 44.655 105.5 54.183 105.5 55.642 0 0.88798-1.02 1.5694-2.5 1.6701-1.375 0.0935-46.375-6.507-100-14.668z"/>
  <path id="path6576" d="m0 386.5v-386.5h386.5 386.5v386.5 386.5h-386.5-386.5v-386.5zm733.92 360.89c7.33-3.0619 12.73-10.608 13.745-19.209 1.4177-12.01-4.8592-20.095-20.663-26.615-11.769-4.8551-16-8.6452-16-14.332 0-11.222 16.589-16.645 25.047-8.1881 1.5135 1.5135 2.8347 1.9489 4.5828 1.5101 3.5307-0.88615 4.0056-3.2492 1.247-6.2051-4.0441-4.3333-9.6596-6.6021-16.332-6.5985-13.46 0.01-22.55 7.98-22.55 19.77 0 9.0445 3.9858 13.174 20.185 20.91 12.926 6.1734 15.788 8.9322 16.513 15.913 0.55235 5.3242-2.8677 12.259-7.5956 15.401-4.043 2.6868-11.676 3.0467-16.1 0.75912-3.2872-1.6999-7.6201-7.0115-8.1583-10.001-0.25225-1.4011-1.2814-2.0902-3.437-2.3011-4.7057-0.46042-5.6588 1.5202-3.2865 6.8298 5.7215 12.805 19.396 17.96 32.798 12.362zm-661.17-16.39c0.23724-15.392 0.39572-16.617 2.3608-18.25 1.1586-0.9625 2.4686-1.75 2.9112-1.75 0.44259 0 6.899 7.5633 14.348 16.807 7.4486 9.2441 14.414 17.596 15.479 18.559 1.4088 1.2749 3.2411 1.6676 6.7318 1.4426l4.8-0.31-17.19-20.66c-9.454-11.37-17.19-21.5-17.19-22.52 0-1.0584 6.8451-8.6692 16-17.79 8.8-8.767 16-16.298 16-16.736 0-0.43758-1.9125-0.80864-4.25-0.82458-4.1985-0.0286-4.4499 0.17735-20.75 17-9.075 9.366-17.052 17.029-17.726 17.029-0.90805-0.00013-1.2969-4.3423-1.5-16.75l-0.274-16.75-3.75-0.31-3.75-0.31v39.62 39.62l3.75-0.31 3.75-0.31 0.254-16.5zm61.147 8.3591c5.583-12.376 3.4912-11.444 24.989-11.131l18.61 0.27 4.7227 9.75 4.7227 9.75h4.0273c2.215 0 4.0015-0.3375 3.9699-0.75-0.14875-1.9426-35.57-77.629-36.47-77.928-0.56503-0.18727-1.5345 0.9011-2.1544 2.4186-0.61992 1.5175-8.7873 19.32-18.15 39.561l-17.023 36.802 4.5416-0.30181 4.5416-0.30181 3.6725-8.1409zm10.765-19.026c-0.36-0.36-0.66-1.27-0.66-2.01 0-2.1 13.1-31.32 14.04-31.32 0.46041 0 1.1971 0.5625 1.6372 1.25 1.6266 2.5414 13.318 29.168 13.318 30.331 0 0.6627-0.7118 1.4781-1.5818 1.8119-2.1542 0.82665-25.918 0.77364-26.752-0.0597zm62.82 25.42c0.2838-1.2375 2.34-12.6 4.5693-25.25 3.936-22.335 4.9712-25.965 6.8282-23.95 0.48148 0.5225 5.7515 12.088 11.711 25.7 5.9597 13.612 11.106 24.75 11.437 24.75 0.33071 0 5.4657-11.138 11.411-24.75 5.9454-13.612 11.205-25.178 11.687-25.7 1.8887-2.0443 2.9813 1.7682 6.874 23.986 2.2128 12.63 4.2525 23.976 4.5326 25.214 0.42354 1.8713 1.1794 2.25 4.4902 2.25 2.1895 0 3.981-0.23164 3.981-0.51476 0-1.6108-15.108-76.926-15.512-77.331-0.71825-0.71825-0.18039-1.8618-13.568 28.845-8.2706 18.971-12.922 28.5-13.911 28.5-0.98838 0-5.6543-9.5412-13.937-28.5-13.52-30.94-12.86-29.54-13.54-28.86-0.42 0.42-15.53 75.57-15.53 77.22 0 0.35091 1.7914 0.63802 3.981 0.63802 3.3088 0 4.0681-0.37987 4.4969-2.25zm97.301-35.25c0.15324-20.35 0.0322-38.012-0.26905-39.25-0.43753-1.7975-1.2477-2.25-4.0286-2.25h-3.48v39.56 39.56l3.75-0.31036 3.75-0.31037 0.27861-37zm36.22 3.19c0-25.894 0.3066-34.717 1.25-35.972 0.96-1.2771 3.222-1.7274 9.75-1.9411l8.5-0.27824v-3-3h-23-23l-0.3105 3.2117-0.3105 3.2117 9.3105 0.28832 9.3105 0.28833 0.25202 34.5c0.13862 18.975 0.46199 35.062 0.71862 35.75 0.25662 0.6875 2.0557 1.25 3.998 1.25h3.53v-34.31zm93.45 31.31c7.2837-3.6794 10.825-8.6434 11.351-15.909 0.23387-3.2333-0.11283-7.509-0.77045-9.5016-1.3775-4.174-6.0926-9.3231-10.809-11.804l-3.2604-1.715 3.3916-4.4432c8.5455-11.195 4.0829-26.302-9.076-30.723-2.07-0.69-8.27-1.3-13.77-1.33l-10-0.0673-0.26227 37.997c-0.14424 20.898-0.0293 38.604 0.25537 39.346 0.40877 1.0652 3.4084 1.2762 14.262 1.0032 12.281-0.30896 14.272-0.61193 18.694-2.8458zm-24.798-5.4667c-0.36-0.93-0.65-7.23-0.65-13.99 0-14.979 0.0689-15.076 10.102-14.235 12.683 1.0633 18.902 5.9508 18.894 14.849-0.008 9.5545-5.7694 13.972-19.095 14.643-7.4126 0.37307-8.6887 0.19868-9.25-1.2641zm-0.0442-36.115c-1.17-3.04-0.67-24.96 0.59-26.22 1.5132-1.5132 8.2254-1.4572 12.765 0.10644 2.0037 0.69012 4.466 2.6699 5.8376 4.6936 3.2518 4.7977 2.84 14.622-0.77406 18.469-4.0433 4.3039-17.1 6.394-18.422 2.949zm57.39 29.27c0-16.206 0.75226-19.271 4.5506-18.539 1.1359 0.21875 6.6588 7.0955 13.54 16.859l11.621 16.489 4.6443 0.30479c2.5543 0.16764 4.6443 0.0626 4.6443-0.23337 0-0.29598-5.2547-7.8059-11.677-16.689-10.958-15.155-11.562-16.235-9.8089-17.517 1.0275-0.75134 2.3897-1.3661 3.0271-1.3661 2.8433 0 9.7343-6.3678 11.708-10.819 5.2907-11.931 0.60033-24.917-10.763-29.798-5.4218-2.3288-27.296-3.2934-28.583-1.2604-0.97095 1.5329-1.2253 72.073-0.27269 75.627 0.47465 1.7712 1.323 2.25 3.9863 2.25h3.3834v-15.309zm1.652-26.182c-1.36-1.36-1.65-3.88-1.65-14.39 0-16.223 0.26016-16.665 9.3242-15.818 11.671 1.0898 16.814 5.3524 17.451 14.462 0.69937 9.9965-4.8736 15.363-17.374 16.73-4.9532 0.54178-6.4082 0.35687-7.75-0.98497zm54.615 31.469 4.6133-10.022 19.273 0.27181 19.273 0.2718 1.2912 2.5c0.71018 1.375 2.7639 5.65 4.5638 9.5 3.2519 6.9558 3.2999 7.002 7.6004 7.3126 2.4416 0.17635 4.1734-0.10093 3.9736-0.63621-3.2803-8.7869-36.461-78.97-37.054-78.376-1.06 1.08-35.78 76.93-35.78 78.22 0 0.54 1.72 0.98 3.83 0.98h3.8267l4.6133-10.022zm9.9325-18.238c-0.76076-0.91665 0.79747-5.4667 5.718-16.697 3.72-8.4902 7.2628-15.603 7.8727-15.806 1.2547-0.41823 3.701 4.27 10.738 20.578 4.0767 9.4479 4.6421 11.466 3.4272 12.235-2.3166 1.4654-26.507 1.196-27.756-0.30908zm67.81-11.3v-39.56l-3.75 0.31036-3.75 0.31037-0.26227 37.997c-0.14424 20.898-0.0459 38.561 0.21862 39.25 0.26448 0.68924 2.07 1.2532 4.0123 1.2532h3.53v-39.56zm25 10.06c0-24.02 0.24942-29.5 1.3428-29.5 0.73853 0 13.871 13.162 29.182 29.25 15.312 16.088 28.438 29.397 29.169 29.576 1.0921 0.26747 1.2826-6.6926 1.0677-39l-0.26-39.33-3.7346-0.30945-3.7346-0.30944-0.26544 28.796c-0.23096 25.056-0.46641 28.835-1.8129 29.094-0.93882 0.18057-12.527-11.22-29.463-28.987-15.35-16.11-28.27-29.44-28.7-29.62-0.44-0.19-0.79 17.7-0.79 39.75v40.08h4 4v-29.5zm-483.78-58.92c0.7-1.33 19.96-21.69 42.78-45.24 22.82-23.54 55.22-56.99 71.99-74.32 16.77-17.34 38.84-40.07 49.04-50.52 10.207-10.45 38.328-39.475 62.492-64.5s52.503-54.275 62.976-65 39.272-40.425 63.997-66c39.394-40.747 59.662-61.668 125.46-129.5 20.688-21.328 49.68-50.76 51.559-52.341 1.054-0.88685 1.4902-2.5796 1.2885-5l-0.31-3.66-6.9285-0.29976c-6.0816-0.26312-18.408 0.59225-69.072 4.7929-17.906 1.4846-43.464 3.5523-99 8.0091-27.5 2.2069-66.425 5.3522-86.5 6.9895s-53.375 4.331-74 5.986-57.075 4.5913-81 6.5252c-55.26 4.4667-89.868 7.2268-107 8.5337-42.312 3.2276-70.117 15.86-98.173 44.602-16.495 16.89-26.533 33.1-34.26 55.3-6.691 19.22-7.9695 27.71-7.9924 53.06-0.0221 24.33 1.1074 32.54 6.9614 50.56 16.113 49.63 60.209 89.97 108.71 99.46 3.1625 0.61846 5.8148 1.6551 5.8941 2.3036s0.0241 48.092-0.12261 105.43c-0.20984 82.027-0.001 104.57 0.97835 105.75 0.71181 0.85768 2.8921 1.5002 5.0907 1.5002 3.0492 0 4.1111-0.5015 5.1276-2.4216zm-7.7237-1.5875c-0.38066-0.61591-0.59615-48.228-0.47888-105.81 0.11728-57.577 0.16176-105.19 0.0989-105.81-0.0629-0.61595-2.9269-1.6494-6.3644-2.2965-25.38-4.76-51.757-19.04-71.26-38.56-21.131-21.16-35.009-47.07-41.721-77.91-1.865-8.57-2.199-13.21-2.199-30.6 0-17.367 0.33486-22.038 2.1911-30.565 11.823-54.31 47.394-95.541 96.569-111.94 14.221-4.7419 23.651-6.1694 59.66-9.0306 36.305-2.8848 276.62-22.234 322-25.927 56.925-4.6318 106.4-8.6074 137.5-11.048 17.05-1.3382 32.635-2.668 34.633-2.955 2.4938-0.35819 4.0159-0.0607 4.8535 0.94849 1.26 1.5-7.59 10.82-120.51 127.01-17.11 17.6-73.59 75.88-125.51 129.5-100.89 104.21-195.99 202.35-251.92 259.99-18.952 19.531-34.997 35.649-35.657 35.816-0.65949 0.16795-1.5105-0.19856-1.8912-0.81447zm479.24-11.298c14.791-15.044 15.818-17.04 15.032-29.193-0.52765-8.1582-2.8534-13.315-8.4342-18.701-11.532-11.129-29.668-10.634-40.652 1.1086-5.5737 5.9587-8.0712 13.048-7.4794 21.229 0.69195 9.5662 4.5244 11.726 20.974 11.819 7.1132 0.0403 7.8325 0.24073 9.788 2.7268 2.823 3.5888 2.2496 5.5075-1.967 6.5819-4.8721 1.2415-5.3988 2.0601-3.5836 5.5703 0.87181 1.6859 1.5851 5.1126 1.5851 7.6149s0.37224 4.5497 0.8272 4.5497 6.7142-5.9881 13.909-13.307zm-51.939-49.745c0.17657-1.5156-0.43265-3.18-1.5-4.098-0.98853-0.85018-34.138-18.142-73.666-38.426s-72.086-37.446-72.352-38.139c-0.26566-0.6923 14.193-33.552 32.13-73.022s32.608-72.992 32.602-74.494c-0.008-2.0644-0.61258-2.882-2.4762-3.3497-3.7005-0.92877 11.452-15.942-118.03 116.95-71.55 73.432-72.79 74.849-67.808 77.436 0.99462 0.51645 18.908 3.5191 39.808 6.6725s78.725 11.94 128.5 19.526c51.598 7.8638 93.079 13.729 96.5 13.644 5.6427-0.13986 6.0177-0.30068 6.2973-2.7009zm-88.3-12.02c-42.9-6.53-100.72-15.29-128.5-19.47-30.393-4.5686-51.029-8.1069-51.829-8.8866-1.0978-1.0699 2.9087-5.6322 23-26.191 13.381-13.692 40.997-41.991 61.368-62.885 82.974-85.104 94.681-97.024 96.041-97.789 0.95031-0.53506 1.4203-0.305 1.4203 0.69523 0 0.82221-14.85 34.176-33 74.12s-33 72.938-33 73.321c0 0.38284 13.149 7.4389 29.219 15.68 16.07 8.2412 44.758 22.989 63.75 32.772 18.992 9.7835 39.144 20.124 44.781 22.978 10.195 5.1618 12.82 7.8318 7.5 7.6289-1.5125-0.0577-37.85-5.448-80.75-11.978z"/>
  <path id="path6578" d="m0 386.5v-386.5h386.5 386.5v386.5 386.5h-386.5-386.5v-386.5zm687 323.02v-40.481l-2.6548-0.6663c-5.7953-1.4545-5.8204-1.3314-6.1106 29.987-0.16 16.23-0.66 28.64-1.18 28.64-0.49785 0-13.832-13.524-29.632-30.053-16.156-16.903-29.105-29.675-29.591-29.188-0.47563 0.47563-0.74704 18.837-0.60314 40.803l0.27 39.94h4 4l0.5-28.917c0.34208-19.784 0.84845-29.033 1.6033-29.284 0.6068-0.20187 14.031 13.148 29.831 29.667 15.8 16.52 28.92 30.04 29.15 30.04s0.42-18.22 0.42-40.48zm45.728 38.95c9.9169-4.1435 15.287-12.132 15.25-22.686-0.0429-12.269-4.9021-18-21.034-24.807-11.64-4.91-15.4-8.33-15.4-13.98 0-7.1335 8.7751-13.127 16.788-11.466 1.7415 0.36091 4.9127 2.0319 7.0471 3.7133 3.7072 2.9204 3.9968 2.9867 6.4737 1.4839 3.5359-2.1454 3.6299-3.0022 0.70997-6.4723-3.9836-4.7342-11.765-7.597-19.058-7.0116-16.165 1.2976-25.482 14.399-19.543 27.482 2.3004 5.0677 7.8119 9.2006 18.422 13.814 13.06 5.68 16.61 9.42 16.61 17.46 0 9.9987-9.3415 17.621-18.996 15.501-4.3335-0.9518-9.4726-5.7157-11.422-10.588-1.5412-3.8519-1.7922-4.0262-4.8535-3.3697-5.7533 1.2338-5.9584 2.0959-2.2428 9.4283 4.1627 8.2146 12.065 12.924 21.797 12.99 3.1802 0.0215 7.4309-0.64978 9.4462-1.4918zm-659.73-16.57c0.51235-17.011 1.3314-20.381 4.7856-19.692 0.80822 0.16109 8.0552 8.3929 16.104 18.293l14.635 18 9.9875 0.25338c5.4932 0.13936 10.467-0.0856 11.054-0.5 0.58633-0.41436 2.8082-4.5784 4.9375-9.2534s4.5481-9.0625 5.3751-9.75c1.6648-1.384 34.696-1.8196 36.754-0.48469 0.62306 0.40408 3.1798 5.1222 5.6817 10.485l4.5489 9.75h4.0683c3.2223 0 4.0604-0.3639 4.0304-1.75-0.053-2.4506-35.229-78.527-36.5-78.939-0.57074-0.18501-7.0735 12.832-14.45 28.926-23.551 51.381-22.846 49.959-24.345 49.073-1.6255-0.95995-33.583-39.199-34.396-41.156-0.34426-0.82925 5.8271-7.7395 16.085-18.011 9.15-9.16 16.64-16.99 16.64-17.4s-2.27-0.74-5.04-0.74h-5.0405l-16.277 16.672c-10.237 10.49-16.716 16.4-17.459 15.94-0.83-0.51-1.183-5.46-1.183-16.59 0-10.725-0.35908-15.977-1.1093-16.227-0.61012-0.20338-2.6351-0.19165-4.5 0.0261l-3.391 0.4v39.224c0 21.573 0.32142 39.545 0.71426 39.938 0.39284 0.39284 2.3053 0.58034 4.25 0.41666l3.536-0.3 0.5-16.6zm71.538-12.837c-0.49083-0.79418 11.586-29.519 13.008-30.942 0.26762-0.26761 0.96705-0.006 1.5543 0.58115 1.6 1.6 12.9 27.47 12.9 29.52 0 1.62-1.23 1.78-13.44 1.78-7.3925 0-13.702-0.42208-14.021-0.93795zm62.094 29.173c0.62306-0.40408 3.118-11.985 5.5443-25.735 2.9962-16.98 4.8124-25 5.6614-25 0.68747 0 6.2438 11.362 12.347 25.25 6.1036 13.888 11.422 25.25 11.819 25.25 0.39703 0 5.6932-11.362 11.769-25.25 6.4813-14.814 11.597-25.25 12.378-25.25 0.95478 0 2.5716 7.0608 5.7246 25 2.4167 13.75 4.8955 25.331 5.5084 25.735 2.0027 1.3204 6.6558 0.82091 7.2703-0.7805 0.66427-1.7311-13.569-75.799-14.936-77.725-0.53014-0.74702-1.0488-0.83672-1.3229-0.22879-0.24797 0.55-5.9627 13.6-12.7 29-8.0121 18.315-12.754 28-13.711 28-0.95669 0-5.6925-9.6795-13.699-28-6.7305-15.4-12.439-28.45-12.686-29-0.27269-0.60761-0.79098-0.51783-1.3208 0.22879-1.3671 1.9264-15.6 75.994-14.936 77.725 0.61487 1.6023 5.2554 2.0992 7.2888 0.7805zm98.129-39.168c0.16898-25.455-0.0922-39.652-0.73664-40.051-0.54912-0.33937-2.5794-0.43247-4.5118-0.20688l-3.51 0.42v39.224c0 21.573 0.32142 39.545 0.71426 39.938 0.39284 0.39284 2.3053 0.58034 4.25 0.41666l3.54-0.3 0.26-39.43zm37.24 3.94l0.5-35.5 9-0.5 9-0.5 0.32418-3.3951c0.1783-1.8673-0.11616-3.6673-0.65436-4-0.77604-0.47969-33.643-0.6297-43.98-0.20073-2.0448 0.0848-2.2747 0.52695-2 3.8459l0.31037 3.75 9 0.5 9 0.5 0.25202 34.5c0.13862 18.975 0.4725 35.09 0.74197 35.811 0.31572 0.84474 1.8262 1.2003 4.248 1l3.76-0.31 0.5-35.5zm90.393 33.46c14.533-5.1834 19.139-22.225 9.0301-33.414-1.8943-2.0968-4.7894-4.3696-6.4335-5.0505-1.6441-0.68099-2.9892-1.3954-2.9892-1.5876s1.424-2.3697 3.1644-4.8388c5.7805-8.2008 4.7233-21.12-2.2052-26.95-1.5934-1.3408-5.0486-3.1301-7.6782-3.9763-4.553-1.4651-20.412-2.766-23.04-1.8899-0.96 0.32-1.24 9.3-1.24 39.67 0 21.588 0.3375 39.6 0.75 40.027 1.3839 1.4335 25.425-0.12286 30.643-1.9837zm-21.14-6.06c-0.91-0.41-1.25-4.34-1.25-14.59v-14.019l8.25 0.3547c5.8374 0.25097 9.4197 0.95903 12.25 2.4212 10.008 5.1706 9.5823 18.59-0.75316 23.732-3.5827 1.7824-16.078 3.2007-18.497 2.0995zm0-36.065c-0.91206-0.36803-1.25-4.1001-1.25-13.804 0-15.229-0.21924-14.902 9.0132-13.442 6.1889 0.97833 9.5411 3.689 11.133 9.0025 2.5199 8.4106-1.8494 16.034-10.219 17.828-5.3601 1.1495-6.6995 1.2137-8.6774 0.41557zm56.524 27.51c0.22327-13.582 0.54587-16.757 1.75-17.219 0.81194-0.31158 2.0388-0.34511 2.7263-0.0745 0.6875 0.27058 5.975 7.3321 11.75 15.692 5.775 8.3601 11.288 16 12.25 16.977 1.789 1.816 9.1659 2.5306 10.124 0.98059 0.27051-0.4377-4.6529-7.8892-10.941-16.559-6.29-8.67-11.43-16.16-11.43-16.64 0-0.47971 2.5707-2.1447 5.7127-3.7 15.857-7.8493 16.482-31.558 1.0388-39.437-4.4848-2.288-22.491-4.3363-28.502-3.2422l-3.25 0.5916v39.222c0 21.572 0.32142 39.543 0.71426 39.936 0.39284 0.39284 2.3053 0.58034 4.25 0.41666l3.54-0.29 0.27-16.65zm0.98-25.41c-0.4125-0.42464-0.75-6.9812-0.75-14.57 0-16.268 0.008-16.281 9.8475-14.89 10.866 1.5359 15.653 6.1531 15.653 15.1 0 8.6847-6.1448 13.885-17.331 14.667-3.668 0.25635-7.0066 0.11866-7.4191-0.30597zm54.356 32.709c2.5335-5.1437 5.2335-9.7493 6-10.235 0.76654-0.48538 8.8814-0.88941 18.033-0.89783 19.529-0.018 18.855-0.3282 23.848 10.985 1.8204 4.125 3.7482 8.0625 4.284 8.75 1.3758 1.7654 8.7293 1.65 8.7293-0.13706 0-1.6103-34.679-77.652-36.049-79.046-0.50448-0.51334-1.1817-0.66888-1.5049-0.34565-1.6527 1.6526-36.405 79.036-35.877 79.889 0.33969 0.54963 2.2633 0.86216 4.2747 0.69451 3.544-0.2954 3.7996-0.59407 8.2634-9.657zm10.407-20.126c-0.89-1.43 12.11-30.52 13.63-30.52 1.348 0 13.714 26.663 13.798 29.75 0.0429 1.5822-1.2412 1.75-13.394 1.75-7.678 0-13.7-0.41922-14.045-0.97775zm68.248-10.201c0.25986-39.443 0.24903-39.683-1.8222-40.34-1.146-0.36372-3.1761-0.3871-4.5114-0.052l-2.44 0.61v39.314c0 21.623 0.32142 39.636 0.71426 40.029 0.39284 0.39284 2.3053 0.58034 4.25 0.41666l3.54-0.3 0.26-39.68zm-451.46-57.56c17.84-18.71 37.8-39.35 150.15-155.25 25.32-26.12 53.46-55.16 62.54-64.54 9.075-9.3809 30.45-31.445 47.5-49.031 54.47-56.19 119.54-123.33 139-143.44 10.381-10.725 38.909-40.2 63.397-65.5s48.253-49.732 52.813-54.292c7.0723-7.0741 8.2902-8.7823 8.2902-11.628 0-1.8344-0.70484-3.9202-1.5663-4.6352-1.7388-1.4431-2.7937-1.3667-180.43 13.06-6.325 0.51366-50.875 4.1129-99 7.9984-106.68 8.6126-107.37 8.6683-123.5 9.963-7.15 0.57373-24.25 1.957-38 3.074-13.75 1.1169-30.175 2.449-36.5 2.9602-68.077 5.502-71.16 5.9087-87.624 11.56-40.166 13.79-75.347 49.51-90.19 91.57-6.489 18.39-7.69 26.8-7.69 53.88 0 27.197 0.77906 32.945 6.9992 51.644 7.0793 21.282 18.665 40.227 34.967 57.178 12.085 12.567 23.543 21.285 37.594 28.605 9.4761 4.9367 29.528 12.564 33.067 12.579 0.75534 0.003 3.0608 0.47422 5.1234 1.047l3.75 1.0414v105.9c0 99.805 0.10077 105.96 1.75 106.92 4.2298 2.4636 6.1673 1.2875 17.558-10.658zm-15.31-99.56v-106.45l-9.75-2.2443c-28.382-6.54-52.11-20.24-72.209-41.7-37.951-40.52-50.495-99.88-32.536-153.95 7.292-21.96 19.258-41.22 35.953-57.87 20.178-20.13 41.286-32.03 67.542-38.07 8.8847-2.0443 41.037-4.8821 209-18.447 181.39-14.649 236.95-19.14 309.88-25.054 18.218-1.4769 25.688-1.7521 26.466-0.97485 0.77725 0.77725-1.6211 3.8307-8.4966 10.817-5.27 5.36-87.14 89.84-181.94 187.74-151.17 156.12-235.7 243.38-318.21 328.49-12.538 12.933-23.45 23.66-24.25 23.838-1.26 0.27-1.45-13.54-1.45-106.13zm479.54 95.155c13.19-13.57 14.87-16.6 14.87-26.86-0.007-12.08-5.5033-21.393-15.815-26.795-4.2802-2.2422-6.3628-2.6664-13.09-2.6664s-8.8098 0.42422-13.09 2.6664c-11.815 6.1896-18.909 21.224-15.237 32.295 1.924 5.8007 5.8805 7.4965 17.495 7.4984 10.746 0.002 11.941 0.34546 13.818 3.974 1.6258 3.144 0.50386 5.0276-2.9946 5.0276-1.1599 0-2.8786 0.56281-3.8193 1.2507-1.6019 1.1713-1.5784 1.5045 0.37057 5.25 1.6323 3.1369 1.9495 5.0456 1.4713 8.8516l-0.60972 4.8523 2.798-2.0006c1.5389-1.1003 7.7669-7.1089 13.84-13.352zm-53.114-47.423c1.9124-1.9124 1.985-3.4807 0.2697-5.8265-0.71595-0.97913-33.903-18.526-73.75-38.993-55.504-28.509-72.509-37.668-72.708-39.161-0.14297-1.0716 14.173-33.673 31.813-72.448s32.317-71.696 32.616-73.157c0.42252-2.0659-0.005-3.0167-1.9221-4.2727-1.356-0.88851-3.1741-1.3436-4.04-1.0113-0.86599 0.3323-24.869 24.53-53.34 53.773-54.224 55.694-81.05 83.138-113.12 115.73-19.634 19.952-21.585 22.756-17.937 25.784 0.72047 0.59794 47.408 8.0514 103.75 16.563 56.342 8.5118 115.49 17.485 131.44 19.941 33.045 5.0875 34.779 5.2322 36.929 3.0824zm-64.43-11.51c-28.32-4.33-58.92-8.99-68-10.35-66.52-9.95-130.95-19.71-133.25-20.18-1.51-0.31-2.75-0.99-2.75-1.51 0-0.78 80.33-83.66 164.4-169.64 14.13-14.45 16.6-16.57 16.6-14.27 0 0.5396-14.649 33.209-32.554 72.6-17.905 39.39-32.417 72.301-32.25 73.134 0.30116 1.5009 13.861 8.6592 100.3 52.95 24.2 12.399 44.659 23.172 45.464 23.94 1.2645 1.2052 0.92336 1.3826-2.5 1.3003-2.18-0.05-27.14-3.64-55.46-7.97z"/>
  <path id="path6580" d="m0 386.5v-386.5h386.5 386.5v386.5 386.5h-386.5-386.5v-386.5zm734.5 361.58c13.051-5.8314 18.435-23.07 10.856-34.759-3.1974-4.9311-9.5197-9.2075-19.856-13.43-10.133-4.14-13.5-7.317-13.5-12.738 0-9.9548 15.262-15.067 22.961-7.6914 2.9843 2.8592 3.8785 3.0235 7.4921 1.377 3.4186-1.5576 3.2073-3.8206-0.70295-7.5314-5.1177-4.8567-9.1447-6.4331-16.433-6.4331-13.16 0-22.283 7.5168-23.117 19.046-0.75472 10.434 3.0314 14.872 19.301 22.622 16.885 8.0442 20.388 13.498 15.536 24.186-5.0761 11.182-22.074 11.139-27.393-0.0694-0.9-1.9-1.64-3.96-1.64-4.56 0-1.1764-4.8041-1.495-7.4182-0.49188-5.0168 1.9251 2.433 15.671 10.918 20.146 6.8229 3.5979 15.408 3.7205 23 0.32846zm-46.52-37.83c-0.008-21.862-0.39173-40.344-0.85179-41.069-0.52413-0.82661-2.2921-1.2-4.7347-1l-3.89 0.32-0.26545 28.82c-0.22164 24.064-0.49601 28.767-1.6625 28.5-0.77-0.18-14.04-13.6-29.49-29.82-15.45-16.225-28.544-29.652-29.099-29.837-0.66928-0.2238-0.92023 13.553-0.74682 41l0.27 41.34h4.5 4.5l0.26545-28.82c0.21896-23.773 0.50503-28.764 1.6333-28.5 0.75233 0.17619 13.889 13.483 29.192 29.57 15.303 16.088 28.406 29.25 29.117 29.25 1.0358 0 1.2899-7.9044 1.2776-39.75zm-614.59 37.17c0.334-0.87 0.607-8.49 0.607-16.93 0-12.437 0.28986-15.637 1.5289-16.876 0.84092-0.84092 2.0784-1.3019 2.75-1.0244 0.67158 0.27751 7.7158 8.5974 15.654 18.489l14.433 17.984 11.031-0.28104c12.536-0.31937 10.644 1.0565 16.889-12.281l3.2777-7 18.708-0.27203 18.708-0.27203 4.76 9.772 4.76 9.772 4.75 0.30479c2.8984 0.18598 4.75-0.1125 4.75-0.76574 0-1.0237-7.917-18.554-27.505-60.906-4.9529-10.709-9.471-19.625-10.04-19.815-0.89528-0.29842-8.0116 14.62-31.77 66.605-2.8714 6.2825-5.6929 11.58-6.2701 11.773-1.24 0.42-34.42-39.05-34.42-40.93 0-0.71 7.425-8.7 16.5-17.76 9.08-9.06 16.5-17.04 16.5-17.74 0-0.85-1.69-1.26-5.26-1.26h-5.2614l-16.48 16.5c-9.0625 9.075-16.82 16.5-17.239 16.5-0.41875 0-0.76826-6.8625-0.77668-15.25-0.0084-8.3875-0.39172-15.844-0.85179-16.569-0.52413-0.82661-2.2921-1.2-4.7347-1l-3.897 0.32-0.261 40.25-0.262 40.25h4.4044c3.0937 0 4.585-0.47071 5.0113-1.5818zm72.027-28.78c-0.68355-1.7813 11.509-29.648 12.963-29.628 1.4238 0.0189 13.948 28.646 13.119 29.987-0.36 0.58-5.87 1-13.09 1-9.5787 0-12.593-0.31477-12.993-1.3567zm62.54 28.11c0.50351-1.2375 2.3375-10.575 4.0756-20.75 4.209-24.641 4.9831-28.161 6.1095-27.786 0.52548 0.17516 5.8003 11.336 11.722 24.802 6.5 14.8 11.3 24.48 12.13 24.48 0.82728 0 5.6252-9.6804 12.135-24.484 5.9215-13.466 11.222-24.635 11.779-24.821 1.2341-0.41137 1.1311-0.86774 5.9866 26.52 2.1662 12.218 4.2263 22.681 4.5781 23.25 0.76372 1.2357 8.1798 1.3971 8.9233 0.19413 0.6968-1.1274-14.321-78.403-15.468-79.592-0.49511-0.51334-1.0779-0.73834-1.2951-0.5-0.21717 0.23833-6.1292 13.596-13.138 29.683-7.0086 16.088-13.087 29.25-13.507 29.25-0.42002 0-6.5498-13.276-13.622-29.502-7.072-16.226-13.311-29.351-13.865-29.167-0.81634 0.27211-16.332 75.098-16.468 79.419-0.0259 0.8215 1.5106 1.25 4.4821 1.25 3.751 0 4.6774-0.3834 5.4369-2.25zm96.803-38-0.26134-40.25h-4-4l-0.26134 40.25-0.26135 40.25h4.5227 4.5227l-0.26135-40.25zm37.24 5.83c0-18.93 0.27314-35.13 0.60699-36 0.49005-1.277 2.3073-1.5818 9.4326-1.5818 8.0498 0 8.8834-0.18215 9.4833-2.0722 0.36172-1.1397 0.38143-3.1728 0.0438-4.518l-0.61387-2.4459-23.726 0.26805-23.73 0.27v4 4l9 0.5 9 0.5 0.53211 35.5c0.29266 19.525 0.63016 35.612 0.75 35.75 0.11984 0.1375 2.2429 0.25 4.7179 0.25h4.5v-34.418zm91.5 32.053c5.0063-2.1727 10.313-7.1441 12.119-11.352 1.8345-4.2753 1.7519-12.458-0.17229-17.064-1.9098-4.5718-5.7388-8.6819-9.5644-10.267-3.2143-1.3314-3.6676-3.0549-1.3166-5.0061 3.0902-2.5647 4.7772-7.3763 4.7326-13.499-0.0666-9.1459-4.3232-15.469-12.799-19.013-5.5271-2.3108-24.344-3.2908-25.584-1.3324-1.0078 1.5917-1.2615 75.835-0.26802 78.424 0.57699 1.5036 2.1973 1.6428 14.75 1.2671 10.446-0.31265 15.139-0.87216 18.102-2.1581zm-23.064-7.9401c-0.27552-0.71801-0.3739-6.9055-0.21861-13.75l0.28-12.44 5.3075-0.30425c12.47-0.72 21.19 4.81 21.19 13.43 0 9.8081-5.8951 14.313-18.781 14.352-5.0842 0.0153-7.4326-0.37197-7.7824-1.2835zm-0.001-36.003c-0.2761-0.71952-0.37448-6.682-0.21861-13.25l0.28-11.94 5.6356 0.0198c9.63 0.03 13.86 4 13.86 12.98 0 5.966-2.0709 9.8312-6.3571 11.865-4.1897 1.9881-12.491 2.1934-13.208 0.32662zm57.56 30.89c0-8.48 0.27314-16.13 0.60699-17 1.5174-3.9544 4.4044-1.3256 14.462 13.168 13.61 19.62 13.25 19.25 19.1 19.25 2.79 0 4.83-0.46 4.83-1.08 0-0.59-5.18-8.21-11.5-16.92s-11.5-16.07-11.5-16.34c0-0.2761 1.6136-1.0345 3.5858-1.6854 12.804-4.2256 18.629-20.824 11.657-33.216-2.3959-4.2581-4.0606-5.8246-8.7671-8.2499-5.5446-2.8572-6.3837-2.9941-18.393-3l-12.58-0.01-0.26134 40.25-0.26135 40.25h4.5114 4.5113v-15.418zm1.25-27.698c-1.3088-1.3441-1.8463-24.166-0.64301-27.302 0.43337-1.1294 1.935-1.5802 5.25-1.5762 6.9492 0.008 12.167 1.8186 15.846 5.4975 2.8756 2.8756 3.2969 3.955 3.2969 8.4466 0 6.6039-2.0761 10.538-6.8443 12.971-4.9722 2.5366-15.192 3.7234-16.906 1.9632zm54.54 33.37 4.71-9.75h18.866 18.866l4.2632 9.5 4.2632 9.5 5.121 0.30226c2.8166 0.16624 5.121-0.09 5.121-0.56953 0-1.27-35.955-79.56-37.046-80.666-0.50652-0.51334-1.1971-0.6572-1.5346-0.3197-0.64 0.65-37.42 80.57-37.42 81.33 0 0.23 2.27 0.43 5.04 0.43h5.0399l4.7101-9.75zm10.57-20.755c-0.76-1.97 11.2-29 12.83-29 1.4606 0 14.116 28.203 13.27 29.572-0.32 0.51-6.19 0.93-13.05 0.93-10.182 0-12.578-0.27633-13.05-1.505zm67.14-10v-40l-3.3153-0.31823c-6.36-0.61-6.18-1.77-6.18 39.86 0 20.788 0.282 38.531 0.62668 39.429 0.46853 1.221 1.6672 1.5571 4.75 1.3318l4.12-0.3v-40zm-456.83-50.45c3.5412-4.3532 30.783-32.58 156.88-162.55 16.542-17.05 38.372-39.587 48.511-50.082s37.823-39.07 61.519-63.5c23.7-24.43 51.56-53.2 61.92-63.92 10.36-10.725 32.372-33.452 48.916-50.504s50.982-52.602 76.53-79c25.547-26.398 53.11-54.717 61.25-62.933 12.85-12.98 14.8-15.36 14.8-18.13 0-5.271-1.5574-5.7954-15.276-5.1436-6.723 0.31945-40.124 2.8645-74.224 5.6558-34.1 2.7912-95.525 7.7848-136.5 11.097-40.975 3.3121-79.9 6.4594-86.5 6.9941-76.467 6.195-144.03 11.607-180.5 14.458-26.579 2.0781-48.89 4.3222-55.401 5.5726-28.283 5.4311-51.803 18.21-73.561 39.968-17.602 17.6-29.207 36.28-36.966 59.51-6.352 19.01-7.5763 27.56-7.5127 52.45 0.046511 18.199 0.3898 23.051 2.236 31.604 7.5435 34.946 25.647 65.631 51.425 87.164 18.616 15.55 35.744 24.474 57.016 29.705 5.3564 1.3174 10.129 2.6362 10.605 2.9307 0.48491 0.29969 0.64729 46.483 0.36872 104.87-0.3767 78.948-0.21132 104.87 0.67978 106.53 0.93226 1.7419 2.0709 2.2003 5.4656 2.2003 3.9311 0 4.6233-0.41218 8.3164-4.9522zm-9.2-1.3c-0.25921-0.6875-0.58258-48.69-0.71861-106.67l-0.25-105.43-8.06-1.73c-42.477-9.14-78.484-37.96-97.961-78.42-6.38-13.25-9.594-22.53-12.642-36.5-1.967-9.02-2.293-13.39-2.307-31-0.014-17.77 0.29-21.87 2.282-30.79 6.755-30.25 18.866-53.44 38.664-74.04 26.734-27.81 55.104-40.77 96.524-44.09 24.435-1.9594 75.058-6.0389 100.5-8.0987 13.75-1.1132 33.1-2.6788 43-3.4791 9.9-0.80029 29.25-2.3681 43-3.484s69.775-5.6285 124.5-10.028 110.3-8.8829 123.5-9.9631 35.7-2.8782 50-3.9955 27.486-2.232 29.302-2.4771c4.0526-0.54683 5.3239 1.6471 2.4326 4.198-1.08 0.96-30.71 31.45-65.82 67.75-35.117 36.3-91.753 94.8-125.86 130-34.105 35.2-83.141 85.825-108.97 112.5-25.827 26.675-53.309 55.025-61.07 63-14.699 15.104-17.869 18.376-95.444 98.504-62.45 64.5-73.18 75.5-73.7 75.5-0.23761 0-0.64411-0.5625-0.90333-1.25zm475.98-6.5652c17.37-16.965 18.052-18.103 18.049-30.112-0.002-7.9445-0.37692-10.273-2.2022-13.69-3.5787-6.6978-7.0077-10.084-13.495-13.326-15.627-7.809-34.745-0.51254-40.757 15.555-2.2589 6.0374-2.6353 13.391-0.93509 18.268 1.6743 4.8029 5.6102 6.2986 18.137 6.8923 9.5172 0.4511 11.021 0.76804 12.299 2.5927 2.278 3.2522 1.7846 4.1311-3.044 5.4226-4.925 1.3172-5.5232 2.72-2.8803 6.7535 1.1942 1.8226 1.5054 4.052 1.1846 8.4866-0.23928 3.3081-0.10433 5.8924 0.29991 5.7429 0.40423-0.14949 6.4092-5.8136 13.344-12.587zm-49.65-50.38c0.66-0.66 1.2-2.441 1.2-3.9578 0-2.1971-0.8642-3.2515-4.25-5.1854-2.3375-1.3352-35.075-18.249-72.75-37.586s-69.115-35.77-69.867-36.517c-1.1547-1.1475 3.7044-12.514 31.294-73.206 23.413-51.503 32.578-72.668 32.367-74.746-0.37765-3.7207-2.8549-5.3428-6.2042-4.0624-1.3835 0.52888-31.003 30.212-65.82 65.962-34.818 35.75-76.009 78.049-91.537 93.999-30.053 30.868-31.276 32.557-25.983 35.859 1.2964 0.80879 28.104 5.2898 63.25 10.572 103.66 15.58 159.23 23.98 178.5 26.981 20.567 3.2025 28.014 3.6746 29.8 1.8891zm-65.3-12.37c-85.43-13.02-200.92-30.44-201.75-30.44-2.2441 0.0167 0.32678-3.4297 10-13.406 55.98-57.72 165.91-170.25 166.94-170.88 0.77-0.47 1.31-0.35 1.31 0.29 0 0.60099-14.642 33.311-32.537 72.688s-32.39 72.037-32.21 72.577c0.32504 0.97512 18.785 10.621 101.25 52.906 23.65 12.127 43.659 22.676 44.464 23.443 2.059 1.9592 4.3727 2.2482-57.464-7.1759z"/>
  <path id="path6582" d="m0 386.5v-386.5h386.5 386.5v386.5 386.5h-386.5-386.5v-386.5zm687.76 323.25-0.26-41.25h-5-5l-0.26557 28.25c-0.14607 15.538-0.63947 28.25-1.0965 28.25-0.45699 0-13.387-13.241-28.734-29.424-15.34-16.19-28.58-29.34-29.4-29.24-1.3001 0.16216-1.5348 5.4884-1.7615 39.968-0.17281 26.287 0.0935 40.444 0.78518 41.737 0.66724 1.2467 2.0919 1.9558 3.9297 1.9558 6.3562 0 6.0466 1.5131 6.0466-29.548 0-15.584 0.38422-28.571 0.85383-28.862 0.46961-0.29023 13.764 12.958 29.543 29.441 15.78 16.48 29.12 29.97 29.65 29.97 0.6121 0 0.8717-15.156 0.70654-41.25zm43.464 40.204c10.104-2.8062 17.793-13.367 17.753-24.384-0.0433-11.982-5.736-18.709-21.254-25.115-5.5652-2.2974-10.563-5.1366-12.6-7.158-2.9531-2.9301-3.3029-3.8039-2.7896-6.9671 1.6105-9.9244 14.024-13.395 22.77-6.3665 2.0781 1.67 4.0728 3.0364 4.4327 3.0364 1.1498 0 6.463-4.1034 6.463-4.9914 0-1.8089-5.429-7.1869-9.1942-9.1077-5.7247-2.9205-12.427-3.4438-19.134-1.4938-11.933 3.469-18.552 13.895-15.654 24.658 1.7953 6.6673 6.4686 10.712 20.083 17.384 9.8158 4.81 12.735 6.7255 14.24 9.3436 2.3794 4.1387 2.3437 10.349-0.0834 14.505-6.777 11.604-23.04 9.4833-27.212-3.5481-1.308-4.085-1.7332-4.2422-7.2956-2.6974-4.3718 1.2141-4.6046 2.4624-1.6691 8.9474 5.3982 11.925 18.045 17.592 31.144 13.954zm-658.8-0.56c1.355-0.52 1.582-3 1.582-17.3 0-16.59 0.469-19.09 3.578-19.09 0.64795 0 7.3266 7.6375 14.841 16.972 7.5148 9.3347 14.645 17.66 15.844 18.5 2.7873 1.9523 19.559 2.1649 21.914 0.27775 0.85822-0.6875 3.0531-4.625 4.8776-8.75 5.2415-11.851 3.55-11.087 23.869-10.772l17.58 0.27 4.5208 9.332c2.4865 5.1326 5.1865 9.7036 6 10.158 2.0469 1.1426 19.687 0.72003 20.81-0.49846 0.50205-0.54516 2.7974-11.781 5.1008-24.967 2.3034-13.187 4.3861-24.174 4.6284-24.417 0.82-0.82 1.5386 0.64016 12.319 25.032 6.42 14.52 11.31 24.36 12.12 24.36 0.80755 0 5.7018-9.8363 12.121-24.361 10.758-24.341 11.5-25.851 12.31-25.041 0.23741 0.23741 2.3325 11.225 4.6558 24.417 2.9597 16.806 4.7013 24.372 5.8184 25.28 0.87683 0.71198 3.1692 1.162 5.0942 1 3.3828-0.28465 3.4974-0.42845 3.4214-4.2945-0.13212-6.7256-14.616-78.5-15.841-78.5-0.61419 0-6.9008 13.275-13.97 29.5-7.0695 16.225-13.191 29.5-13.602 29.5-0.41182 0-6.5243-13.275-13.583-29.5-7.059-16.225-13.332-29.5-13.939-29.5-0.65549 0-4.283 16.073-8.9236 39.54-4.3673 22.085-8.2518 39.396-8.7993 39.214-0.53911-0.17971-9.0203-17.827-18.847-39.216-9.8268-21.389-18.257-39.28-18.733-39.756-1.5748-1.5748-1.2313-2.272-31.857 64.651-3.255 7.1128-6.4372 13.105-7.0715 13.317-1.02 0.34-33.205-37.283-34.111-39.876-0.19726-0.56395 7.3402-8.7699 16.75-18.236 9.41-9.47 17.11-17.53 17.11-17.93 0-0.39-2.85-0.71-6.34-0.71h-6.3377l-15.749 16.5c-8.66 9.08-16.147 16.5-16.635 16.5-0.48844 0-1.0117-7.3125-1.1628-16.25l-0.275-16.25h-5-5l-0.26173 39.383c-0.18767 28.24 0.05919 39.77 0.87244 40.75 1.1759 1.4169 5.5519 1.817 8.3075 0.7596zm72.642-31.14c0.16331-2.0776 12.565-28.584 13.328-28.486 1.01 0.13 12.61 25.75 12.61 27.86 0 1.1-2.61 1.38-13 1.38-7.15 0-12.973-0.3375-12.941-0.75zm159.83 30.383c0.81326-0.97992 1.0601-12.51 0.87245-40.75l-0.26-39.38h-5-5l-0.26173 39.383c-0.18767 28.24 0.0592 39.77 0.87245 40.75 0.62379 0.75162 2.599 1.3666 4.3893 1.3666s3.7655-0.61497 4.3893-1.3666zm36.176 0.33141c1.85-0.99 1.93-2.45 1.93-35.98v-34.946l2.25-0.51472c1.2375-0.28309 5.4-0.62916 9.25-0.76905l7-0.25433v-4-4l-24.25-0.26778-24.25-0.26778v4.5178c0 2.4848 0.3375 4.5497 0.75 4.5887s4.35 0.20474 8.75 0.36827 8.3375 0.35661 8.75 0.42906c0.4125 0.0725 0.75 15.792 0.75 34.932 0 25.733 0.31264 35.113 1.2 36 1.4742 1.4742 5.2705 1.5538 7.8657 0.16482zm91.367-1.5652c10.893-3.7808 17.233-14.718 14.601-25.188-1.6872-6.7113-4.5566-10.848-9.5586-13.779l-4.351-2.5498 3.0776-4.3662c5.6839-8.0639 4.7633-19.787-2.0924-26.643-5.1002-5.1002-12.147-7.0365-24.249-6.6628l-9.36 0.28898-0.26164 39.934c-0.20474 31.25 0.0127 40.126 1 40.816 2.0965 1.4656 25.669 0.0676 31.194-1.8499zm-20.942-8.5625c-0.30562-0.79643-0.42862-7.0481-0.27333-13.893l0.27-12.44 7 0.30967c12.202 0.53982 18.508 5.2811 18.496 13.908-0.005 3.8418-3.2859 8.8634-7.0685 10.82-4.4619 2.3073-17.692 3.24-18.437 1.2997zm0.25901-35.408c-0.4125-0.41918-0.75-6.3263-0.75-13.127 0-14.312-0.0388-14.258 8.7348-12.164 4.6335 1.1057 6.1371 2.0018 7.9867 4.76 4.2854 6.3907 1.9009 16.774-4.4024 19.171-3.8192 1.4521-10.684 2.2591-11.569 1.36zm56.04 45.38c0.83169-0.83169 1.2-6.0313 1.2-16.941 0-15.748 0.55439-18.304 3.449-15.901 0.74875 0.62141 6.2127 8.1141 12.142 16.65 5.9294 8.5363 11.485 15.897 12.345 16.357 1.5933 0.85172 18.224 1.1611 21.2 0.3944 0.92043-0.23712 3.5198-4.5754 5.9436-9.9198 3.0347-6.6915 4.9154-9.6479 6.3641-10.004 1.131-0.27829 9.4647-0.3775 18.519-0.22047 18.824 0.32648 15.993-1.2303 22.316 12.27 2.3731 5.067 3.9809 7.2343 5.8557 7.8936 3.14 1.1 7.86 0.07 7.86-1.72 0-2.59-36.64-81.16-37.84-81.16-0.67966 0-9.4594 17.972-19.511 39.938-10.051 21.966-18.696 40.068-19.211 40.226-0.88555 0.27282-22.629-28.873-23.209-31.11-0.15031-0.57974 1.9782-2.0848 4.73-3.3445 13.744-6.2917 17.277-25.743 6.7312-37.057-5.1868-5.5646-9.0744-6.6323-24.188-6.6429l-14-0.01-0.26173 39.383c-0.18767 28.24 0.0592 39.77 0.87245 40.75 1.3998 1.6866 7.0607 1.7952 8.6893 0.16659zm66.2-30.58c0-1.2427 11.736-27.358 12.75-28.373 0.85-0.85 13.25 25.39 13.25 28.05 0 0.74-4.2 1.1-13 1.1-7.15 0-13-0.34991-13-0.77757zm-64.78-26.36 0.28-14.36l5.9985 0.28109c11.807 0.55326 18.397 6.5047 17.188 15.522-1.089 8.1192-6.1678 11.867-16.964 12.518l-6.7782 0.40863 0.27816-14.364zm132.1 56.89c1.5642-1.147 1.6829-4.5034 1.4411-40.75l-0.26-39.5h-5-5l-0.26164 39.934c-0.20496 31.283 0.0117 40.107 1 40.735 1.9052 1.2094 6.1647 0.98892 8.084-0.41848zm11.304-99c7.7746-7.924 14.812-16.026 15.853-18.25 2.7248-5.8226 2.5443-17.391-0.37601-24.099-8.4726-19.46-34.941-24.15-49.17-8.7136-5.8299 6.3247-8.1171 12.063-8.1699 20.498-0.0733 11.715 3.846 14.657 19.657 14.758 6.8399 0.0433 9.3479 0.44255 10.75 1.7114 2.6803 2.4257 2.3742 5.345-0.56048 5.345-1.3141 0-3.381 0.80313-4.5933 1.7847l-2.2041 1.7847 2.2222 3.7664c2.1916 3.7146 2.3422 8.91 0.40457 13.959-1.7162 4.4724 3.317 0.57144 16.186-12.545zm-469.4 10.83c1.22-2.31 16.04-17.74 129.78-135.06 26.68-27.52 68.96-71.18 93.97-97.02 25-25.85 53.59-55.32 63.53-65.5 9.9365-10.175 38.061-39.2 62.499-64.5s52.114-53.875 61.502-63.5c9.3882-9.625 37.272-38.425 61.964-64s47.964-49.486 51.716-53.135c6.26-6.0887 6.8214-6.9752 6.8214-10.771 0-7.2812 4.8014-7.2061-70-1.0956-15.515 1.2675-177.76 14.375-216.5 17.49-17.05 1.3712-42.025 3.3945-55.5 4.4961s-63.875 5.1744-112 9.0507c-102.17 8.2298-104.71 8.6154-127.6 19.407-15.026 7.0835-25.685 14.827-39.981 29.046-24.449 24.318-38.63 51.558-43.814 84.161-2.335 14.687-2.164 41.877 0.35593 56.617 5.2125 30.49 18.823 57.055 41.031 80.083 12.453 12.914 23.689 21.59 36.862 28.466 12.397 6.4704 18.246 8.7472 31.147 12.125l10.5 2.7489 0.25461 105.31c0.18325 75.797 0.56787 105.69 1.3724 106.66 0.65574 0.79011 3.121 1.3469 5.9635 1.3469 4.1086 0 5.0406-0.36861 6.1276-2.4236zm-7.3791-4.0708c-0.2719-0.27189-0.28574-47.776-0.0308-105.56 0.26648-60.395 0.0869-105.44-0.42231-105.95-0.48724-0.48351-4.4113-1.6057-8.7202-2.4938-14.69-3.04-32.786-10.49-46.058-18.98-31.309-20.03-54.603-53.82-63.433-92.03-15.606-67.52 16.594-138.3 76.618-168.41 9.549-4.7902 22.403-9.2534 33.203-11.528 6.9891-1.4723 48.22-5.0017 222.5-19.046 37.95-3.0583 88.125-7.1192 111.5-9.0244s73.55-5.9563 111.5-9.0026 73.95-5.974 80-6.5061c13.733-1.2078 16.754-1.2225 16.333-0.0796-0.30263 0.82164-58.095 60.739-101.85 105.6-9.657 9.9-51.757 53.325-93.556 96.5-286.3 295.73-336.06 347-336.74 347-0.1945 0-0.57609-0.22246-0.84798-0.49436zm426.16-56.51c2.5834-2.5834 2.5241-4.3201-0.25-7.3284-1.2375-1.3419-20.925-11.999-43.75-23.683-95.934-49.108-102-52.314-102-53.908-0.00006-0.86922 14.695-33.916 32.655-73.437 28.394-62.48 32.535-72.202 31.732-74.5-0.7344-2.1015-1.6639-2.7053-4.5356-2.9464-3.5644-0.29923-4.3732 0.47746-61.444 59-31.807 32.617-73.486 75.348-92.62 94.957-36.216 37.117-37.202 38.374-33.038 42.104 1.2795 1.1462 37.242 6.9453 133.75 21.568 72.6 11 133.24 20.039 134.75 20.087 1.514 0.048 3.6489-0.81175 4.75-1.9128zm-65.5-13.006c-28.05-4.2867-84.3-12.795-125-18.908-40.7-6.1126-74.852-11.469-75.893-11.903-1.5939-0.66496 12.151-15.203 86.991-92.013 48.886-50.173 89.035-90.771 89.219-90.217 0.1845 0.55351-14.099 32.765-31.741 71.581s-32.072 71.338-32.068 72.271c0.009 1.6904 5.6324 4.6683 108.99 57.715 18.975 9.7385 34.928 18.106 35.45 18.594 1.6582 1.5487-3.6847 0.8689-55.95-7.1185z"/>
  <path id="path6584" d="m0 386.5v-386.5h386.5 386.5v386.5 386.5h-386.5-386.5v-386.5zm688.39 363.92c0.34-0.87 0.61-19.49 0.61-41.38 0-44.494 0.36001-42.394-7.1761-41.852l-4.32 0.31-0.26557 28.25c-0.15389 16.37-0.6531 28.25-1.187 28.25-0.50681 0-13.627-13.287-29.157-29.526-15.529-16.239-28.72-29.364-29.313-29.167-0.74766 0.24922-1.0779 13.201-1.0779 42.276v41.917l5.25 0.30226c2.8875 0.16624 5.3451 0.16624 5.4614 0 0.11628-0.16624 0.45378-13.311 0.75-29.211l0.54-28.91 28.88 30.16c15.89 16.59 29.23 30.16 29.65 30.16 0.41817 0 1.0335-0.7118 1.3673-1.5818zm45.553-1.0723c9.9296-4.0564 15.407-12.515 15.463-23.879 0.0613-12.356-5.517-18.783-22.531-25.959-10.3-4.35-13.87-7.57-13.87-12.51 0-2.7406 0.74848-4.3429 3.0657-6.5629 2.7369-2.6221 3.7498-2.9371 9.4445-2.9371 5.8376 0 6.6623 0.27478 9.7205 3.239l3.3418 3.239 3.4638-1.8511c4.2169-2.2536 4.7702-4.8318 1.8371-8.5607-6.008-7.6379-21.068-9.9571-30.992-4.7727-7.3322 3.8304-11.12 9.3552-11.675 17.03-0.75174 10.393 5.6497 18.212 19.035 23.252 15.823 5.9578 20.709 13.197 15.78 23.38-2.495 5.1539-6.4733 7.5439-12.558 7.5439-6.5699 0-10.691-2.776-13.372-9.0074-2.3011-5.3491-4.0664-6.0935-9.527-4.0173-3.5052 1.3327-3.3563 5.1124 0.46378 11.773 6.394 11.149 20.472 15.681 32.917 10.597zm-659.98-1.28c0.585-1.1 1.035-8.65 1.035-17.38 0-12.185 0.3023-15.694 1.4326-16.632 1.5278-1.2679 0.3163-2.5978 22.496 24.694l9.1428 11.25 10.714-0.0153c5.8928-0.008 11.227-0.34592 11.853-0.75 0.62633-0.40408 2.9654-4.7847 5.198-9.7347l4.0593-9 18.332-0.27126 18.332-0.27126 4.6366 10.021 4.6366 10.021h11.024c6.0631 0 11.273-0.40285 11.577-0.89523 0.3043-0.49237 2.4046-11.405 4.6674-24.25s4.4421-23.709 4.8429-24.142c0.40082-0.43295 5.6514 10.367 11.668 24 7.02 15.93 11.45 24.79 12.38 24.79 0.93005 0 5.3574-8.8597 12.387-24.787 6.0165-13.633 11.273-24.433 11.681-24 0.40815 0.43295 2.6017 11.32 4.8746 24.193s4.3672 23.786 4.6541 24.25c0.72619 1.175 10.151 1.0623 10.888-0.13024 0.33115-0.53582-2.5982-17.298-6.5097-37.25-9.22-47.02-8.94-45.78-10.39-45.78-0.68279 0-7.0208 13.275-14.084 29.5-7.0636 16.225-13.14 29.5-13.503 29.5-0.36316 0-6.4519-13.275-13.531-29.5-7.07-16.22-13.42-29.5-14.09-29.5-1.427 0-1.2603-0.73487-10.042 44.259-3.7314 19.118-7.1623 34.633-7.6242 34.479-0.46188-0.15396-8.8944-17.821-18.739-39.259-13.23-28.8-18.34-38.98-19.59-38.98-1.7398 0-5.5546 7.7788-27.599 56.278-5.5694 12.253-10.46 22.153-10.868 22-1.3-0.49-32.92-39.04-32.92-40.15 0-0.58432 7.6981-8.8062 17.107-18.271 9.5614-9.6182 16.813-17.684 16.441-18.286-0.37-0.59-3.22-1.07-6.35-1.07h-5.6803l-16.759 16.74-16.761 16.74v-15.05c0-17.752-0.37412-18.723-7.0363-18.248l-4.464 0.32-0.262 40c-0.14393 21.999-0.04555 40.562 0.21862 41.25 0.28604 0.74541 2.2988 1.2517 4.9765 1.2517 3.4218 0 4.7436-0.4622 5.5314-1.9343zm72.035-30.04c0-1.2914 10.913-26.31 11.927-27.345 0.90863-0.92668 13.222 26.26 12.456 27.501-0.72 1.17-24.38 1.02-24.38-0.16zm159.5-9.53v-41h-5-5l-0.26169 39.998c-0.14393 21.999-0.036 40.586 0.2398 41.305 0.34013 0.88638 2.0331 1.2087 5.2617 1.0017l4.76-0.31v-41zm37.5 5.5 0.5-35.5 8.9798-0.5c8.6764-0.4831 9.0119-0.59158 9.9289-3.2097 0.64282-1.8354 0.57558-3.5294-0.20839-5.25l-1.16-2.54h-23.32c-25.03 0-25.72 0.14-25.72 5.12 0 5.59 0.49 5.88 10.11 5.88h8.893v34.066c0 22.147 0.37197 34.761 1.0631 36.052 0.87044 1.6264 1.9126 1.9317 5.75 1.6843l4.69-0.31 0.5-35.5zm92.551 32.478c7.8751-4.0275 11.421-9.0736 12.168-17.317 0.88013-9.7063-3.2596-17.474-12.077-22.661-1.5516-0.91277-1.4723-1.3174 0.90927-4.6381 3.4546-4.817 4.5484-10.065 3.3809-16.221-1.2052-6.3551-3.6723-10.549-7.8683-13.377-4.8354-3.2586-9.3294-4.3527-20.474-4.9847-8.8398-0.50128-10.055-0.36406-11.25 1.2706-1.7492 2.3922-1.9784 76.389-0.24657 79.625 1.0376 1.9387 1.8208 2.0242 15.339 1.6747 13.502-0.34914 14.553-0.52513 20.118-3.3713zm-24.33-20.23 0.28-12.75l4.7988-0.30678c6.6115-0.42267 15.073 2.1924 17.636 5.4505 2.8767 3.6571 2.8252 11.121-0.10229 14.843-3.07 3.91-7.69 5.52-15.83 5.52h-7.062l0.27987-12.75zm-0.002-35.378l0.28-12.37 5.8591 0.0303c5.3248 0.0275 6.1227 0.32535 8.75 3.2658 2.441 2.7319 2.8909 4.0865 2.8909 8.7039 0 4.5999-0.45287 5.9753-2.8514 8.6597-2.4963 2.7938-3.621 3.2469-9.0318 3.6383l-6.1804 0.44705 0.28176-12.372zm57.78 42.14c0.41249-13.602 0.76254-16.535 2-16.757 0.95205-0.17057 5.8288 5.955 13.35 16.769l11.85 17.038 11.65-0.28087 11.65-0.28 4.8015-9.7724 4.8015-9.7724 18.167 0.27236 18.167 0.27236 3.2777 7c5.9632 12.735 5.2708 11.966 11.079 12.303 3.6563 0.21165 5.382-0.0978 5.7394-1.029 0.45642-1.1894-35.513-81.153-37.315-82.955-0.40435-0.40435-1.2121-0.41642-1.795-0.0268-0.5829 0.3896-9.1852 18.465-19.116 40.167-9.931 21.702-18.473 39.597-18.982 39.767-0.97231 0.3241-22.368-28.84-22.267-30.351 0.0323-0.48074 2.3847-2.0139 5.2276-3.407 7.2936-3.5741 11.023-9.7448 11.552-19.116 0.62931-11.137-3.4334-18.38-12.732-22.696-5.1194-2.3763-6.7374-2.6049-18.607-2.6292l-13-0.0266-0.26169 39.998c-0.14393 21.999-0.036 40.586 0.2398 41.305 0.34013 0.88638 2.0331 1.2087 5.2617 1.0017l4.76-0.31 0.5-16.49zm66-15.34c0-1.4962 10.705-25.736 11.907-26.963 0.85391-0.87141 13.114 26.335 12.411 27.542-0.24014 0.4125-5.8101 0.75-12.378 0.75-9.26 0-11.94-0.3-11.94-1.33zm-65.515-12.85c-0.30237-0.78797-0.42271-7.0327-0.26742-13.877l0.29-12.44 4.1904-0.30459c6.1035-0.44364 12.264 1.5438 15.49 4.9974 2.3531 2.519 2.8199 3.8893 2.8199 8.2781 0 8.7-4.6218 12.821-15.796 14.086-4.9014 0.55452-6.282 0.40354-6.7188-0.73471zm133.02 3.68v-41l-4.7539-0.30495c-4.1856-0.2685-4.8578-0.0294-5.6234 2-1.3598 3.6044-1.4677 76.292-0.11699 78.816 0.93486 1.7468 1.8971 2.0436 5.8074 1.7915l4.68-0.31v-41zm8.1027-56.189c7.3871-6.9788 14.886-14.956 16.664-17.727 3.0345-4.7289 3.2328-5.5927 3.2281-14.061-0.004-7.0483-0.46475-10.019-2.1057-13.574-3.1071-6.7313-7.7635-11.48-14.611-14.902-15.322-7.6564-34.104-0.86626-41.052 14.841-2.753 6.2237-3.3862 15.595-1.3784 20.4 2.1157 5.0636 6.2229 6.6597 18.983 7.3771 7.5414 0.42396 10.494 0.9783 11.42 2.1444 1.8798 2.365 1.6036 2.7679-2.8029 4.0881-4.9216 1.4746-5.8139 3.3649-3.4651 7.3411 1.4508 2.456 1.6629 4.2918 1.1428 9.8885-0.35131 3.78-0.37199 6.8726-0.046 6.8726 0.32603 0 6.6368-5.7099 14.024-12.689zm-465.51 6.4495c2.4236-2.8815 12.957-14.021 23.407-24.754s39.46-40.663 64.466-66.511c25.007-25.848 53.594-55.321 63.527-65.496 9.9331-10.175 31.095-32 47.027-48.5 29.219-30.261 48.983-50.666 77.488-80 8.5512-8.8 22.295-22.975 30.543-31.5 8.2472-8.525 28.926-29.9 45.954-47.5 17.027-17.6 39.281-40.55 49.452-51 29.014-29.809 43.192-44.444 79.445-82 18.582-19.25 37.343-38.428 41.692-42.618 6.76-6.49 7.92-8.1 7.92-10.92 0-5.32-2.29-6.96-9.71-6.96-3.5182 0-22.911 1.3457-43.095 2.9905s-50.873 4.1354-68.198 5.5348-42.3 3.4269-55.5 4.5057c-13.2 1.0787-60.45 4.8825-105 8.4529s-86.4 6.9475-93 7.5048-23.25 1.9181-37 3.0241c-106.13 8.54-134.72 11.12-142.5 12.89-49.052 11.14-90.696 50.09-107.01 100.07-6.0677 18.6-7.4951 28.46-7.457 51.53 0.027473 16.625 0.41152 21.895 2.2759 31.228 6.2799 31.437 20.051 57.207 42.651 79.817 22.368 22.377 43.071 33.696 74.727 40.854l2.6869 0.60761-0.30832 104.96c-0.34 117.46-0.87 109.04 6.84 109.04 3.9428 0 4.6403-0.42035 8.6933-5.2392zm-9.09-107.95c0-100.74-0.0974-106.7-1.75-107.17-0.9625-0.27419-4.45-1.0304-7.75-1.6805-8.8962-1.7526-22.938-6.6586-32-11.181-13.653-6.82-24.431-14.71-36.571-26.78-24.144-24-38.466-53.15-43-87.5-1.665-12.62-0.64-39.34 1.964-51.19 10.121-46.07 39.902-84.42 80.129-103.18 21.288-9.93 28.578-11.14 103.48-17.15 34.65-2.7819 85.222-6.8408 112.38-9.0198 63.884-5.1252 240.63-19.398 271.62-21.934 13.2-1.0802 35.7-2.8762 50-3.9912s27.712-2.2146 29.804-2.4436c2.0922-0.229 3.6672-0.0249 3.5 0.45358-0.33275 0.95212-34.675 36.815-60.284 62.954-8.8911 9.075-44.244 45.525-78.561 81-34.318 35.475-77.27 79.8-95.45 98.5s-74.22 76.52-124.53 128.5c-126.37 130.56-158.17 163.39-166.12 171.49l-6.86 6.99v-106.67zm426.8 49.99c1.7891-1.7891 1.4546-7.2691-0.55-9.0087-0.9625-0.8353-33.923-18.026-73.246-38.201-39.323-20.176-71.884-37.07-72.357-37.543-0.48028-0.48028 13.547-32.591 31.759-72.704 17.94-39.514 32.613-72.933 32.607-74.265-0.02-3.31-2.77-6.08-6.03-6.08-2.2491 0-11.037 8.5579-52.595 51.217-27.442 28.169-69.132 70.925-92.645 95.012-39.189 40.147-42.75 44.076-42.75 47.161 0 1.8509 0.66956 3.921 1.4879 4.6002 1.6857 1.399 258.94 40.72 267.56 40.897 3.1336 0.064 6.0725-0.40905 6.75-1.0866zm-139.3-25.32c-66-10.046-121.94-18.571-124.31-18.944-2.3705-0.37323-4.1705-1.0498-4-1.5034 0.17045-0.45363 32.506-33.835 71.856-74.18s78.678-80.677 87.395-89.627c8.717-8.9495 16.053-16.068 16.302-15.819 0.24896 0.24897-14.029 32.321-31.729 71.272-21.915 48.226-31.905 71.259-31.315 72.199 0.8592 1.3674 17.661 10.172 98.801 51.775 23.1 11.844 42.428 21.942 42.95 22.44 0.57525 0.54824-0.41095 0.85568-2.5 0.77937-1.8975-0.0693-57.45-8.3456-123.45-18.392z"/>
  <path id="path6586" d="m0 386.5v-386.5h386.5 386.5v386.5 386.5h-386.5-386.5v-386.5zm688.76 323.48c0.2047-33.217-0.011-42.524-1-43.152-2.0397-1.2948-9.4205-0.94628-10.622 0.5016-0.73324 0.88351-1.1958 10.526-1.3724 28.608l-0.27 27.28-28.36-29.66c-18.305-19.143-28.943-29.548-30-29.345-1.4807 0.285-1.6626 4.3264-1.8987 42.186-0.19256 30.882 0.0466 42.241 0.91118 43.283 0.79797 0.96149 2.7971 1.3178 6.2611 1.1158l5.09-0.3 0.5-27.67c0.275-15.218 0.76696-27.935 1.0932-28.26 0.32628-0.32524 13.312 12.709 28.858 28.966 15.546 16.256 28.779 29.386 29.407 29.177 0.82627-0.27528 1.214-12.084 1.4028-42.731zm43.464 40.972c5.8833-1.6339 11.961-6.8479 15.025-12.891 2.205-4.3477 2.75-6.7807 2.75-12.275 0-13.869-5.1427-19.844-23.5-27.302-9.2327-3.7509-12.5-6.7567-12.5-11.499 0-8.9931 14.398-12.846 20.702-5.5396 2.6675 3.0919 5.5246 3.2392 9.3936 0.48426 3.5957-2.5604 3.668-4.8709 0.27858-8.899-7.3935-8.7867-24.253-10.633-34.436-3.7702-8.9102 6.0046-12.35 17.853-7.7608 26.73 2.9233 5.6542 9.4158 10.513 19.933 14.917 10.656 4.4626 14.889 8.578 14.889 14.476 0 8.4132-7.8402 15.486-15.561 14.037-4.9772-0.93372-10.04-5.571-11.128-10.193-1.0167-4.3183-3.3648-5.129-9.517-3.2858-3.2025 0.95948-3.794 1.5675-3.794 3.9002 0 7.0502 8.8173 18.242 16.5 20.943 3.932 1.3826 14.024 1.4727 18.725 0.16715zm-657.22-17.65c0.30577-10.521 0.92743-17.629 1.6003-18.3 0.79946-0.79711 3.2439 1.5828 8.9395 8.7032 4.3116 5.3902 11.159 13.738 15.218 18.55l7.3784 8.75h11.31c7.8427 0 11.619-0.38319 12.319-1.25 0.55518-0.6875 2.6911-5.1424 4.7465-9.8998 3.3031-7.6454 4.0856-8.7195 6.738-9.25 4.7486-0.94972 30.096-0.66767 31.709 0.35284 0.80203 0.50732 3.502 5.1129 6 10.235l4.54 9.31 11.102 0.28136c8.1001 0.2053 11.384-0.0651 12.148-1 0.57556-0.70475 2.6908-10.731 4.7005-22.281s3.99-22.078 4.4007-23.396c0.61606-1.977 2.6441 1.9146 11.595 22.25 8.11 18.41 11.29 24.65 12.57 24.65 1.2812 0 4.4617-6.2382 12.556-24.628 7.9978-18.17 11.033-24.135 11.574-22.75 0.40348 1.0328 2.3941 11.553 4.4236 23.378s4.138 22.062 4.6854 22.75c1.3382 1.6805 10.203 1.6148 11.614-0.0861 0.83074-1.001-0.95683-11.723-7.1276-42.75-7.3511-36.963-8.4386-41.414-10.118-41.414-1.5086 0-4.3645 5.7026-14.398 28.75-6.8841 15.812-12.806 28.75-13.159 28.75-0.62242 0-2.652-4.4745-18.371-40.5-5.8342-13.372-7.82-17-9.304-17-1.6834 0-2.7063 4.123-9.4968 38.277-4.1856 21.052-7.8503 38.517-8.1437 38.81-0.29341 0.2934-1.9446-2.5312-3.6694-6.2769-32.074-69.656-32.639-70.814-34.631-71.102-2.1811-0.31494-1.4432-1.7954-26.7 53.57-6.0914 13.353-11.564 24.124-12.161 23.936-1.44-0.45-31.566-36.92-31.574-38.22-0.003-0.56 7.644-8.65 16.994-17.99 9.35-9.3379 17-17.497 17-18.132 0-1.69-2.47-2.37-8.63-2.37h-5.4649l-15.592 16c-8.574 8.8-15.978 16-16.451 16-0.474 0-0.862-6.93-0.862-15.39 0-17.07 0.189-16.61-6.882-16.61-2.045 0-4.258 0.54-4.918 1.2-1.762 1.762-1.72 80.88 0.0438 82.644 0.75275 0.75275 3.2203 1.1278 6.25 0.95l5.006-0.29 0.5-17.2zm72.526-17.378c1.0782-3.3972 9.5739-22.351 10.408-23.22 0.59013-0.615 8.2959 15.102 11.792 24.051 0.37365 0.9565-2.2528 1.25-11.186 1.25-11.371 0-11.657-0.0541-11.014-2.081zm157.89 34.474c1.41-0.54 1.58-5.17 1.58-41.89 0-36.725-0.17475-41.353-1.5818-41.893-2.4475-0.9392-7.3418-0.71823-9.484 0.42819-1.8632 0.99715-1.9343 2.5148-1.9343 41.3 0 29.984 0.3064 40.571 1.2 41.465 1.2624 1.2624 7.5266 1.6259 10.218 0.59301zm37.38-0.59c0.88736-0.88736 1.2-10.267 1.2-36v-34.8h7.9182c4.355 0 8.63-0.27314 9.5-0.60699 2.2542-0.86503 2.2542-10.921 0-11.786-2.5738-0.98766-46.785-0.66079-48.395 0.3578-0.88407 0.55905-1.4727 2.4603-1.4659 4.7347 0.0211 7.0801 0.33555 7.3005 10.412 7.3005h9.0314v35.417c0 27.398 0.28302 35.531 1.25 35.921 2.4594 0.99241 9.3722 0.64008 10.55-0.53772zm90.632-1.3448c9.2-3.3 15.57-12.16 15.57-21.65 0-7.5165-4.4794-15.708-10.845-19.831l-2.3448-1.5189 2.5948-4.88c1.94-3.66 2.59-6.35 2.59-10.76 0-10.539-4.4636-17.352-13.611-20.775-5.6158-2.1012-21.485-3.7389-25.782-2.6607l-2.61 0.66v41.398c0 32.149 0.27927 41.524 1.25 41.965 0.6875 0.31217 7.325 0.39981 14.75 0.19474 9.5928-0.26493 14.928-0.88442 18.432-2.1404zm-20.68-10.02c-0.41-0.43-0.75-6.15-0.75-12.72v-11.946l6.75 0.39473c9.3646 0.54764 14.337 3.1365 16.162 8.4146 1.2826 3.7097 1.2368 4.4422-0.5 8-1.2145 2.488-3.2141 4.5534-5.4823 5.6629-3.9222 1.9186-14.988 3.4179-16.18 2.192zm-0.0723-36.094c-0.38-0.38-0.68-5.84-0.68-12.14v-11.457l5.5649 0.46149c7.8989 0.65504 10.864 3.7199 10.864 11.231 0 6.5644-2.7117 10.183-8.3385 11.128-1.9745 0.33144-4.2976 0.79328-5.1624 1.0263-0.86479 0.23302-1.8773 0.11873-2.25-0.25399zm55.741 48.049c1.35-0.53 1.58-2.99 1.58-17.09 0-12.733 0.28401-16.383 1.25-16.067 0.6875 0.22526 6.4417 7.8003 12.787 16.833l11.537 16.424 10.463 0.29158c5.7546 0.16037 11.406 0.0568 12.558-0.23014 1.4934-0.3719 3.3133-3.2184 6.3378-9.9127l4.2429-9.391 5.1622-0.62019c6.7282-0.80834 22.13-0.71114 26.946 0.17005 3.6212 0.66256 3.9622 1.0799 7.9195 9.6924 2.2745 4.95 4.6216 9.3306 5.2159 9.7347 0.59427 0.40408 3.4571 0.74158 6.3619 0.75 3.7918 0.011 5.4444-0.40945 5.8593-1.4907 0.6121-1.5951-35.732-81.95-38.2-84.458-1.2651-1.2857-1.6043-1.2857-2.7815 0-0.73742 0.80536-9.3872 19.127-19.222 40.714-9.8346 21.588-18.119 39.234-18.409 39.215-1.2254-0.0809-21.074-29.081-20.519-29.98 0.335-0.54204 1.19-0.98552 1.9-0.98552 0.71002 0 3.0977-1.3088 5.3059-2.9084 13.618-9.8645 11.937-33.567-2.9208-41.187-6.75-3.47-30.91-5.42-33.61-2.72-1.7728 1.7728-1.7243 82.422 0.05 83.138 1.8087 0.72984 8.3181 0.76524 10.168 0.0553zm67.57-33.15c-0.0134-1.3837 10.499-25.203 11.134-25.227 0.34477-0.0129 1.6453 2.339 2.8901 5.2265s3.7582 8.7375 5.5852 13l3.3219 7.75h-11.462c-6.3041 0-11.465-0.3375-11.469-0.75zm-65.99-25.11v-13.14h4.9798c10.274 0 16.256 4.5996 16.429 12.634 0.16736 7.7602-5.0386 12.16-15.513 13.11l-5.8964 0.53467v-13.139zm132.89 57.495c0.8137-0.98044 1.0601-12.77 0.87245-41.75l-0.26-40.39-2.2119-0.97071c-2.0656-0.9065-1.2682-1.9317 12.055-15.5 7.847-7.9911 15.128-16.329 16.18-18.529 2.7743-5.8005 2.6703-19.316-0.19712-25.622-2.8705-6.3135-8.6921-12.503-14.764-15.696-4.3942-2.3111-6.253-2.6634-14.063-2.6651-10.094-0.002-14.274 1.5748-21.515 8.1164-10.489 9.4758-13.164 29.462-4.7776 35.685 2.1966 1.63 4.9185 2.1296 14.435 2.6495 11.027 0.60248 12.548 1.0553 12.493 3.7209-0.008 0.40596-1.726 1.2181-3.817 1.8048-4.6566 1.3065-5.1484 3.1598-2.3645 8.9106 1.8438 3.8087 1.975 4.969 1.0433 9.2265-0.58614 2.6785-1.9502 6.0893-3.0311 7.5795-1.88 2.59-1.97 4.53-1.97 43.08 0 22.206 0.3 40.674 0.66667 41.04 1.248 1.248 10.062 0.69857 11.222-0.6996zm-461.53-85.51c1.0221-0.40195 2.3721-1.687 3-2.8556 0.6279-1.1687 11.931-13.296 25.117-26.949 52.34-54.19 148.97-153.9 167-172.32 10.5-10.72 38.2-39.3 61.56-63.49 47.38-49.09 130.53-135.01 152.91-158.01 8.0285-8.25 22.917-23.55 33.086-34s31.501-32.5 47.406-49c15.904-16.5 32.548-33.557 36.986-37.905 7.686-7.5294 8.069-8.1148 8.069-12.331 0-8.3811-0.0994-8.392-43.864-4.772-16.575 1.371-41.386 3.3864-55.136 4.4786-13.75 1.0923-30.4 2.4319-37 2.977-15.732 1.2993-73.346 5.9358-143 11.508-30.8 2.4639-58.475 4.7285-61.5 5.0325-3.025 0.30393-16.75 1.4329-30.5 2.5089s-33.325 2.635-43.5 3.4645c-10.175 0.82952-41.225 3.3072-69 5.5059-57.78 4.574-63.721 5.2367-76.343 8.5163-42.093 10.937-79.431 43.995-97.792 86.582-4.932 11.42-9.269 26.78-10.863 38.46-1.7147 12.56-0.81 50.31 1.4493 60.46 6.7097 30.15 20.303 54.79 42.512 77.07 20.786 20.85 39.661 31.96 66.032 38.87l10.5 2.7494 0.12587 105.35 0.12586 105.35 2.2349 1.8097c2.2695 1.8378 6.997 2.2655 10.372 0.93835zm-4.61-114.88-0.25-105.68l-3-0.7558c-1.65-0.41568-6.7194-1.6501-11.265-2.7432-10.85-2.6-24.496-8.12-34.88-14.09-60.155-34.62-87.487-109.47-64.855-177.62 14.294-43.043 48.109-77.626 89.292-91.319 4.7866-1.5916 12.109-3.5879 16.271-4.4363 4.1625-0.84843 38.362-4.0298 76-7.0698 37.637-3.04 82.157-6.6462 98.932-8.0138s50.3-4.0795 74.5-6.0264c47.347-3.8092 103.46-8.348 142-11.485 13.2-1.0746 43.8-3.5412 68-5.4815s51.425-4.1304 60.5-4.867c9.075-0.73659 16.876-1.1356 17.335-0.88658 0.45912 0.24897-4.0484 5.465-10.017 11.591-5.95 6.12-23.87 24.63-39.79 41.13-15.93 16.5-36.61 37.88-45.97 47.5-25.775 26.529-47.333 48.76-64.986 67.015-8.768 9.0668-22.724 23.46-31.013 31.985-8.2892 8.525-35.073 36.2-59.52 61.5s-52.817 54.55-63.044 65-32.716 33.625-49.975 51.5-37.5 38.8-44.98 46.5c-7.4799 7.7-27.743 28.625-45.028 46.5-17.286 17.875-41.004 42.269-52.708 54.208l-21.28 21.708-0.25456-105.67zm426.42 52.1c2.5816-2.3363 2.3642-7.5125-0.42126-10.03-1.2375-1.1185-23.482-12.892-49.432-26.163s-50.475-25.86-54.5-27.974c-4.025-2.1145-15.081-7.7924-24.568-12.617-9.4875-4.8251-17.25-9.0892-17.25-9.4757 0-0.38651 14.621-32.851 32.49-72.143 17.87-39.292 32.495-72.678 32.5-74.191 0.0129-3.5701-3.2257-6.75-6.8746-6.75-3.0479 0-3.5966 0.54855-114.55 114.5-20.35 20.9-45.452 46.587-55.783 57.082-17.2 17.46-18.79 19.37-18.79 22.59 0 2.1235 0.71777 4.1627 1.8146 5.1554 1.3364 1.2094 14.051 3.4875 48.25 8.6446 25.539 3.8513 74.785 11.291 109.44 16.534 34.65 5.2422 72.225 10.886 83.5 12.542 11.275 1.6558 20.95 3.186 21.5 3.4003 2.886 1.1247 10.987 0.41668 12.671-1.1074zm-85.17-18.43c-35.475-5.4097-70.8-10.779-78.5-11.932-33.828-5.0646-93.389-14.095-97.5-14.782-2.475-0.41384-4.5-1.2823-4.5-1.93 0-0.64767 8.325-9.6473 18.5-19.999s26.832-27.362 37.015-37.799c33.293-34.125 96.256-98.761 105.9-108.72 5.1904-5.3568 9.6024-9.5743 9.8045-9.3722 0.2021 0.20211-3.2186 8.185-7.6017 17.74-33.066 72.083-55.05 121.52-54.629 122.84 0.27423 0.86404 4.6634 3.6809 9.7536 6.2596 9.3567 4.7402 44.118 22.557 86.255 44.209 25.656 13.183 43.786 22.653 44.417 23.198 0.97021 0.83987-7.618-0.37128-68.917-9.7189z"/>
 </g>
</svg>
