<?xml version="1.0" encoding="UTF-8" standalone="no"?>
<!-- Created with Inkscape (http://www.inkscape.org/) -->

<svg
   xmlns:dc="http://purl.org/dc/elements/1.1/"
   xmlns:cc="http://creativecommons.org/ns#"
   xmlns:rdf="http://www.w3.org/1999/02/22-rdf-syntax-ns#"
   xmlns:svg="http://www.w3.org/2000/svg"
   xmlns="http://www.w3.org/2000/svg"
   xmlns:sodipodi="http://sodipodi.sourceforge.net/DTD/sodipodi-0.dtd"
   xmlns:inkscape="http://www.inkscape.org/namespaces/inkscape"
   id="svg3971"
   version="1.1"
   inkscape:version="0.91 r13725"
   width="773"
   height="773"
   viewBox="0 0 773 773"
   sodipodi:docname="kamitbrains.svg">
  <metadata
     id="metadata3977">
    <rdf:RDF>
      <cc:Work
         rdf:about="">
        <dc:format>image/svg+xml</dc:format>
        <dc:type
           rdf:resource="http://purl.org/dc/dcmitype/StillImage" />
        <dc:title></dc:title>
      </cc:Work>
    </rdf:RDF>
  </metadata>
  <defs
     id="defs3975" />
  <sodipodi:namedview
     pagecolor="#ffffff"
     bordercolor="#666666"
     borderopacity="1"
     objecttolerance="10"
     gridtolerance="10"
     guidetolerance="10"
     inkscape:pageopacity="0"
     inkscape:pageshadow="2"
     inkscape:window-width="1280"
     inkscape:window-height="746"
     id="namedview3973"
     showgrid="false"
     inkscape:zoom="1"
     inkscape:cx="407.82611"
     inkscape:cy="566.57457"
     inkscape:window-x="0"
     inkscape:window-y="0"
     inkscape:window-maximized="1"
     inkscape:current-layer="svg3971" />
  <g
     style="fill:#000000;fill-opacity:0;stroke:#000000;stroke-width:3.5;stroke-linejoin:round;stroke-miterlimit:4;stroke-dasharray:none;stroke-opacity:1"
     transform="translate(1.75,-1.75)"
     id="g6572">
    <path
       style="fill:#000000;fill-opacity:0;stroke:#000000;stroke-width:3.5;stroke-linejoin:round;stroke-miterlimit:4;stroke-dasharray:none;stroke-opacity:1"
       d="M 0,386.5 0,0 386.5,0 773,0 773,386.5 773,773 386.5,773 0,773 0,386.5 Z m 734.52941,359.72444 c 8.14653,-4.18812 12.48658,-11.31506 12.44863,-20.44232 -0.049,-11.78934 -6.35407,-18.4611 -23.51377,-24.88137 -10.68501,-3.99778 -15.39925,-10.81509 -12.43215,-17.97829 3.08164,-7.43973 13.94247,-11.01672 21.59552,-7.11242 2.20339,1.12408 4.5858,2.74222 5.29426,3.59586 0.96519,1.16298 1.76317,1.29783 3.18311,0.5379 2.81104,-1.50442 2.3198,-3.44803 -1.71129,-6.77079 -11.91297,-9.81968 -31.60498,-4.24333 -35.45078,10.0389 -2.53745,9.42338 3.46352,17.75623 16.74975,23.25844 14.98836,6.2071 19.53808,10.75485 19.53808,19.52965 0,12.82792 -12.76087,20.85315 -24.02061,15.10641 -4.57127,-2.33308 -6.68719,-4.61052 -8.65159,-9.31199 -1.37898,-3.30037 -1.77093,-3.56225 -4.28814,-2.86512 -2.17317,0.60185 -2.70953,1.28501 -2.48794,3.16887 0.63691,5.41481 7.96276,13.25774 14.71751,15.75632 4.36874,1.616 14.38414,0.75808 19.02941,-1.63005 z M 72,730.65891 c 0.477014,-16.06686 0.605686,-16.92655 2.798867,-18.69986 1.264377,-1.02233 2.950197,-1.60884 3.746265,-1.30336 0.796069,0.30548 7.528769,8.13047 14.961555,17.38886 16.972773,21.14154 16.022243,20.21379 19.867023,19.39092 1.71946,-0.36801 3.2933,-0.82104 3.49741,-1.00674 0.20412,-0.1857 -7.10838,-9.31322 -16.25,-20.28338 C 91.479505,715.17519 84,705.37217 84,704.36084 c 0,-1.04195 7.036915,-8.88539 16.23863,-18.0998 L 116.47727,670 l -4.14909,0 c -4.06043,0 -4.48807,0.35415 -20.013038,16.57351 -8.934694,9.33433 -16.726876,16.6506 -17.839546,16.75 C 72.58956,703.492 72.487571,702.74067 72.225821,686.75 L 71.951642,670 68.475821,670 65,670 l 0,38.33333 c 0,21.08334 0.320659,38.654 0.712576,39.04591 0.391917,0.39192 1.854417,0.57942 3.25,0.41667 L 71.5,747.5 72,730.65891 Z m 61.55963,7.64238 c 2.08554,-4.68048 4.41995,-9.13801 5.18756,-9.90562 1.09239,-1.09239 5.36654,-1.39567 19.66925,-1.39567 21.04052,0 19.1653,-0.83902 24.585,11 1.88836,4.125 3.84064,8.0625 4.33841,8.75 1.0256,1.41652 5.26851,1.6927 6.07045,0.39514 0.29058,-0.47017 -2.86764,-8.23267 -7.01828,-17.25 C 182.24139,720.87781 175.67811,706.525 171.80695,698 c -8.02681,-17.67653 -12.62251,-27 -13.30877,-27 -0.93753,0 -15.37107,30.33163 -30.65651,64.42367 -5.03061,11.22007 -5.08068,12.727 -0.39316,11.83092 1.80228,-0.34452 3.16443,-2.34019 6.11112,-8.9533 z m 9.78203,-18.85333 c -0.55592,-1.4487 11.70469,-30.80089 13.74469,-32.9051 0.58721,-0.6057 1.4865,-0.39858 2.44914,0.56406 2.19979,2.19979 14.61586,31.05627 14.02504,32.59593 C 173.1842,720.68355 169.51006,721 158.5,721 c -12.2392,0 -14.6578,-0.24764 -15.15834,-1.55204 z m 67.77371,2.27 c 2.53846,-14.18012 4.88155,-26.04821 5.20688,-26.37354 1.77413,-1.77414 4.30425,2.70146 14.16343,25.05408 5.9681,13.53083 11.13926,24.6015 11.49147,24.6015 0.35221,0 5.52405,-11.06699 11.49297,-24.59331 10.14128,-22.98136 12.70663,-27.35677 14.41699,-24.58936 0.37689,0.60983 2.63323,12.2629 5.01409,25.89572 2.38085,13.63282 4.52863,25.12445 4.77283,25.53695 0.64739,1.09355 5.10403,0.91812 5.81288,-0.22882 0.66905,-1.08255 -13.5656,-75.02727 -14.43992,-75.01101 -0.30084,0.006 -1.27181,1.69309 -2.15771,3.75 C 249.97518,715.03201 243.5509,729 242.40276,729 240.32393,729 239.0492,726.47549 226.8758,698.25 220.64904,683.8125 215.29602,672 214.98022,672 c -0.92412,0 -15.1366,73.93796 -14.43171,75.07849 0.3522,0.56987 1.83537,0.89784 3.29593,0.72882 L 206.5,747.5 211.11537,721.71796 Z M 303.76174,708.75 304.02349,670 l -3.51175,0 -3.51174,0 0,38.33333 c 0,21.08334 0.32066,38.654 0.71258,39.04591 0.39191,0.39192 1.85441,0.57942 3.25,0.41667 L 303.5,747.5 l 0.26174,-38.75 z m 37.00102,3.52835 c 0.24076,-32.27199 0.40825,-35.2978 2,-36.13108 0.95548,-0.5002 5.11224,-0.90238 9.23724,-0.89373 7.3601,0.0154 7.5059,-0.0334 7.81642,-2.61892 L 360.13284,670 337.56642,670 315,670 l 0,2.5 c 0,2.44638 0.16228,2.5 7.56574,2.5 C 335.06012,675 334,671.58177 334,711.86852 c 0,19.13898 0.32066,35.11881 0.71258,35.51072 0.39191,0.39192 1.85441,0.57942 3.25,0.41667 L 340.5,747.5 l 0.26276,-35.22165 z m 89.35487,33.76039 c 8.02275,-2.34996 14.14281,-8.70186 15.36728,-15.94941 1.28574,-7.61022 -3.07074,-16.8838 -9.48491,-20.19042 -6.13751,-3.164 -6.47542,-3.79315 -3.63185,-6.76194 6.82308,-7.12352 7.39815,-19.142 1.24333,-25.98429 -4.37487,-4.86352 -9.35245,-6.52514 -20.86148,-6.96401 l -10.75,-0.40992 0,38.44396 c 0,21.14418 0.3375,38.79713 0.75,39.22879 1.00391,1.05053 22.79905,-0.0746 27.36763,-1.41276 z M 409.75,741.43595 c -0.4125,-0.42311 -0.75,-7.42389 -0.75,-15.5573 l 0,-14.78802 3.25,-0.60856 c 4.34304,-0.81322 15.11317,0.99845 19.61867,3.3001 4.90946,2.50802 7.35853,7.36655 6.82634,13.54232 -0.80808,9.37738 -6.96274,13.79191 -20.17289,14.46935 -4.41216,0.22626 -8.35962,0.0652 -8.77212,-0.35789 z m 0.5,-36.04217 c -0.91589,-0.41065 -1.25,-4.39587 -1.25,-14.90973 0,-13.60614 0.10659,-14.3831 2.05814,-15.0025 3.14086,-0.99687 11.27422,0.43422 14.85955,2.61459 8.20984,4.9927 7.93517,20.24846 -0.45164,25.08571 -3.10033,1.78818 -12.96334,3.22194 -15.21605,2.21193 z m 56.52391,25.41602 c 0.2563,-15.61766 0.40089,-16.7305 2.25,-17.31739 1.08685,-0.34495 2.76359,-0.3482 3.72609,-0.007 0.9625,0.34098 6.73991,7.90881 12.83869,16.81739 l 11.08868,16.19742 4.20115,0.30944 4.20115,0.30945 -5.20667,-7.30945 c -2.86366,-4.02019 -8.10056,-11.2578 -11.63755,-16.08358 -3.537,-4.82578 -6.2006,-9.3743 -5.91912,-10.10781 0.28147,-0.73352 1.78795,-1.59007 3.34772,-1.90344 5.02902,-1.01037 9.71123,-4.97051 12.58595,-10.64496 4.36415,-8.61449 3.32038,-17.21878 -2.92774,-24.13471 C 490.55449,671.6576 484.69758,670 470.8185,670 L 460,670 l 0,38.33333 c 0,21.08334 0.32066,38.654 0.71258,39.04591 0.39191,0.39192 1.85441,0.57942 3.25,0.41667 L 466.5,747.5 466.77391,730.8098 Z M 467.75,707.4371 C 467.3375,707.01336 467,699.77524 467,691.35239 l 0,-15.31429 2.42574,-0.60882 c 3.97514,-0.9977 15.50774,1.26918 19.19436,3.77289 6.38954,4.33936 8.23729,15.48731 3.59861,21.71125 -3.33481,4.47447 -7.84574,6.39661 -16.10807,6.86378 -4.18585,0.23668 -7.94814,0.0836 -8.36064,-0.3401 z m 49.86457,39.79759 c 0.61301,-0.40408 2.77625,-4.55969 4.80721,-9.23469 2.03095,-4.675 4.4279,-9.0625 5.32656,-9.75 1.16514,-0.89137 6.71163,-1.25 19.33201,-1.25 20.56619,0 20.03246,-0.21891 24.38104,10 3.87702,9.11078 5.23297,11 7.895,11 4.5898,0 6.2188,4.41244 -17.07485,-46.25 -8.02893,-17.4625 -14.86434,-31.7458 -15.1898,-31.74066 -0.32546,0.005 -3.50067,6.41763 -7.05603,14.25 -3.55536,7.83236 -11.48476,25.13626 -17.62089,38.4531 -6.13614,13.31684 -10.91471,24.45434 -10.61905,24.75 0.77791,0.7779 4.51506,0.63163 5.8188,-0.22775 z M 532,719.02961 c 0,-2.16432 12.3485,-30.77811 13.99164,-32.42125 0.69686,-0.69686 1.47087,-0.55845 2.42964,0.4345 2.19757,2.2759 14.82671,31.74686 14.10491,32.91477 C 562.12576,720.60554 556.22785,721 546.94098,721 532.74152,721 532,720.90221 532,719.02961 Z M 600.76174,708.75 601.02349,670 l -3.51175,0 -3.51174,0 0,38.33333 c 0,21.08334 0.32066,38.654 0.71258,39.04591 0.39191,0.39192 1.85441,0.57942 3.25,0.41667 L 600.5,747.5 600.76174,708.75 Z M 625,717.92962 c 0.43767,-25.73789 0.69681,-29.44136 2.07868,-29.70691 0.9807,-0.18846 12.12925,10.79147 29.43212,28.98696 15.31938,16.10968 28.22147,29.44033 28.67131,29.62366 0.44984,0.18334 0.81789,-17.02916 0.81789,-38.25 L 686,670 l -3.5,0 -3.5,0 0,29 c 0,27.35297 -0.10313,29 -1.81584,29 -1.07507,0 -13.20121,-11.89901 -29.72437,-29.1676 -25.40308,-26.54913 -27.96921,-28.95056 -28.58448,-26.75 -0.88876,3.17875 -1.07624,74.38333 -0.19816,75.26142 0.37244,0.37243 1.83494,0.52239 3.25,0.33325 L 624.5,747.33316 625,717.92962 Z M 141,659.9627 c 0,-1.07289 9.48042,-11.05801 58,-61.08764 C 303.76812,490.84629 336.98085,456.56389 382.9506,409 c 15.68121,-16.225 36.86091,-38.05 47.06599,-48.5 10.20509,-10.45 38.1082,-39.25 62.0069,-64 23.89871,-24.75 51.35842,-53.1 61.02159,-63 19.16267,-19.63234 63.91014,-65.83946 95.87267,-99 11.13272,-11.55 21.10552,-21.40627 22.16178,-21.90281 1.40229,-0.65922 1.92047,-1.93573 1.92047,-4.73095 0,-3.1387 -0.40522,-3.92816 -2.25,-4.3835 -1.2375,-0.30545 -13.6125,0.36098 -27.5,1.48095 -13.8875,1.11997 -36.6125,2.94141 -50.5,4.04765 -13.8875,1.10624 -38.975,3.13004 -55.75,4.49734 -16.775,1.3673 -41.75,3.39384 -55.5,4.50342 -13.75,1.10959 -33.1,2.67604 -43,3.481 -63.03867,5.12562 -92.37429,7.49161 -210.5,16.9773 -101.76379,8.1718 -107.05907,8.85156 -125.06139,16.05416 C 83.414551,162.336 68.563325,172.53473 52.367739,189.25293 31.786578,210.49823 19.443812,233.55426 12.824185,263.1195 10.752355,272.37291 10.5,276.05158 10.5,297 c 0,19.14039 0.34336,25.07688 1.850843,32 6.660556,30.58862 18.880459,53.84545 39.59913,75.36478 22.539056,23.41006 42.412784,34.60108 75.800027,42.68347 l 4.25,1.02884 0,105.79479 c 0,58.18713 0.3,106.09479 0.66667,106.46145 C 133.74941,661.41608 141,661.0936 141,659.9627 Z m -6.65281,-1.01551 c -0.80764,-0.80764 -0.96614,-29.98489 -0.58021,-106.806 l 0.53099,-105.69481 -12.39899,-3.09708 C 66.24339,429.44739 25.586166,385.20339 13.838203,325.7554 10.973582,311.25962 10.710465,284.37888 13.297345,270.5 24.84014,208.57171 68.544172,161.85076 126.5,149.4829 c 5.72205,-1.22109 62.31215,-6.13999 166.5,-14.47242 19.40599,-1.552 236.24063,-19.05873 310,-25.0287 34.375,-2.78225 63.62115,-4.92885 64.99145,-4.77021 5.69287,0.65905 3.59015,3.44545 -24.21046,32.08226 C 628.72059,152.80723 594.84025,187.775 568.49135,215 522.5164,262.5036 511.2421,274.13174 473.48421,312.98884 455.05196,331.9577 416.71509,371.53926 364.02684,426 c -18.35743,18.975 -47.35293,48.9 -64.43442,66.5 -17.0815,17.6 -44.11518,45.49981 -60.07485,61.99958 -15.95966,16.49976 -36.46259,37.64976 -45.56207,47 -9.09947,9.35023 -25.52447,26.22542 -36.5,37.50042 -10.97552,11.275 -20.41487,20.62563 -20.97631,20.77919 -0.56145,0.15355 -1.52085,-0.22085 -2.132,-0.832 z m 491.38414,-26.81194 c 3.55214,-5.97876 3.6881,-16.24205 0.3168,-23.91468 C 621.77806,598.50244 610.61853,591 600.43333,591 c -9.58944,0 -20.84355,7.39053 -25.06774,16.4619 -2.56853,5.51587 -3.25353,16.01045 -1.2851,19.6885 1.80663,3.37572 7.06395,4.8496 17.2985,4.8496 9.31717,0 9.47778,0.0411 12.03212,3.07673 1.42389,1.69219 2.58889,3.62719 2.58889,4.3 0,1.85783 -2.15692,3.62145 -4.45,3.63858 -4.17529,0.0312 -5.03324,1.44656 -3.20818,5.2926 0.912,1.92189 1.65818,5.219 1.65818,7.32691 l 0,3.83256 11.56906,-11.48369 c 6.36298,-6.31603 12.736,-13.44783 14.16227,-15.84844 z m -66.31312,-32.74224 c 1.88433,-0.72308 2.10068,-4.73265 0.33179,-6.14899 -0.6875,-0.55048 -27.8,-14.62915 -60.25,-31.28595 -80.35568,-41.24709 -84.87957,-43.62602 -85.8353,-45.13726 -0.54687,-0.86472 10.38552,-26.027 31.65984,-72.8691 17.87233,-39.35155 32.58903,-72.20155 32.70378,-73 0.52479,-3.65145 -0.0979,-4.95171 -2.37149,-4.95171 -2.53219,0 -10.03844,7.43108 -78.28401,77.5 -20.35613,20.9 -52.73003,54.12662 -71.94199,73.83693 -19.21195,19.71031 -35.34563,36.71694 -35.85261,37.79251 -0.64685,1.3723 -0.49772,2.37584 0.5,3.36464 0.96577,0.95712 42.95689,7.66256 130.92178,20.90649 71.225,10.72359 130.625,19.6841 132,19.91225 4.2214,0.70044 4.78356,0.70746 6.41821,0.0802 z M 456,583.00228 c -53.625,-8.16082 -111.675,-16.9347 -129,-19.49752 -31.39237,-4.64374 -36,-5.59461 -36,-7.42925 0,-0.53205 10.9125,-12.13552 24.25,-25.78547 C 348.71874,496.03723 407.69697,435.55156 443.51175,398.75 459.97077,381.8375 474.01386,368 474.71862,368 c 0.70476,0 1.28138,0.78056 1.28138,1.73457 0,0.95401 -14.85,34.40726 -33,74.34055 -18.15,39.93329 -33,72.85998 -33,73.17041 0,0.95691 7.24873,4.85304 43,23.11209 87.43551,44.65546 105.5,54.18296 105.5,55.64238 0,0.88798 -1.02003,1.56939 -2.5,1.67007 -1.375,0.0935 -46.375,-6.50696 -100,-14.66779 z"
       id="path6574"
       inkscape:connector-curvature="0" />
    <path
       style="fill:#000000;fill-opacity:0;stroke:#000000;stroke-width:3.5;stroke-linejoin:round;stroke-miterlimit:4;stroke-dasharray:none;stroke-opacity:1"
       d="M 0,386.5 0,0 386.5,0 773,0 773,386.5 773,773 386.5,773 0,773 0,386.5 Z m 733.91784,360.89024 c 7.33005,-3.06191 12.73002,-10.60825 13.7452,-19.20863 1.41768,-12.01026 -4.85919,-20.09515 -20.66304,-26.61495 -11.7687,-4.85512 -16,-8.64525 -16,-14.3318 0,-11.22218 16.58938,-16.64548 25.04672,-8.18814 1.51349,1.51349 2.83472,1.94887 4.58276,1.51014 3.53072,-0.88615 4.00562,-3.24923 1.24703,-6.20506 -4.04413,-4.33329 -9.65965,-6.60214 -16.33169,-6.59852 C 712.08863,667.76057 703,675.72825 703,687.51754 c 0,9.04453 3.98584,13.1736 20.18501,20.91038 12.92571,6.17337 15.78843,8.93219 16.51269,15.91342 0.55235,5.32421 -2.86774,12.25869 -7.59558,15.40059 -4.04299,2.68677 -11.67642,3.04669 -16.10009,0.75912 -3.28718,-1.69987 -7.62012,-7.01148 -8.15834,-10.00105 -0.25225,-1.40114 -1.28141,-2.09015 -3.43705,-2.30107 -4.70573,-0.46042 -5.65882,1.52022 -3.2865,6.8298 5.72149,12.80549 19.39629,17.95955 32.7977,12.36151 z M 72.754312,731 c 0.237241,-15.39239 0.395715,-16.61747 2.360784,-18.25 1.15856,-0.9625 2.468594,-1.75 2.911187,-1.75 0.442594,0 6.899031,7.56332 14.347638,16.80738 7.448608,9.24407 14.413959,17.59567 15.478569,18.55912 1.40879,1.27494 3.24107,1.6676 6.73178,1.44262 L 119.3804,747.5 102.1902,726.83529 C 92.73559,715.46969 85,705.33821 85,704.32088 c 0,-1.05836 6.845134,-8.66916 16,-17.78969 8.8,-8.76699 16,-16.29801 16,-16.73559 0,-0.43758 -1.9125,-0.80864 -4.25,-0.82458 -4.1985,-0.0286 -4.44992,0.17735 -20.75,17.00018 -9.075,9.36604 -17.051619,17.02908 -17.725821,17.02898 -0.908051,-1.3e-4 -1.296897,-4.34229 -1.5,-16.75018 L 72.5,669.5 68.75,669.18963 65,668.87927 65,708.5 65,748.12073 68.75,747.81037 72.5,747.5 72.754312,731 Z m 61.147218,8.35912 c 5.58303,-12.37611 3.4912,-11.44436 24.9888,-11.13067 L 177.5,728.5 l 4.72269,9.75 4.7227,9.75 4.0273,0 c 2.21502,0 4.00147,-0.3375 3.96988,-0.75 -0.14875,-1.94258 -35.56992,-77.62943 -36.46989,-77.92772 -0.56503,-0.18727 -1.53453,0.9011 -2.15445,2.41861 -0.61992,1.51751 -8.78728,19.31992 -18.1497,39.56092 l -17.02258,36.80181 4.54156,-0.30181 4.54156,-0.30181 3.67246,-8.14088 z m 10.76514,-19.02579 C 144.3,719.96667 144,719.0609 144,718.32051 144,716.22265 157.10413,687 158.04486,687 c 0.46041,0 1.19712,0.5625 1.63715,1.25 1.62657,2.5414 13.31799,29.16806 13.31799,30.33111 0,0.6627 -0.7118,1.47806 -1.58179,1.8119 -2.15422,0.82665 -25.91823,0.77364 -26.75154,-0.0597 z M 207.47788,745.75 c 0.2838,-1.2375 2.33998,-12.6 4.56929,-25.25 3.93604,-22.33458 4.97117,-25.96529 6.82825,-23.95 0.48148,0.5225 5.75154,12.0875 11.71125,25.7 5.9597,13.6125 11.1064,24.75 11.43712,24.75 0.33071,0 5.46568,-11.1375 11.41104,-24.75 5.94537,-13.6125 11.20472,-25.1775 11.68746,-25.7 1.8887,-2.04426 2.98126,1.76818 6.87399,23.9865 2.21281,12.62992 4.25247,23.976 4.53256,25.2135 0.42354,1.87126 1.17938,2.25 4.49021,2.25 2.18952,0 3.98095,-0.23164 3.98095,-0.51476 0,-1.61081 -15.10787,-76.92644 -15.51207,-77.33064 -0.71825,-0.71825 -0.18039,-1.86176 -13.56771,28.8454 -8.27059,18.97063 -12.92188,28.5 -13.91089,28.5 -0.98838,0 -5.6543,-9.54122 -13.93729,-28.5 C 214.55491,668.06085 215.21003,669.45663 214.52643,670.14024 214.11134,670.55532 199,745.71262 199,747.36198 c 0,0.35091 1.79143,0.63802 3.98095,0.63802 3.30884,0 4.06806,-0.37987 4.49693,-2.25 z m 97.30073,-35.25 c 0.15324,-20.35 0.0322,-38.0125 -0.26905,-39.25 -0.43753,-1.79753 -1.24768,-2.25 -4.02861,-2.25 L 297,669 l 0,39.56037 0,39.56036 3.75,-0.31036 3.75,-0.31037 0.27861,-37 z M 341,713.69113 c 0,-25.89356 0.3066,-34.71674 1.25,-35.97176 0.96,-1.27709 3.222,-1.72743 9.75,-1.94113 l 8.5,-0.27824 0,-3 0,-3 -23,0 -23,0 -0.3105,3.21167 -0.3105,3.21168 9.3105,0.28832 9.3105,0.28833 0.25202,34.5 c 0.13862,18.975 0.46199,35.0625 0.71862,35.75 0.25662,0.6875 2.05571,1.25 3.99798,1.25 L 341,748 341,713.69113 Z M 434.44892,745 c 7.28369,-3.67943 10.82533,-8.64338 11.35091,-15.90938 0.23387,-3.23327 -0.11283,-7.509 -0.77045,-9.50161 -1.37754,-4.17398 -6.09265,-9.32306 -10.80918,-11.80403 l -3.26039,-1.71502 3.39159,-4.44323 c 8.54551,-11.19523 4.08288,-26.30184 -9.076,-30.72346 C 423.19893,670.20553 417,669.60436 411.5,669.56733 l -10,-0.0673 -0.26227,37.99684 c -0.14424,20.89827 -0.0293,38.60387 0.25537,39.34578 0.40877,1.06522 3.40841,1.27621 14.26227,1.00315 12.28132,-0.30896 14.27151,-0.61193 18.69355,-2.84577 z m -24.79777,-5.46669 C 409.29302,738.60002 409,732.30333 409,725.54066 c 0,-14.97934 0.0689,-15.07646 10.10224,-14.23531 12.68276,1.06328 18.90168,5.95076 18.89402,14.84894 -0.008,9.5545 -5.76941,13.97248 -19.09511,14.64313 -7.41262,0.37307 -8.68867,0.19868 -9.25,-1.26411 z m -0.0442,-36.1151 C 408.44291,700.38466 408.93878,678.46122 410.2,677.2 c 1.51319,-1.51319 8.22544,-1.45722 12.76537,0.10644 2.00368,0.69012 4.46598,2.66986 5.83761,4.69356 3.25179,4.79771 2.84004,14.62218 -0.77406,18.46921 -4.04329,4.30389 -17.09996,6.39401 -18.42193,2.949 z M 467,732.69113 c 0,-16.20597 0.75226,-19.27065 4.55064,-18.53915 1.1359,0.21875 6.65877,7.09549 13.53964,16.85874 l 11.62119,16.48928 4.64427,0.30479 c 2.55434,0.16764 4.64426,0.0626 4.64426,-0.23337 0,-0.29598 -5.2547,-7.8059 -11.6771,-16.6887 -10.9576,-15.15541 -11.56199,-16.23472 -9.80887,-17.51664 1.02753,-0.75134 2.3897,-1.36608 3.02706,-1.36608 2.84331,0 9.73429,-6.36775 11.70818,-10.81917 5.29067,-11.93131 0.60033,-24.91676 -10.76292,-29.79764 -5.42177,-2.32883 -27.29569,-3.29341 -28.58337,-1.26045 -0.97095,1.53292 -1.2253,72.07262 -0.27269,75.62726 0.47465,1.77118 1.32299,2.25 3.98634,2.25 l 3.38337,0 0,-15.30887 z m 1.65198,-26.18201 C 467.28893,705.14608 467,702.62934 467,692.1197 c 0,-16.2234 0.26016,-16.66476 9.32421,-15.81835 11.67055,1.08982 16.81413,5.35239 17.45147,14.46235 0.69937,9.99648 -4.87363,15.36312 -17.3737,16.73039 -4.9532,0.54178 -6.40816,0.35687 -7.75,-0.98497 z m 54.61467,31.46908 4.61326,-10.02181 19.27264,0.27181 19.27264,0.2718 1.29124,2.5 c 0.71018,1.375 2.76389,5.65 4.5638,9.5 3.25192,6.95581 3.29989,7.00197 7.60037,7.31259 2.44158,0.17635 4.17342,-0.10093 3.9736,-0.63621 -3.28027,-8.78694 -36.46075,-78.96983 -37.05416,-78.37642 C 545.71785,669.88215 511,745.73445 511,747.01665 511,747.55749 512.72201,748 514.8267,748 l 3.82669,0 4.61326,-10.0218 z m 9.93252,-18.23822 c -0.76076,-0.91665 0.79747,-5.46673 5.718,-16.69682 3.72005,-8.49023 7.26278,-15.60314 7.87274,-15.80646 1.25468,-0.41823 3.70105,4.26997 10.73772,20.57767 4.07671,9.4479 4.64209,11.4662 3.42723,12.23469 -2.31655,1.4654 -26.50657,1.19603 -27.75569,-0.30908 z M 601,708.43963 l 0,-39.56036 -3.75,0.31036 -3.75,0.31037 -0.26227,37.99684 c -0.14424,20.89827 -0.0459,38.56077 0.21862,39.25 0.26448,0.68924 2.07,1.25316 4.01227,1.25316 L 601,748 601,708.43963 Z M 626,718.5 c 0,-24.02036 0.24942,-29.5 1.34277,-29.5 0.73853,0 13.87058,13.1625 29.18233,29.25 15.31176,16.0875 28.43777,29.39651 29.16891,29.57557 1.0921,0.26747 1.28264,-6.69265 1.06767,-39 L 686.5,669.5 l -3.73457,-0.30945 -3.73456,-0.30944 -0.26544,28.79612 c -0.23096,25.05618 -0.46641,28.83478 -1.81289,29.09377 -0.93882,0.18057 -12.52719,-11.22032 -29.46335,-28.98668 C 632.13545,681.67794 619.21931,668.35 618.78665,668.16667 618.35399,667.98333 618,685.87083 618,707.91667 L 618,748 l 4,0 4,0 0,-29.5 z M 142.21806,659.57841 C 142.92313,658.24654 162.175,637.8908 185,614.34345 207.825,590.7961 240.21959,557.34831 256.98797,540.01504 273.75636,522.68177 295.82694,499.95 306.0337,489.5 c 10.20677,-10.45 38.32824,-39.475 62.49216,-64.5 24.16392,-25.025 52.50295,-54.275 62.97561,-65 10.47267,-10.725 39.27151,-40.425 63.99742,-66 39.39425,-40.74704 59.66249,-61.66817 125.45861,-129.5 20.68839,-21.32847 49.68031,-50.76001 51.55897,-52.34076 1.05398,-0.88685 1.4902,-2.57961 1.28848,-5 L 673.5,103.5 l -6.92847,-0.29976 c -6.08157,-0.26312 -18.40848,0.59225 -69.07153,4.79286 -17.90601,1.48463 -43.46434,3.5523 -99,8.00909 -27.5,2.2069 -66.425,5.35217 -86.5,6.98949 -20.075,1.63731 -53.375,4.33101 -74,5.98599 -20.625,1.65499 -57.075,4.59134 -81,6.52522 -55.25968,4.46671 -89.86787,7.22685 -107,8.53368 -42.31241,3.22757 -70.117336,15.85993 -98.173498,44.60226 C 35.335308,205.53335 25.297437,221.73686 17.570198,243.93664 10.879327,263.15902 9.6005288,271.649 9.5775623,297 9.5555195,321.33144 10.684959,329.53536 16.538829,347.56465 32.6522,397.1921 76.747656,437.53212 125.25,447.01732 c 3.1625,0.61846 5.81484,1.65507 5.8941,2.30358 0.0793,0.6485 0.0241,48.09151 -0.12261,105.42891 -0.20984,82.02714 -0.001,104.5696 0.97835,105.75 0.71181,0.85768 2.89207,1.50019 5.09067,1.50019 3.0492,0 4.1111,-0.5015 5.12755,-2.42159 z m -7.72368,-1.58751 c -0.38066,-0.61591 -0.59615,-48.22833 -0.47888,-105.80537 0.11728,-57.57704 0.16176,-105.18948 0.0989,-105.80542 -0.0629,-0.61595 -2.92686,-1.64936 -6.36436,-2.29648 C 102.3811,439.30788 76.002501,425.0251 56.5,405.50507 35.368848,384.35493 21.491282,358.44274 14.779238,327.60406 12.91381,319.03329 12.580088,314.38912 12.580088,297 c 0,-17.36711 0.334856,-22.03812 2.19112,-30.56465 11.823455,-54.30967 47.393612,-95.54132 96.568662,-111.93894 14.22056,-4.74191 23.65119,-6.1694 59.66013,-9.03063 36.30505,-2.88476 276.61802,-22.23446 322,-25.92704 56.92501,-4.6318 106.40395,-8.60745 137.5,-11.04816 17.05,-1.33825 32.63496,-2.66801 34.63324,-2.95503 2.49382,-0.35819 4.01593,-0.0607 4.85352,0.94849 C 671.2362,107.98953 662.38987,117.3126 549.4659,233.5 532.36024,251.1 475.88429,309.375 423.96379,363 323.06951,467.20652 227.97417,565.34716 172.04231,622.98891 c -18.95174,19.5311 -34.99728,35.64851 -35.65677,35.81646 -0.65949,0.16795 -1.51051,-0.19856 -1.89116,-0.81447 z m 479.24226,-11.29773 c 14.79052,-15.04443 15.81827,-17.04035 15.03227,-29.19317 -0.52765,-8.15821 -2.85342,-13.31503 -8.43418,-18.70065 -11.53199,-11.12877 -29.66783,-10.63422 -40.65181,1.10855 -5.57367,5.9587 -8.07118,13.04764 -7.47937,21.2294 0.69195,9.56616 4.52444,11.72584 20.97387,11.81915 7.11322,0.0403 7.83253,0.24073 9.78804,2.72677 2.82295,3.5888 2.24956,5.50746 -1.96699,6.58189 -4.8721,1.24147 -5.39877,2.06012 -3.58357,5.57033 0.87181,1.68588 1.5851,5.11259 1.5851,7.6149 0,2.50231 0.37224,4.54966 0.8272,4.54966 0.45496,0 6.71421,-5.98807 13.90944,-13.30683 z m -51.93931,-49.74535 c 0.17657,-1.51561 -0.43265,-3.17999 -1.5,-4.09795 -0.98853,-0.85018 -34.13833,-18.1418 -73.66621,-38.42584 -39.52789,-20.28403 -72.08624,-37.44648 -72.3519,-38.13879 -0.26566,-0.6923 14.19268,-33.55219 32.12965,-73.02198 17.93698,-39.46979 32.60783,-72.99219 32.60191,-74.49421 -0.008,-2.06435 -0.61258,-2.88199 -2.47625,-3.34974 -3.7005,-0.92877 11.45226,-15.94247 -118.03453,116.95125 -71.5498,73.43235 -72.79017,74.84882 -67.8084,77.43556 0.99462,0.51645 18.9084,3.51906 39.8084,6.67247 20.9,3.15341 78.725,11.94018 128.5,19.52615 51.59832,7.86385 93.07912,13.72875 96.5,13.64397 5.64272,-0.13986 6.0177,-0.30068 6.29733,-2.70089 z M 473.5,584.91669 C 430.6,578.38624 372.775,569.62717 345,565.45208 c -30.39293,-4.56861 -51.02929,-8.10691 -51.82935,-8.88664 -1.09779,-1.06989 2.90868,-5.63217 23,-26.19079 13.38114,-13.69237 40.99688,-41.99059 61.36831,-62.88494 82.97443,-85.10431 94.68056,-97.02357 96.04073,-97.7894 0.95031,-0.53506 1.42031,-0.305 1.42031,0.69523 0,0.82221 -14.85,34.17601 -33,74.11956 -18.15,39.94355 -33,72.93786 -33,73.32071 0,0.38284 13.14854,7.4389 29.21897,15.68013 16.07044,8.24123 44.75794,22.98877 63.75,32.7723 18.99207,9.78354 39.14353,20.12363 44.78103,22.97798 10.19482,5.1618 12.81969,7.83179 7.5,7.6289 -1.5125,-0.0577 -37.85,-5.44798 -80.75,-11.97843 z"
       id="path6576"
       inkscape:connector-curvature="0" />
    <path
       style="fill:#000000;fill-opacity:0;stroke:#000000;stroke-width:3.5;stroke-linejoin:round;stroke-miterlimit:4;stroke-dasharray:none;stroke-opacity:1"
       d="M 0,386.5 0,0 386.5,0 773,0 773,386.5 773,773 386.5,773 0,773 0,386.5 Z m 687,323.01905 0,-40.48095 -2.65478,-0.6663 c -5.79534,-1.45454 -5.82042,-1.33145 -6.11056,29.98669 C 678.08429,714.59035 677.57714,727 677.06416,727 c -0.49785,0 -13.83203,-13.52391 -29.63153,-30.05314 -16.15638,-16.9026 -29.10476,-29.67473 -29.59113,-29.18836 -0.47563,0.47563 -0.74704,18.83704 -0.60314,40.80314 L 617.5,748.5 l 4,0 4,0 0.5,-28.91739 c 0.34208,-19.7843 0.84845,-29.03331 1.60328,-29.28442 0.6068,-0.20187 14.03058,13.14845 29.83063,29.66738 C 673.23396,736.48451 686.34999,750 686.58064,750 686.81129,750 687,731.78357 687,709.51905 Z m 45.72829,38.95001 c 9.91689,-4.14354 15.28664,-12.13168 15.24975,-22.68582 -0.0429,-12.26896 -4.90207,-17.99967 -21.03442,-24.80703 C 715.3073,696.06603 711.54545,692.65158 711.54545,687 c 0,-7.13347 8.7751,-13.12664 16.78823,-11.46594 1.74148,0.36091 4.91268,2.03191 7.04713,3.71332 3.70723,2.92037 3.99679,2.98674 6.47367,1.48386 3.53588,-2.14545 3.62986,-3.00218 0.70997,-6.47228 -3.98358,-4.73421 -11.76465,-7.59698 -19.05762,-7.01157 -16.16515,1.29758 -25.48183,14.3993 -19.54282,27.48237 2.30045,5.06766 7.81193,9.20058 18.42225,13.81436 C 735.44909,714.22434 739,717.95524 739,726 c 0,9.99866 -9.34152,17.62136 -18.99611,15.50086 -4.3335,-0.9518 -9.47256,-5.71566 -11.42218,-10.58826 -1.54124,-3.85194 -1.79217,-4.02615 -4.85349,-3.36967 -5.75332,1.23375 -5.95841,2.0959 -2.2428,9.4283 4.16268,8.21465 12.06459,12.92375 21.7967,12.98963 3.18016,0.0215 7.43094,-0.64978 9.44617,-1.4918 z M 73,731.89954 c 0.512354,-17.01061 1.331384,-20.38089 4.78557,-19.69243 0.808221,0.16109 8.055212,8.39289 16.104425,18.29289 l 14.634935,18 9.98753,0.25338 c 5.49315,0.13936 10.46726,-0.0856 11.05358,-0.5 0.58633,-0.41436 2.8082,-4.57838 4.9375,-9.25338 2.12931,-4.675 4.5481,-9.0625 5.37509,-9.75 1.66476,-1.38395 34.69595,-1.81955 36.75421,-0.48469 0.62306,0.40408 3.17984,5.12219 5.68174,10.48469 l 4.5489,9.75 4.06826,0 c 3.2223,0 4.06038,-0.3639 4.03039,-1.75 -0.053,-2.45059 -35.22932,-78.5269 -36.49982,-78.93875 -0.57074,-0.18501 -7.07346,12.83177 -14.4505,28.92619 -23.55082,51.38059 -22.84553,49.9589 -24.34484,49.07347 -1.62547,-0.95995 -33.583097,-39.19907 -34.395657,-41.15638 -0.344256,-0.82925 5.827136,-7.73946 16.085067,-18.01072 C 110.51037,677.97792 118,670.14588 118,669.73928 118,669.33268 115.73177,669 112.95948,669 l -5.04052,0 -16.276979,16.67181 C 81.40528,696.15682 74.926184,702.07241 74.182501,701.61279 73.352937,701.10009 73,696.14899 73,685.02432 c 0,-10.72463 -0.359077,-15.97735 -1.109313,-16.22742 -0.610122,-0.20338 -2.635122,-0.19165 -4.5,0.0261 L 64,669.21881 l 0,39.22393 c 0,21.57316 0.321416,39.54534 0.714259,39.93819 0.392842,0.39284 2.305342,0.58034 4.25,0.41666 L 72.5,748.5 73,731.89954 Z m 71.53835,-12.83749 c -0.49083,-0.79418 11.5855,-29.51923 13.00841,-30.94215 0.26762,-0.26761 0.96705,-0.006 1.55429,0.58115 C 160.69626,690.29626 172,716.16674 172,718.22243 172,719.83769 170.77271,720 158.55902,720 c -7.39254,0 -13.70185,-0.42208 -14.02067,-0.93795 z m 62.09448,29.17264 c 0.62306,-0.40408 3.11798,-11.98469 5.54427,-25.73469 2.99623,-16.97993 4.81242,-25 5.66138,-25 0.68747,0 6.24382,11.3625 12.34743,25.25 6.10362,13.8875 11.42233,25.25 11.81937,25.25 0.39703,0 5.69324,-11.3625 11.76934,-25.25 6.48134,-14.81372 11.5974,-25.25 12.37803,-25.25 0.95478,0 2.5716,7.06078 5.72465,25 2.41674,13.75 4.89551,25.33061 5.50838,25.73469 2.00273,1.32043 6.65576,0.82091 7.27027,-0.7805 0.66427,-1.73107 -13.56906,-75.79901 -14.93617,-77.7254 -0.53014,-0.74702 -1.04881,-0.83672 -1.3229,-0.22879 -0.24797,0.55 -5.96274,13.6 -12.6995,29 -8.01208,18.31535 -12.75437,28 -13.7108,28 -0.95669,0 -5.69252,-9.67947 -13.69944,-28 -6.73051,-15.4 -12.43925,-28.45 -12.68608,-29 -0.27269,-0.60761 -0.79098,-0.51783 -1.32084,0.22879 -1.36711,1.92639 -15.60044,75.99433 -14.93617,77.7254 0.61487,1.60233 5.25538,2.09924 7.28878,0.7805 z m 98.12894,-39.1684 c 0.16898,-25.4547 -0.0922,-39.65244 -0.73664,-40.05076 -0.54912,-0.33937 -2.57942,-0.43247 -4.51177,-0.20688 L 296,669.21881 l 0,39.22393 c 0,21.57316 0.32142,39.54534 0.71426,39.93819 0.39284,0.39284 2.30534,0.58034 4.25,0.41666 L 304.5,748.5 304.76177,709.06629 Z M 342,713 l 0.5,-35.5 9,-0.5 9,-0.5 0.32418,-3.39514 c 0.1783,-1.86732 -0.11616,-3.66732 -0.65436,-4 -0.77604,-0.47969 -33.64298,-0.6297 -43.98019,-0.20073 -2.04477,0.0848 -2.27468,0.52695 -2,3.84587 l 0.31037,3.75 9,0.5 9,0.5 0.25202,34.5 c 0.13862,18.975 0.4725,35.08988 0.74197,35.81084 0.31572,0.84474 1.82623,1.20032 4.24797,1 L 341.5,748.5 342,713 Z m 90.39259,33.45983 c 14.53312,-5.18342 19.13857,-22.22485 9.03007,-33.41376 -1.89434,-2.09681 -4.7894,-4.36955 -6.43346,-5.05054 -1.64406,-0.68099 -2.9892,-1.39542 -2.9892,-1.58761 0,-0.1922 1.42399,-2.36968 3.16442,-4.83885 5.78047,-8.20082 4.72334,-21.11995 -2.20523,-26.94996 -1.59342,-1.34077 -5.04858,-3.13009 -7.67815,-3.97627 -4.55297,-1.46512 -20.41164,-2.76597 -23.03982,-1.88991 C 401.28104,669.07299 401,678.0537 401,708.41667 c 0,21.5875 0.3375,39.5996 0.75,40.0269 1.38389,1.43352 25.4251,-0.12286 30.64259,-1.98374 z M 411.25,740.40252 C 410.33651,739.98656 410,736.05925 410,725.81405 l 0,-14.01928 8.25,0.3547 c 5.83742,0.25097 9.41973,0.95903 12.25,2.42124 10.00819,5.17058 9.58231,18.59029 -0.75316,23.73233 -3.58267,1.78242 -16.07832,3.20074 -18.49684,2.09948 z m 0,-36.0648 c -0.91206,-0.36803 -1.25,-4.10007 -1.25,-13.80442 0,-15.22855 -0.21924,-14.90158 9.01315,-13.44214 6.1889,0.97833 9.5411,3.68902 11.13306,9.00249 2.51988,8.41064 -1.84938,16.03358 -10.21882,17.8285 -5.3601,1.14954 -6.69946,1.21368 -8.67739,0.41557 z m 56.52374,27.51016 c 0.22327,-13.58241 0.54587,-16.75655 1.75,-17.21861 0.81194,-0.31158 2.03876,-0.34511 2.72626,-0.0745 0.6875,0.27058 5.975,7.33207 11.75,15.69219 5.775,8.36013 11.2875,15.99962 12.25,16.97665 1.78902,1.81603 9.16589,2.53055 10.12382,0.98059 0.27051,-0.4377 -4.65293,-7.88921 -10.94099,-16.5589 C 489.14477,722.97558 484,715.4897 484,715.01 c 0,-0.47971 2.57073,-2.14472 5.71274,-3.70003 15.85701,-7.84928 16.4815,-31.55844 1.03876,-39.43675 -4.48476,-2.28795 -22.49121,-4.33631 -28.5015,-3.24224 l -3.25,0.5916 0,39.22204 c 0,21.57213 0.32142,39.54346 0.71426,39.93631 0.39284,0.39284 2.30534,0.58034 4.25,0.41666 L 467.5,748.5 467.77374,731.84788 Z M 468.75,706.43873 c -0.4125,-0.42464 -0.75,-6.98123 -0.75,-14.57021 0,-16.26809 0.008,-16.28082 9.84749,-14.89008 10.86624,1.53594 15.65251,6.15314 15.65251,15.09962 0,8.68472 -6.14479,13.88488 -17.33092,14.66664 -3.66799,0.25635 -7.00658,0.11866 -7.41908,-0.30597 z m 54.3563,32.7091 c 2.53347,-5.1437 5.23347,-9.74931 6,-10.23469 0.76654,-0.48538 8.88135,-0.88941 18.03292,-0.89783 19.52857,-0.018 18.85507,-0.3282 23.84755,10.98469 1.82039,4.125 3.74818,8.0625 4.28396,8.75 1.37584,1.76542 8.72927,1.64996 8.72927,-0.13706 0,-1.61031 -34.67916,-77.65199 -36.04942,-79.04627 -0.50448,-0.51334 -1.1817,-0.66888 -1.50493,-0.34565 -1.65266,1.65265 -36.40477,79.03611 -35.87747,79.8893 0.33969,0.54963 2.26332,0.86216 4.27472,0.69451 3.54399,-0.2954 3.79956,-0.59407 8.2634,-9.657 z m 10.40745,-20.12558 C 532.62649,717.58662 545.62589,688.5 547.15477,688.5 c 1.34802,0 13.71406,26.66297 13.79777,29.75 0.0429,1.58222 -1.24117,1.75 -13.39352,1.75 -7.67804,0 -13.70008,-0.41922 -14.04527,-0.97775 z m 68.24766,-10.20124 c 0.25986,-39.4431 0.24903,-39.68292 -1.82217,-40.34029 -1.14597,-0.36372 -3.17611,-0.3871 -4.51141,-0.052 L 593,669.0381 l 0,39.31429 c 0,21.62285 0.32142,39.63569 0.71426,40.02854 0.39284,0.39284 2.30534,0.58034 4.25,0.41666 L 601.5,748.5 601.76141,708.82101 Z M 150.30755,651.26212 C 168.14974,632.55045 188.11164,611.9114 300.46468,496.01132 325.7841,469.89254 353.925,440.84734 363,431.46642 c 9.075,-9.38091 30.45,-31.445 47.5,-49.0313 C 464.96802,326.25382 530.04036,259.1052 549.5,239 c 10.38063,-10.725 38.90916,-40.2 63.39673,-65.5 24.48757,-25.3 48.25345,-49.73155 52.81306,-54.29232 7.07233,-7.07413 8.29021,-8.78229 8.29021,-11.62756 0,-1.83438 -0.70484,-3.9202 -1.56631,-4.63516 -1.7388,-1.44307 -2.79371,-1.36671 -180.43369,13.05952 -6.325,0.51366 -50.875,4.11293 -99,7.99838 -106.67541,8.61261 -107.36607,8.66833 -123.5,9.96295 -7.15,0.57373 -24.25,1.95701 -38,3.07395 -13.75,1.11694 -30.175,2.44905 -36.5,2.96024 -68.07728,5.50205 -71.16004,5.90874 -87.62366,11.55957 C 67.213625,165.34467 32.032562,201.06164 17.190216,243.1195 10.701414,261.50642 9.5,269.92397 9.5,297 c 0,27.19705 0.779061,32.94539 6.99924,51.64427 7.079315,21.28159 18.665079,40.22678 34.966502,57.17768 12.085171,12.56667 23.543176,21.28498 37.593952,28.60496 9.47606,4.93671 29.527556,12.56429 33.066956,12.57867 0.75534,0.003 3.06085,0.47422 5.12335,1.047 l 3.75,1.04143 0,105.9033 c 0,99.80533 0.10077,105.962 1.75,106.92259 4.2298,2.46364 6.16732,1.28752 17.55755,-10.65778 z M 135,551.6966 l 0,-106.45005 -9.75,-2.24431 C 96.868257,436.46919 73.139974,422.76888 53.040902,401.30994 15.090058,360.7914 2.5458235,301.43444 20.504904,247.35573 27.796543,225.39901 39.762686,206.13831 56.457745,189.48606 76.635551,169.35998 97.743519,157.46484 124,151.42343 c 8.88469,-2.0443 41.03698,-4.88211 209,-18.44667 181.3855,-14.64854 236.9456,-19.14049 309.88271,-25.05355 18.2178,-1.47693 25.68839,-1.75211 26.46565,-0.97485 0.77725,0.77725 -1.62112,3.8307 -8.49656,10.81729 C 655.58307,123.11954 573.71027,207.6 478.91223,305.5 327.7388,461.6201 243.20583,548.88313 160.70372,633.9853 c -12.53795,12.93308 -23.45045,23.6602 -24.25,23.83802 C 135.18917,658.10457 135,644.29438 135,551.6966 Z m 479.54207,95.15505 C 627.73202,633.2919 629.41113,630.25848 629.40546,620 c -0.007,-12.08034 -5.50327,-21.39278 -15.81544,-26.79489 -4.28021,-2.24222 -6.3628,-2.66644 -13.09002,-2.66644 -6.72722,0 -8.80981,0.42422 -13.09002,2.66644 -11.81547,6.18962 -18.90867,21.224 -15.23669,32.29489 1.92396,5.80068 5.88049,7.49648 17.49492,7.49845 10.74631,0.002 11.94115,0.34546 13.81753,3.97398 1.62581,3.14396 0.50386,5.02757 -2.99461,5.02757 -1.15988,0 -2.87856,0.56281 -3.8193,1.2507 -1.60188,1.17132 -1.57837,1.50451 0.37057,5.25 1.63227,3.13691 1.94954,5.04562 1.4713,8.85158 l -0.60972,4.85228 2.79801,-2.00063 c 1.53891,-1.10034 7.76694,-7.10887 13.84008,-13.35228 z m -53.1135,-47.42308 c 1.9124,-1.9124 1.98499,-3.48073 0.2697,-5.82653 -0.71595,-0.97913 -33.90345,-18.52587 -73.75,-38.99276 -55.50384,-28.50915 -72.50907,-37.66823 -72.70821,-39.16091 -0.14297,-1.0716 14.17287,-33.67337 31.81298,-72.44837 17.64011,-38.775 32.31748,-71.69574 32.61638,-73.1572 0.42252,-2.06586 -0.005,-3.01673 -1.92207,-4.27269 -1.35605,-0.88851 -3.17407,-1.34359 -4.04005,-1.01128 -0.86599,0.3323 -24.86887,24.53001 -53.33976,53.77268 -54.22368,55.69357 -81.04995,83.13798 -113.12033,115.72688 -19.63413,19.95157 -21.5853,22.75628 -17.93726,25.78388 0.72047,0.59794 47.40797,8.05136 103.75,16.56316 56.34203,8.5118 115.49005,17.48516 131.44005,19.94079 33.04476,5.0875 34.77869,5.23223 36.92857,3.08235 z M 497,587.93022 C 468.675,583.5967 438.075,578.93998 429,577.58194 362.48049,567.62753 298.05138,557.86966 295.75,557.40105 294.2375,557.09307 293,556.41086 293,555.88503 293,555.11274 373.33057,472.22614 457.40388,386.25 471.53264,371.80146 474,369.68009 474,371.98109 c 0,0.5396 -14.64936,33.20946 -32.55412,72.5997 -17.90477,39.39024 -32.41727,72.30068 -32.25,73.13431 0.30116,1.50094 13.86138,8.65925 100.30412,52.94959 24.2,12.39927 44.65893,23.17214 45.46429,23.93971 1.26448,1.20517 0.92336,1.38259 -2.5,1.30027 C 550.28393,595.85223 525.325,592.26373 497,587.93022 Z"
       id="path6578"
       inkscape:connector-curvature="0" />
    <path
       style="fill:#000000;fill-opacity:0;stroke:#000000;stroke-width:3.5;stroke-linejoin:round;stroke-miterlimit:4;stroke-dasharray:none;stroke-opacity:1"
       d="M 0,386.5 0,0 386.5,0 773,0 773,386.5 773,773 386.5,773 0,773 0,386.5 Z m 734.5,361.58107 c 13.05127,-5.8314 18.43505,-23.06975 10.85569,-34.75887 -3.19736,-4.93106 -9.51967,-9.20749 -19.85569,-13.43046 -10.13288,-4.13997 -13.5,-7.31701 -13.5,-12.73789 0,-9.95479 15.26207,-15.06726 22.96082,-7.69139 2.98432,2.85916 3.8785,3.02351 7.49213,1.37702 3.41855,-1.55759 3.20733,-3.82055 -0.70295,-7.53136 -5.11774,-4.85668 -9.14474,-6.43312 -16.43331,-6.43312 -13.15959,0 -22.28341,7.51679 -23.11732,19.04553 -0.75472,10.43383 3.03139,14.87154 19.30063,22.62237 16.88505,8.04421 20.38822,13.49788 15.53618,24.18644 -5.07611,11.18217 -22.07447,11.13911 -27.39326,-0.0694 C 708.73931,730.75573 708,728.70325 708,728.09887 c 0,-1.17645 -4.80413,-1.495 -7.41821,-0.49188 -5.01684,1.92514 2.43302,15.67117 10.91821,20.14562 6.82293,3.5979 15.40825,3.7205 23,0.32846 z M 687.98469,710.25 c -0.008,-21.8625 -0.39173,-40.34364 -0.85179,-41.0692 -0.52413,-0.82661 -2.29208,-1.20001 -4.73469,-1 L 678.5,668.5 l -0.26545,28.82035 c -0.22164,24.06407 -0.49601,28.76748 -1.66251,28.5 C 675.80367,725.64416 662.53419,712.225 647.08432,696 c -15.44987,-16.225 -28.54427,-29.65167 -29.09866,-29.83705 -0.66928,-0.2238 -0.92023,13.55304 -0.74682,41 L 617.5,748.5 l 4.5,0 4.5,0 0.26545,-28.82035 c 0.21896,-23.77251 0.50503,-28.76424 1.63332,-28.5 0.75233,0.17619 13.88855,13.48285 29.1916,29.57035 15.30304,16.0875 28.40555,29.25 29.11667,29.25 1.03585,0 1.28992,-7.90441 1.27765,-39.75 z M 73.393011,747.41821 C 73.726855,746.54823 74,738.93037 74,730.48964 c 0,-12.43735 0.289855,-15.63664 1.528939,-16.87572 0.840916,-0.84092 2.078416,-1.30188 2.75,-1.02436 0.671583,0.27751 7.715777,8.59736 15.653764,18.48855 l 14.432707,17.98397 11.03114,-0.28104 c 12.53563,-0.31937 10.6436,1.05646 16.88884,-12.28104 l 3.27773,-7 18.70848,-0.27203 18.70847,-0.27203 4.75997,9.77203 4.75996,9.77203 4.75,0.30479 c 2.89844,0.18598 4.75,-0.1125 4.75,-0.76574 0,-1.02367 -7.91698,-18.55447 -27.50533,-60.9058 -4.95293,-10.70858 -9.47104,-19.62537 -10.04024,-19.81511 -0.89528,-0.29842 -8.01158,14.62047 -31.77035,66.60462 -2.87136,6.28252 -5.69288,11.58017 -6.27006,11.77257 C 119.17977,746.10674 86,706.63605 86,704.75637 86,704.05286 93.425,696.0625 102.5,687 111.575,677.9375 119,669.95512 119,669.26137 119,668.40604 117.30635,668 113.73863,668 l -5.26136,0 L 92,684.5 c -9.062497,9.075 -16.819882,16.5 -17.238634,16.5 -0.418751,0 -0.768257,-6.8625 -0.776679,-15.25 -0.0084,-8.3875 -0.391725,-15.84364 -0.851786,-16.5692 -0.524129,-0.82661 -2.292086,-1.20001 -4.734687,-1 L 64.5,668.5 64.238656,708.75 63.977311,749 l 4.404356,0 c 3.093705,0 4.584983,-0.47071 5.011344,-1.58179 z M 145.4166,718.64327 c -0.68355,-1.78131 11.50853,-29.6477 12.963,-29.62842 1.42378,0.0189 13.94816,28.64581 13.11934,29.98686 C 171.14169,719.57976 165.63159,720 158.4096,720 c -9.5787,0 -12.59316,-0.31477 -12.993,-1.35673 z M 207.95836,746.75 c 0.50351,-1.2375 2.33752,-10.575 4.07557,-20.75 4.20902,-24.64076 4.98306,-28.161 6.10952,-27.78552 0.52548,0.17516 5.80031,11.33606 11.72185,24.802 C 236.37484,737.81957 241.17272,747.5 242,747.5 c 0.82728,0 5.62516,-9.68043 12.1347,-24.48352 5.92154,-13.46594 11.22208,-24.63541 11.77898,-24.82104 1.23412,-0.41137 1.1311,-0.86774 5.98657,26.51958 2.16616,12.21826 4.22632,22.68076 4.57813,23.25 0.76372,1.23572 8.17981,1.39706 8.92326,0.19413 0.6968,-1.12744 -14.32107,-78.40325 -15.4681,-79.59248 -0.49511,-0.51334 -1.07789,-0.73834 -1.29507,-0.5 -0.21717,0.23833 -6.12916,13.59583 -13.13776,29.68333 -7.0086,16.0875 -13.08656,29.25 -13.50657,29.25 -0.42002,0 -6.54985,-13.27606 -13.62186,-29.50235 -7.072,-16.22629 -13.31111,-29.35137 -13.86468,-29.16685 -0.81634,0.27211 -16.3322,75.09842 -16.46824,79.4192 -0.0259,0.8215 1.5106,1.25 4.48208,1.25 3.75098,0 4.67744,-0.3834 5.43692,-2.25 z m 96.80298,-38 -0.26134,-40.25 -4,0 -4,0 -0.26134,40.25 -0.26135,40.25 4.52269,0 4.52269,0 -0.26135,-40.25 z M 342,714.58179 c 0,-18.93002 0.27314,-35.13002 0.60699,-36 0.49005,-1.27705 2.30729,-1.58179 9.43261,-1.58179 8.04983,0 8.88344,-0.18215 9.48331,-2.07217 0.36172,-1.1397 0.38143,-3.17282 0.0438,-4.51804 l -0.61387,-2.44588 -23.72642,0.26805 L 313.5,668.5 l 0,4 0,4 9,0.5 9,0.5 0.53211,35.5 c 0.29266,19.525 0.63016,35.6125 0.75,35.75 0.11984,0.1375 2.24289,0.25 4.71789,0.25 l 4.5,0 0,-34.41821 z m 91.5,32.05282 c 5.00634,-2.17272 10.31345,-7.14406 12.11924,-11.35249 1.8345,-4.27534 1.75189,-12.4579 -0.17229,-17.06424 -1.90975,-4.5718 -5.73877,-8.6819 -9.56443,-10.26654 -3.21434,-1.33142 -3.6676,-3.05489 -1.31658,-5.00606 3.09022,-2.56466 4.77715,-7.37633 4.73258,-13.49891 -0.0666,-9.14592 -4.32315,-15.4692 -12.79852,-19.0126 -5.52712,-2.31079 -24.34383,-3.29079 -25.58379,-1.33244 -1.00778,1.59166 -1.26151,75.83525 -0.26802,78.42425 0.57699,1.5036 2.19733,1.6428 14.75,1.26709 10.44569,-0.31265 15.13887,-0.87216 18.10181,-2.15806 z m -23.06373,-7.94008 c -0.27552,-0.71801 -0.3739,-6.90551 -0.21861,-13.75 L 410.5,712.5 l 5.30747,-0.30425 C 428.27897,711.48081 437,717.00772 437,725.62639 c 0,9.80806 -5.89514,14.31278 -18.78138,14.35165 -5.08419,0.0153 -7.43256,-0.37197 -7.78235,-1.28351 z m -10e-4,-36.00275 c -0.2761,-0.71952 -0.37448,-6.68202 -0.21861,-13.25 L 410.5,677.5 l 5.63564,0.0198 C 425.76713,677.55369 430,681.51662 430,690.5 c 0,5.96598 -2.07091,9.83124 -6.35708,11.86516 -4.18969,1.98813 -12.49134,2.19344 -13.2077,0.32662 z M 468,733.58179 c 0,-8.48002 0.27314,-16.13002 0.60699,-17 1.51744,-3.95438 4.4044,-1.32562 14.46161,13.16821 C 496.68294,749.37016 496.31556,749 502.17431,749 504.96182,749 507,748.54404 507,747.92046 507,747.32671 501.825,739.7125 495.5,731 489.175,722.2875 484,714.93319 484,714.6571 c 0,-0.2761 1.6136,-1.03453 3.58577,-1.68541 12.80378,-4.22562 18.62894,-20.8242 11.65678,-33.21553 -2.39588,-4.25811 -4.06061,-5.82463 -8.76714,-8.24994 -5.54463,-2.8572 -6.38374,-2.99407 -18.39255,-3 L 459.5,668.5 l -0.26134,40.25 -0.26135,40.25 4.51135,0 4.51134,0 0,-15.41821 z m 1.25,-27.69801 c -1.30876,-1.34412 -1.84626,-24.16637 -0.64301,-27.30199 0.43337,-1.12936 1.93499,-1.58019 5.25,-1.57621 6.94924,0.008 12.16721,1.81862 15.84609,5.4975 2.8756,2.8756 3.29692,3.95501 3.29692,8.44658 0,6.6039 -2.07608,10.53834 -6.84434,12.97093 -4.97222,2.53663 -15.19177,3.72339 -16.90566,1.96319 z M 523.78987,739.25 528.5,729.5 l 18.8658,0 18.86579,0 4.26322,9.5 4.26322,9.5 5.12098,0.30226 c 2.81655,0.16624 5.12099,-0.09 5.12099,-0.56953 0,-1.27 -35.95467,-79.56031 -37.04573,-80.66606 -0.50652,-0.51334 -1.19707,-0.6572 -1.53457,-0.3197 C 545.77643,667.89024 509,747.81087 509,748.56552 509,748.80449 511.26794,749 514.03987,749 l 5.03987,0 4.71013,-9.75 z m 10.56986,-20.75495 C 533.60483,716.52783 545.56038,689.5 547.18546,689.5 c 1.46064,0 14.116,28.20322 13.26976,29.57246 C 560.13993,719.58261 554.2694,720 547.4096,720 c -10.1823,0 -12.57841,-0.27633 -13.04987,-1.50495 z M 601.5,708.5 l 0,-40 -3.31532,-0.31823 C 591.81951,667.57079 592,666.40758 592,708.04066 c 0,20.78767 0.282,38.53066 0.62668,39.42886 0.46853,1.22097 1.66724,1.55706 4.75,1.33179 L 601.5,748.5 l 0,-40 z M 144.6748,658.04777 c 3.54121,-4.35325 30.78348,-32.57997 156.87861,-162.54777 16.54196,-17.05 38.37211,-39.58693 48.51144,-50.08206 10.13933,-10.49513 37.82308,-39.07013 61.51944,-63.5 C 435.28065,357.48807 463.1447,328.725 473.50439,318 c 10.3597,-10.725 32.37177,-33.45185 48.91571,-50.50411 16.54395,-17.05226 50.98229,-52.60226 76.52965,-79 25.54736,-26.39774 53.10986,-54.71743 61.25,-62.93265 C 673.05367,112.59076 675,110.20687 675,107.43568 c 0,-5.27104 -1.55742,-5.79543 -15.27639,-5.14357 -6.72299,0.31945 -40.12361,2.86454 -74.22361,5.65577 -34.1,2.79123 -95.525,7.78484 -136.5,11.0969 -40.975,3.31207 -79.9,6.45943 -86.5,6.99413 -76.46681,6.19503 -144.02908,11.60686 -180.5,14.4583 -26.5794,2.07809 -48.89012,4.32221 -55.40143,5.57256 -28.283014,5.43111 -51.80266,18.21018 -73.560639,39.96816 C 35.438308,203.63755 23.833325,222.32055 16.073636,245.54719 9.7219898,264.55921 8.4976728,273.10765 8.5612899,298 c 0.046511,18.19919 0.3897991,23.05124 2.2360231,31.60406 7.543455,34.94584 25.647442,65.63133 51.425358,87.1638 18.615545,15.5497 35.743929,24.47351 57.016199,29.70518 5.35638,1.31735 10.12881,2.63617 10.60541,2.93072 0.48491,0.29969 0.64729,46.48273 0.36872,104.86555 -0.3767,78.94818 -0.21132,104.86532 0.67978,106.53035 0.93226,1.74194 2.0709,2.20034 5.46558,2.20034 3.9311,0 4.62328,-0.41218 8.31644,-4.95223 z M 135.46593,656.75 c -0.25921,-0.6875 -0.58258,-48.69015 -0.71861,-106.67255 L 134.5,444.65491 126.4376,442.92052 C 83.962772,433.78329 47.95581,404.95804 28.478895,364.5 22.099451,351.24843 18.884583,341.96619 15.837261,328 13.869626,318.98213 13.543966,314.60632 13.530157,297 13.516218,279.22799 13.81987,275.13058 15.812005,266.20926 22.56707,235.95824 34.678308,212.7663 54.475519,192.17207 81.210056,164.36123 109.58111,151.40143 151,148.08 c 24.4347,-1.95945 75.05776,-6.03887 100.5,-8.09873 13.75,-1.11323 33.1,-2.67884 43,-3.47914 9.9,-0.80029 29.25,-2.36811 43,-3.48403 13.75,-1.11592 69.775,-5.62854 124.5,-10.02804 54.725,-4.3995 110.3,-8.88289 123.5,-9.96308 13.2,-1.08019 35.7,-2.87817 50,-3.9955 14.3,-1.11734 27.48602,-2.23203 29.30226,-2.47711 4.05257,-0.54683 5.32392,1.64711 2.43263,4.19797 C 666.1454,111.71356 636.52213,142.2 601.4054,178.5 c -35.11673,36.3 -91.75297,94.8 -125.8583,130 -34.10534,35.2 -83.14126,85.825 -108.96872,112.5 -25.82746,26.675 -53.30896,55.025 -61.07001,63 -14.69877,15.10399 -17.86875,18.3756 -95.44388,98.50352 C 147.6239,646.99886 136.88524,658 136.36926,658 c -0.23761,0 -0.64411,-0.5625 -0.90333,-1.25 z m 475.9826,-6.56519 c 17.37023,-16.96497 18.05217,-18.1027 18.04871,-30.11178 -0.002,-7.94454 -0.37692,-10.27329 -2.20221,-13.6895 -3.57867,-6.69784 -7.0077,-10.08385 -13.49482,-13.3255 -15.62725,-7.80903 -34.74498,-0.51254 -40.7567,15.55523 -2.25886,6.03735 -2.63527,13.39078 -0.93509,18.2679 1.67428,4.80286 5.61019,6.29858 18.13683,6.89231 9.51724,0.4511 11.02063,0.76804 12.2987,2.59273 2.27795,3.25224 1.78459,4.13112 -3.04395,5.42256 -4.92499,1.31723 -5.52323,2.71995 -2.88032,6.75354 1.19418,1.82256 1.50538,4.05201 1.18461,8.48662 -0.23928,3.30807 -0.10433,5.89236 0.29991,5.74288 0.40423,-0.14949 6.40918,-5.81364 13.34433,-12.58699 z M 561.8,599.8 c 0.66,-0.66 1.2,-2.44103 1.2,-3.95785 0,-2.19706 -0.8642,-3.25147 -4.25,-5.18542 -2.3375,-1.33517 -35.075,-18.24904 -72.75,-37.58637 -37.675,-19.33734 -69.11514,-35.77011 -69.86698,-36.51727 -1.15472,-1.14754 3.7044,-12.51434 31.29426,-73.20578 23.41298,-51.50325 32.57791,-72.66822 32.36698,-74.74646 -0.37765,-3.72071 -2.8549,-5.34279 -6.20421,-4.06245 -1.38352,0.52888 -31.00255,30.2116 -65.82007,65.9616 -34.81751,35.75 -76.00929,78.04938 -91.53728,93.99862 -30.05271,30.86801 -31.27616,32.55651 -25.9827,35.85901 1.29637,0.80879 28.10398,5.28976 63.25,10.57242 103.65832,15.58048 159.22547,23.97965 178.5,26.98089 20.56682,3.20246 28.01449,3.67457 29.8,1.88906 z M 496.5,587.43075 C 411.0663,574.4105 295.58118,556.98823 294.75,556.99442 c -2.24406,0.0167 0.32678,-3.42968 10,-13.40563 C 360.73014,485.85673 470.65507,373.33144 471.68942,372.70031 472.4585,372.23103 473,372.3521 473,372.99333 c 0,0.60099 -14.64174,33.31062 -32.53721,72.68807 -17.89546,39.37745 -32.38995,72.03712 -32.20998,72.57703 0.32504,0.97512 18.78547,10.62141 101.24719,52.90562 23.65,12.1271 43.65893,22.67627 44.46429,23.44261 2.05897,1.95922 4.3727,2.24815 -57.46429,-7.17591 z"
       id="path6580"
       inkscape:connector-curvature="0" />
    <path
       style="fill:#000000;fill-opacity:0;stroke:#000000;stroke-width:3.5;stroke-linejoin:round;stroke-miterlimit:4;stroke-dasharray:none;stroke-opacity:1"
       d="M 0,386.5 0,0 386.5,0 773,0 773,386.5 773,773 386.5,773 0,773 0,386.5 Z M 687.76109,709.75 687.5,668.5 l -5,0 -5,0 -0.26557,28.25 c -0.14607,15.5375 -0.63947,28.25 -1.09646,28.25 -0.45699,0 -13.38748,-13.24062 -28.73443,-29.42361 C 632.05659,679.39341 618.825,666.23698 618,666.33988 c -1.3001,0.16216 -1.53485,5.48845 -1.76151,39.96784 -0.17281,26.28653 0.0935,40.44416 0.78518,41.73651 0.66724,1.24674 2.09189,1.95577 3.92973,1.95577 6.35624,0 6.0466,1.51314 6.0466,-29.54797 0,-15.5837 0.38422,-28.57146 0.85383,-28.86169 0.46961,-0.29023 13.76416,12.95821 29.54345,29.44098 C 673.17658,737.51409 686.52235,751 687.05455,751 c 0.6121,0 0.8717,-15.15649 0.70654,-41.25 z m 43.46365,40.20439 c 10.10427,-2.8062 17.79315,-13.36669 17.7533,-24.3837 -0.0433,-11.98227 -5.73602,-18.70906 -21.25442,-25.11546 -5.56517,-2.29745 -10.56289,-5.1366 -12.60016,-7.15803 -2.95307,-2.93011 -3.30292,-3.80387 -2.7896,-6.96713 1.61051,-9.92441 14.02415,-13.3952 22.77043,-6.3665 2.07814,1.67004 4.07285,3.03643 4.4327,3.03643 1.14978,0 6.46301,-4.10339 6.46301,-4.99137 0,-1.80889 -5.42904,-7.18686 -9.19418,-9.10769 -5.7247,-2.92053 -12.42679,-3.44375 -19.13435,-1.49381 -11.93297,3.46901 -18.55198,13.89549 -15.65382,24.65841 1.79532,6.66732 6.46858,10.71249 20.08333,17.3841 9.81581,4.81002 12.73509,6.72548 14.24028,9.34357 2.37939,4.13868 2.3437,10.34921 -0.0834,14.5049 -6.77695,11.60375 -23.03971,9.48331 -27.21228,-3.54811 -1.30798,-4.08498 -1.73318,-4.24219 -7.29562,-2.69742 -4.37176,1.2141 -4.60463,2.4624 -1.66909,8.94742 5.39821,11.92541 18.04541,17.59215 31.14383,13.95439 z M 72.418213,749.39301 C 73.773183,748.87306 74,746.39236 74,732.09301 74,715.50051 74.468605,713 77.578099,713 c 0.647954,0 7.326553,7.63751 14.841331,16.97225 7.514777,9.33473 14.64476,17.65973 15.84441,18.5 2.78734,1.95232 19.55854,2.16489 21.9143,0.27775 0.85822,-0.6875 3.05314,-4.625 4.8776,-8.75 5.24147,-11.85063 3.54997,-11.08726 23.86948,-10.77236 L 176.5,729.5 l 4.52084,9.332 c 2.48646,5.13261 5.18646,9.70356 6,10.15767 2.0469,1.14258 19.68743,0.72003 20.80957,-0.49846 0.50205,-0.54516 2.7974,-11.78052 5.10078,-24.96744 2.30337,-13.18693 4.38614,-24.17443 4.62838,-24.41667 0.82,-0.82 1.5386,0.64016 12.31924,25.03227 C 236.29818,738.66372 241.19245,748.5 242,748.5 c 0.80755,0 5.70182,-9.83628 12.12119,-24.36063 10.75804,-24.34097 11.50043,-25.85108 12.31046,-25.04105 0.23741,0.23741 2.33251,11.22491 4.65577,24.41667 2.95973,16.8057 4.70131,24.37249 5.81835,25.27952 0.87683,0.71198 3.16923,1.16198 5.09423,1 3.3828,-0.28465 3.49737,-0.42845 3.42143,-4.29451 -0.13212,-6.72559 -14.61621,-78.5 -15.84132,-78.5 -0.61419,0 -6.90084,13.275 -13.97032,29.5 -7.06948,16.225 -13.19055,29.5 -13.60238,29.5 -0.41182,0 -6.52434,-13.275 -13.58338,-29.5 -7.05905,-16.225 -13.33163,-29.5 -13.93908,-29.5 -0.65549,0 -4.28299,16.07343 -8.92359,39.54037 -4.3673,22.0849 -8.25185,39.39613 -8.79934,39.21364 -0.53911,-0.17971 -9.02034,-17.8271 -18.84717,-39.21644 -9.82684,-21.38933 -18.25682,-39.27954 -18.73329,-39.75601 -1.57484,-1.57484 -1.23129,-2.27204 -31.85738,64.65079 -3.25505,7.11279 -6.43721,13.10533 -7.07147,13.31675 -1.02,0.34 -33.204623,-37.2833 -34.111354,-39.87561 -0.197255,-0.56395 7.340245,-8.76994 16.750004,-18.23554 C 112.30111,677.17234 120,669.10651 120,668.71388 120,668.32125 117.14805,668 113.66233,668 l -6.33768,0 -15.749476,16.5 C 82.91296,693.575 75.42606,701 74.937618,701 c -0.488441,0 -1.011722,-7.3125 -1.162847,-16.25 L 73.5,668.5 l -5,0 -5,0 -0.261728,39.38341 c -0.187672,28.23988 0.05919,39.77008 0.872445,40.75 1.175908,1.41688 5.551943,1.81701 8.307496,0.7596 z M 145.05896,718.25 c 0.16331,-2.07761 12.56539,-28.58421 13.32827,-28.48614 C 159.39942,689.89398 171,715.51437 171,717.6197 171,718.72265 168.38783,719 158,719 c -7.15,0 -12.97347,-0.3375 -12.94104,-0.75 z m 159.83032,30.38341 c 0.81326,-0.97992 1.06012,-12.51012 0.87245,-40.75 L 305.5,668.5 l -5,0 -5,0 -0.26173,39.38341 c -0.18767,28.23988 0.0592,39.77008 0.87245,40.75 0.62379,0.75162 2.59897,1.36659 4.38928,1.36659 1.79031,0 3.76549,-0.61497 4.38928,-1.36659 z m 36.17646,0.33141 C 342.92144,747.97168 343,746.51027 343,712.98387 l 0,-34.94577 2.25,-0.51472 c 1.2375,-0.28309 5.4,-0.62916 9.25,-0.76905 l 7,-0.25433 0,-4 0,-4 -24.25,-0.26778 -24.25,-0.26778 0,4.51778 c 0,2.48478 0.3375,4.5497 0.75,4.58872 0.4125,0.039 4.35,0.20474 8.75,0.36827 4.4,0.16353 8.3375,0.35661 8.75,0.42906 0.4125,0.0725 0.75,15.79173 0.75,34.93173 0,25.73333 0.31264,35.11264 1.2,36 1.47422,1.47422 5.27047,1.55376 7.86574,0.16482 z m 91.36676,-1.56519 c 10.89288,-3.78077 17.23316,-14.71834 14.60106,-25.18822 -1.6872,-6.71131 -4.55656,-10.84756 -9.55861,-13.77896 l -4.35099,-2.54985 3.0776,-4.36622 c 5.68394,-8.06387 4.76326,-19.78685 -2.09241,-26.64252 -5.10023,-5.10023 -12.14714,-7.03648 -24.24915,-6.66284 l -9.36,0.28898 -0.26164,39.93379 c -0.20474,31.24976 0.0127,40.12558 1,40.81575 2.0965,1.46559 25.66945,0.0676 31.19414,-1.84991 z m -20.94151,-8.56252 c -0.30562,-0.79643 -0.42862,-7.04809 -0.27333,-13.89258 L 411.5,712.5 l 7,0.30967 c 12.20249,0.53982 18.50785,5.28112 18.49626,13.90821 -0.005,3.84177 -3.28587,8.8634 -7.06854,10.8195 -4.46191,2.30734 -17.69217,3.24003 -18.43673,1.29973 z m 0.25901,-35.4083 c -0.4125,-0.41918 -0.75,-6.32627 -0.75,-13.12686 0,-14.31166 -0.0388,-14.25766 8.7348,-12.16406 4.6335,1.10568 6.13708,2.0018 7.98666,4.75999 4.28543,6.39067 1.90092,16.7744 -4.4024,19.17091 -3.81923,1.45207 -10.6843,2.2591 -11.56906,1.36002 z M 467.8,748.8 c 0.83169,-0.83169 1.2,-6.03133 1.2,-16.94098 0,-15.74768 0.55439,-18.30366 3.44897,-15.90137 0.74875,0.62141 6.21267,8.11407 12.14205,16.65037 5.92938,8.5363 11.48455,15.89681 12.34483,16.35668 1.59329,0.85172 18.22383,1.16111 21.20001,0.3944 0.92043,-0.23712 3.51977,-4.5754 5.94358,-9.91979 3.03474,-6.69151 4.91542,-9.6479 6.36414,-10.00436 1.13103,-0.27829 9.46472,-0.3775 18.51932,-0.22047 18.82448,0.32648 15.99309,-1.23033 22.31604,12.27027 2.37309,5.06695 3.9809,7.23431 5.85574,7.89365 C 580.27776,750.48377 585,749.44999 585,747.65655 585,745.06984 548.36342,666.5 547.15726,666.5 c -0.67966,0 -9.45941,17.97211 -19.51055,39.93801 -10.05113,21.96591 -18.69597,40.06777 -19.21075,40.22636 -0.88555,0.27282 -22.62919,-28.87294 -23.20924,-31.11029 -0.15031,-0.57974 1.97818,-2.08479 4.72997,-3.34454 13.7435,-6.29169 17.27678,-25.74311 6.73124,-37.05686 -5.1868,-5.56464 -9.07438,-6.63232 -24.18793,-6.64289 l -14,-0.01 -0.26173,39.38341 c -0.18767,28.23988 0.0592,39.77008 0.87245,40.75 1.39977,1.68662 7.06071,1.79516 8.68928,0.16659 z M 534,718.22243 c 0,-1.24271 11.73587,-27.3583 12.7501,-28.37253 C 547.60233,688.99767 560,715.24263 560,717.89897 560,718.64388 555.79522,719 547,719 c -7.15,0 -13,-0.34991 -13,-0.77757 z M 469.22185,691.86444 469.5,677.5 l 5.99849,0.28109 c 11.80689,0.55326 18.39716,6.50469 17.18774,15.52158 -1.08901,8.11918 -6.1678,11.86669 -16.96438,12.51757 l -6.77816,0.40863 0.27816,-14.36443 z M 601.32239,748.75 c 1.56424,-1.14704 1.68294,-4.50345 1.44113,-40.75 L 602.5,668.5 l -5,0 -5,0 -0.26164,39.93379 c -0.20496,31.2832 0.0117,40.10729 1,40.73469 1.90518,1.20942 6.16474,0.98892 8.08403,-0.41848 z m 11.30412,-99 c 7.77465,-7.92404 14.81233,-16.02571 15.85324,-18.25 2.72484,-5.82262 2.54433,-17.39134 -0.37601,-24.09882 -8.47255,-19.45985 -34.94076,-24.15038 -49.1699,-8.71358 -5.82992,6.32472 -8.11713,12.06333 -8.16993,20.49843 -0.0733,11.71508 3.84602,14.65749 19.65735,14.75753 6.83992,0.0433 9.3479,0.44255 10.75,1.71143 2.68034,2.42567 2.37421,5.34501 -0.56048,5.34501 -1.31406,0 -3.38104,0.80313 -4.59328,1.78474 l -2.20406,1.78474 2.2222,3.76635 c 2.19164,3.71456 2.34222,8.90996 0.40457,13.95938 -1.71622,4.4724 3.31695,0.57144 16.1863,-12.54521 z M 143.21806,660.57641 C 144.43571,658.27437 159.26477,642.84275 273,525.52101 299.675,498.00484 341.95955,454.3435 366.96567,428.49581 391.97178,402.64811 420.56119,373.175 430.49769,363 c 9.9365,-10.175 38.06097,-39.2 62.49883,-64.5 24.43786,-25.3 52.1137,-53.875 61.50186,-63.5 9.38817,-9.625 37.272,-38.425 61.96407,-64 24.69208,-25.575 47.96433,-49.48563 51.71612,-53.13474 6.25999,-6.08866 6.82143,-6.9752 6.82143,-10.77143 0,-7.281241 4.80137,-7.206096 -70,-1.09557 -15.51547,1.26746 -177.76047,14.37472 -216.5,17.49035 -17.05,1.37125 -42.025,3.39447 -55.5,4.49606 -13.475,1.10159 -63.875,5.17441 -112,9.05071 -102.17459,8.22981 -104.70955,8.61535 -127.601397,19.40658 -15.02641,7.08346 -25.68536,14.82712 -39.980995,29.04594 -24.449461,24.31809 -38.630064,51.55751 -43.8135063,84.16105 -2.3349742,14.68685 -2.1640386,41.87703 0.355934,56.61728 5.2124703,30.48968 18.8233073,57.05504 41.0309293,80.08335 12.453458,12.91367 23.689472,21.59027 36.862237,28.46551 12.397038,6.47037 18.245848,8.74715 31.146798,12.12457 l 10.5,2.74887 0.25461,105.30882 c 0.18325,75.79671 0.56787,105.68629 1.37244,106.65574 0.65574,0.79011 3.12097,1.34691 5.96346,1.34691 4.10862,0 5.04059,-0.36861 6.12755,-2.42359 z m -7.37908,-4.07077 c -0.2719,-0.27189 -0.28574,-47.77574 -0.0308,-105.56409 0.26648,-60.3948 0.0869,-105.44353 -0.42231,-105.94884 -0.48724,-0.48351 -4.41132,-1.60571 -8.72017,-2.49377 C 111.97762,439.47167 93.884403,432.01875 80.612361,423.52873 49.302953,403.50034 26.00936,369.70609 17.179092,331.5 1.5735084,263.97902 33.773284,193.20347 93.7971,163.09255 c 9.549,-4.79025 22.40333,-9.25344 33.2029,-11.52847 6.9891,-1.47232 48.21966,-5.00172 222.5,-19.04638 37.95,-3.05826 88.125,-7.11925 111.5,-9.02441 23.375,-1.90517 73.55,-5.95634 111.5,-9.00261 37.95,-3.04627 73.95,-5.97402 80,-6.50612 13.73287,-1.20781 16.75432,-1.22253 16.33333,-0.0796 -0.30263,0.82164 -58.09512,60.73884 -101.85054,105.59503 -9.65705,9.9 -51.75735,53.325 -93.55622,96.5 -286.29948,295.72521 -336.05813,347 -336.73961,347 -0.1945,0 -0.57609,-0.22246 -0.84798,-0.49436 z M 562,600 c 2.58337,-2.58337 2.52412,-4.32012 -0.25,-7.32836 -1.2375,-1.34193 -20.925,-11.99949 -43.75,-23.68346 -95.93433,-49.10817 -102,-52.31391 -102.00011,-53.90777 -6e-5,-0.86922 14.6949,-33.91598 32.65548,-73.43723 28.39416,-62.47979 32.53505,-72.20174 31.73189,-74.5 -0.7344,-2.10152 -1.66387,-2.70532 -4.53563,-2.9464 -3.56439,-0.29923 -4.37324,0.47746 -61.44354,59 -31.80739,32.61677 -73.48632,75.34752 -92.61985,94.95723 -36.21609,37.11739 -37.20191,38.37372 -33.03824,42.10376 1.27947,1.14621 37.2417,6.94529 133.75,21.5678 72.6,11.00004 133.2375,20.0393 134.75,20.08725 1.51397,0.048 3.64893,-0.81175 4.75,-1.91282 z m -65.5,-13.0058 c -28.05,-4.28674 -84.3,-12.79526 -125,-18.90783 -40.7,-6.11256 -74.85185,-11.46913 -75.89301,-11.90348 -1.59391,-0.66496 12.15084,-15.20323 86.99101,-92.01329 48.88621,-50.17296 89.03497,-90.77069 89.21948,-90.21717 0.1845,0.55351 -14.09895,32.76508 -31.74101,71.58128 -17.64206,38.81619 -32.07248,71.33796 -32.0676,72.27059 0.009,1.69043 5.63242,4.66833 108.99113,57.71483 18.975,9.73849 34.9275,18.10561 35.45,18.59361 1.65818,1.54868 -3.68469,0.8689 -55.95,-7.11854 z"
       id="path6582"
       inkscape:connector-curvature="0" />
    <path
       style="fill:#000000;fill-opacity:0;stroke:#000000;stroke-width:3.5;stroke-linejoin:round;stroke-miterlimit:4;stroke-dasharray:none;stroke-opacity:1"
       d="M 0,386.5 0,0 386.5,0 773,0 773,386.5 773,773 386.5,773 0,773 0,386.5 Z M 688.39301,750.41821 C 688.72686,749.54823 689,730.92833 689,709.04066 c 0,-44.49361 0.36001,-42.394 -7.1761,-41.85177 L 677.5,667.5 l -0.26557,28.25 c -0.15389,16.36957 -0.6531,28.25 -1.18705,28.25 -0.50681,0 -13.62725,-13.28668 -29.15653,-29.52596 -15.52928,-16.23929 -28.72011,-29.36429 -29.31296,-29.16667 -0.74766,0.24922 -1.07789,13.201 -1.07789,42.27596 l 0,41.91667 5.25,0.30226 c 2.8875,0.16624 5.34514,0.16624 5.46143,0 0.11628,-0.16624 0.45378,-13.31131 0.75,-29.21127 L 628.5,691.68198 657.3827,721.84099 C 673.26818,738.42845 686.60754,752 687.02571,752 c 0.41817,0 1.03346,-0.7118 1.3673,-1.58179 z m 45.55316,-1.07226 c 9.92964,-4.05645 15.40706,-12.5148 15.46341,-23.8789 0.0613,-12.35641 -5.51697,-18.78341 -22.5307,-25.95889 C 716.57057,695.16066 713,691.94273 713,687 c 0,-2.74057 0.74848,-4.34291 3.06566,-6.56291 2.73687,-2.62209 3.74979,-2.93709 9.44446,-2.93709 5.83763,0 6.6623,0.27478 9.72054,3.23895 l 3.34175,3.23895 3.4638,-1.85112 c 4.21694,-2.25361 4.77023,-4.83184 1.83712,-8.56068 -6.00796,-7.63789 -21.06801,-9.95712 -30.99206,-4.77273 -7.33225,3.83041 -11.11973,9.35516 -11.67487,17.03 -0.75174,10.39268 5.64974,18.21244 19.03501,23.25229 15.82312,5.95775 20.70933,13.19748 15.77983,23.38046 -2.49497,5.15393 -6.47328,7.54388 -12.5575,7.54388 -6.56987,0 -10.69092,-2.77603 -13.37159,-9.00743 -2.30112,-5.3491 -4.06638,-6.09346 -9.52705,-4.01732 -3.50517,1.33266 -3.35628,5.11245 0.46378,11.77346 6.394,11.14919 20.47198,15.68139 32.91729,10.59724 z M 73.964816,748.06574 C 74.550208,746.97193 75,739.4213 75,730.68819 c 0,-12.18461 0.302297,-15.69418 1.43262,-16.63227 1.527775,-1.26794 0.316297,-2.59778 22.496271,24.69408 l 9.142829,11.25 10.71414,-0.0153 c 5.89278,-0.008 11.22659,-0.34592 11.85292,-0.75 0.62633,-0.40408 2.96545,-4.78469 5.19805,-9.73469 l 4.05927,-9 18.33248,-0.27126 18.33248,-0.27126 4.63657,10.02126 4.63657,10.02126 11.02388,0 c 6.06314,0 11.27286,-0.40285 11.57717,-0.89523 0.3043,-0.49237 2.40465,-11.40487 4.66743,-24.25 2.26279,-12.84512 4.4421,-23.709 4.84292,-24.14195 0.40082,-0.43295 5.65136,10.36705 11.66788,24 C 236.64262,740.64029 241.06995,749.5 242,749.5 c 0.93005,0 5.35738,-8.85971 12.38652,-24.78718 6.01652,-13.63295 11.27307,-24.43295 11.68122,-24 0.40815,0.43295 2.60172,11.31989 4.8746,24.19321 2.27287,12.87332 4.36721,23.78582 4.65409,24.25 0.72619,1.175 10.15063,1.06226 10.88763,-0.13024 0.33115,-0.53582 -2.59823,-17.29832 -6.50974,-37.25 C 270.75711,664.76101 271.0381,666 269.59283,666 c -0.68279,0 -7.02077,13.275 -14.08439,29.5 -7.06362,16.225 -13.14007,29.5 -13.50322,29.5 -0.36316,0 -6.45191,-13.275 -13.53057,-29.5 C 221.396,679.275 215.05483,666 214.38317,666 c -1.42703,0 -1.26029,-0.73487 -10.04232,44.25941 -3.73141,19.11768 -7.16228,34.63345 -7.62417,34.47948 -0.46188,-0.15396 -8.89439,-17.82069 -18.7389,-39.25941 C 164.75454,676.68282 159.63858,666.5 158.39407,666.5 c -1.73979,0 -5.55458,7.77876 -27.5994,56.27807 -5.56944,12.25294 -10.46023,22.15294 -10.86844,22 C 118.6189,744.28826 87,705.73872 87,704.63464 c 0,-0.58432 7.698141,-8.80623 17.10698,-18.27091 9.56144,-9.61819 16.81322,-17.68383 16.44098,-18.28612 C 120.18166,667.48492 117.32585,667 114.2017,667 l -5.68026,0 L 91.760721,683.73897 75,700.47794 75,685.4301 c 0,-17.75232 -0.374121,-18.72257 -7.036264,-18.24804 L 63.5,667.5 63.238306,707.49834 c -0.143931,21.99908 -0.04555,40.56158 0.218616,41.25 0.286042,0.74541 2.29885,1.25166 4.976509,1.25166 3.421807,0 4.743565,-0.4622 5.531385,-1.93426 z M 146,718.03303 c 0,-1.29139 10.91279,-26.30985 11.92747,-27.34469 0.90863,-0.92668 13.22233,26.26026 12.45576,27.5006 C 169.65874,719.36118 146,719.20991 146,718.03303 Z M 305.5,708.5 l 0,-41 -5,0 -5,0 -0.26169,39.99834 c -0.14393,21.99908 -0.036,40.58642 0.2398,41.3052 0.34013,0.88638 2.03312,1.20867 5.26169,1.00167 L 305.5,749.5 l 0,-41 z m 37.5,5.5 0.5,-35.5 8.97983,-0.5 c 8.67635,-0.4831 9.01191,-0.59158 9.92887,-3.20971 0.64282,-1.83538 0.57558,-3.52938 -0.20839,-5.25 L 361.04288,667 337.72144,667 C 312.68946,667 312,667.13719 312,672.11821 312,677.71222 312.49452,678 322.10699,678 l 8.89301,0 0,34.06574 c 0,22.14667 0.37197,34.76078 1.06313,36.05221 0.87044,1.62645 1.91257,1.9317 5.75,1.68426 L 342.5,749.5 343,714 Z m 92.5507,32.47788 c 7.87507,-4.02746 11.42094,-9.07359 12.16842,-17.31688 0.88013,-9.7063 -3.25957,-17.47369 -12.07741,-22.661 -1.5516,-0.91277 -1.47228,-1.31736 0.90927,-4.63806 3.45464,-4.81696 4.54843,-10.06477 3.38092,-16.22102 -1.20521,-6.35506 -3.67227,-10.54934 -7.86834,-13.37707 -4.83543,-3.2586 -9.32938,-4.35274 -20.47358,-4.98469 -8.83979,-0.50128 -10.05473,-0.36406 -11.25,1.27057 -1.74922,2.3922 -1.97837,76.38892 -0.24657,79.6248 1.03757,1.93873 1.82082,2.02424 15.33944,1.67467 13.50234,-0.34914 14.55257,-0.52513 20.11785,-3.37132 z M 411.22012,726.25 411.5,713.5 l 4.79876,-0.30678 c 6.61151,-0.42267 15.0728,2.19239 17.63563,5.4505 2.87668,3.65711 2.82525,11.12084 -0.10229,14.8426 C 430.75998,737.39189 426.14306,739 418.00224,739 l -7.06199,0 0.27987,-12.75 z m -0.002,-35.37751 L 411.5,678.5 l 5.8591,0.0303 c 5.32481,0.0275 6.12273,0.32535 8.75,3.26578 2.44099,2.73194 2.8909,4.08653 2.8909,8.70392 0,4.5999 -0.45287,5.9753 -2.85135,8.65966 -2.49629,2.79384 -3.62095,3.24688 -9.03176,3.63827 l -6.18041,0.44705 0.28176,-12.37249 z M 469,733.01204 c 0.41249,-13.6021 0.76254,-16.535 2,-16.75669 0.95205,-0.17057 5.82875,5.95503 13.34995,16.76883 l 11.84996,17.03756 11.65004,-0.28087 L 519.5,749.5 l 4.80146,-9.77236 4.80146,-9.77236 18.16702,0.27236 18.16702,0.27236 3.27769,7 c 5.96319,12.73529 5.27076,11.96641 11.07935,12.30265 3.65631,0.21165 5.38201,-0.0978 5.73936,-1.029 0.45642,-1.18941 -35.51287,-81.15316 -37.3149,-82.95519 -0.40435,-0.40435 -1.2121,-0.41642 -1.795,-0.0268 -0.5829,0.3896 -9.18516,18.46453 -19.11613,40.16652 -9.93097,21.70199 -18.4727,39.59696 -18.98161,39.7666 -0.97231,0.3241 -22.36847,-28.83953 -22.26707,-30.35069 0.0323,-0.48074 2.38468,-2.0139 5.2276,-3.40703 7.29362,-3.57413 11.02281,-9.74483 11.55231,-19.11569 0.62931,-11.13734 -3.4334,-18.3796 -12.7316,-22.69556 -5.11937,-2.37627 -6.73745,-2.60491 -18.60696,-2.62919 l -13,-0.0266 -0.26169,39.99834 c -0.14393,21.99908 -0.036,40.58642 0.2398,41.3052 0.34013,0.88638 2.03312,1.20867 5.26169,1.00167 L 468.5,749.5 469,733.01204 Z m 66,-15.34045 c 0,-1.49619 10.70462,-25.73567 11.90744,-26.96313 0.85391,-0.87141 13.11383,26.33454 12.41115,27.54154 -0.24014,0.4125 -5.81007,0.75 -12.37761,0.75 C 537.67894,719 535,718.70197 535,717.67159 Z m -65.51492,-12.84986 c -0.30237,-0.78797 -0.42271,-7.03271 -0.26742,-13.8772 L 469.5,678.5 l 4.19042,-0.30459 c 6.10348,-0.44364 12.2635,1.54375 15.48968,4.99738 2.35311,2.51902 2.8199,3.88932 2.8199,8.27811 0,8.69998 -4.62183,12.82132 -15.79609,14.08554 -4.90135,0.55452 -6.28204,0.40354 -6.71883,-0.73471 z M 602.5,708.5 l 0,-41 -4.75386,-0.30495 c -4.18563,-0.2685 -4.8578,-0.0294 -5.62342,2 -1.3598,3.60442 -1.46769,76.29184 -0.11699,78.81565 0.93486,1.74681 1.89711,2.04365 5.8074,1.79151 L 602.5,749.5 l 0,-41 z m 8.10266,-56.18871 c 7.38707,-6.9788 14.88596,-14.95601 16.66419,-17.72714 3.03453,-4.7289 3.23284,-5.59272 3.2281,-14.06129 -0.004,-7.0483 -0.46475,-10.01876 -2.10566,-13.57367 -3.10709,-6.73128 -7.76348,-11.48037 -14.61149,-14.90236 -15.32187,-7.65643 -34.10431,-0.86626 -41.05245,14.84116 -2.75305,6.22372 -3.3862,15.59461 -1.37835,20.40008 2.11571,5.06359 6.22287,6.65973 18.98261,7.37707 7.54135,0.42396 10.49351,0.9783 11.42039,2.14444 1.8798,2.36505 1.6036,2.7679 -2.80287,4.08811 -4.92165,1.47457 -5.81393,3.36492 -3.46513,7.34113 1.45077,2.45596 1.66294,4.29184 1.14278,9.88853 -0.35131,3.77996 -0.37199,6.87265 -0.046,6.87265 0.32603,0 6.63676,-5.70992 14.02384,-12.68871 z m -465.5092,6.44954 c 2.4236,-2.88154 12.95654,-14.02102 23.40654,-24.7544 10.45,-10.73338 39.4599,-40.66325 64.46644,-66.51083 25.00653,-25.84758 53.59351,-55.3206 63.52661,-65.4956 9.93309,-10.175 31.09516,-32 47.02682,-48.5 29.21877,-30.26112 48.98263,-50.66581 77.48754,-80 8.55122,-8.8 22.29539,-22.975 30.54261,-31.5 8.24721,-8.525 28.92638,-29.9 45.9537,-47.5 17.02732,-17.6 39.28057,-40.55 49.45167,-51 29.01363,-29.80922 43.19221,-44.44381 79.44487,-82 18.58186,-19.25 37.34347,-38.42803 41.69247,-42.61784 C 674.83595,112.38576 676,110.77802 676,107.9609 676,102.63939 673.71395,101 666.2934,101 c -3.51815,0 -22.9109,1.34571 -43.09501,2.99047 -20.18412,1.64476 -50.87339,4.1354 -68.19839,5.53477 -17.325,1.39937 -42.3,3.42692 -55.5,4.50566 -13.2,1.07874 -60.45,4.88253 -105,8.45288 -44.55,3.57035 -86.4,6.94751 -93,7.50481 -6.6,0.5573 -23.25,1.91813 -37,3.02408 C 158.36519,141.54936 129.7804,144.13484 122,145.90172 72.948049,157.04107 31.304201,195.98525 14.992557,245.97212 8.9223481,264.57422 7.494934,274.43433 7.5330497,297.5 c 0.027473,16.62513 0.4115233,21.89461 2.2759449,31.22776 6.2799454,31.43691 20.0507564,57.2074 42.6512014,79.81683 22.367902,22.37679 43.071059,33.69552 74.726674,40.85421 l 2.68686,0.60761 -0.30832,104.95781 C 129.22036,672.42376 128.69233,664 136.40017,664 c 3.94282,0 4.64031,-0.42035 8.69329,-5.23917 z M 136,550.80877 c 0,-100.7377 -0.0974,-106.70174 -1.75,-107.17251 -0.9625,-0.27419 -4.45,-1.03042 -7.75,-1.68052 -8.8962,-1.75255 -22.93783,-6.65857 -32,-11.18052 C 80.847475,423.96272 70.069313,416.07242 57.929382,404.00321 33.784959,379.99944 19.462731,350.85431 14.929366,316.5 13.26407,303.88021 14.289117,277.15945 16.893253,265.30569 27.014423,219.23521 56.794718,180.88968 97.022493,162.13015 118.31305,152.20167 125.60209,150.99362 200.5,144.98036 c 34.65,-2.78192 85.22183,-6.84083 112.38185,-9.0198 63.88395,-5.12523 240.6335,-19.39802 271.61815,-21.93358 13.2,-1.08019 35.7,-2.87624 50,-3.99123 14.3,-1.11498 27.71181,-2.21459 29.80403,-2.44358 2.09222,-0.229 3.66722,-0.0249 3.5,0.45358 -0.33275,0.95212 -34.67476,36.81523 -60.28409,62.95425 -8.8911,9.075 -44.24369,45.525 -78.5613,81 -34.31761,35.475 -77.27001,79.8 -95.44978,98.5 C 415.32909,369.2 359.29322,427.025 308.9847,479 182.60888,609.56205 150.8101,642.38799 142.85953,650.49138 L 136,657.48276 136,550.80877 Z M 562.8,600.8 c 1.78912,-1.78912 1.45455,-7.26911 -0.55,-9.00874 -0.9625,-0.8353 -33.92342,-18.02596 -73.24649,-38.20148 -39.32306,-20.17551 -71.88358,-37.06985 -72.35669,-37.54296 -0.48028,-0.48028 13.54664,-32.59138 31.75869,-72.70352 17.9404,-39.51381 32.61341,-72.93287 32.6067,-74.26456 C 480.99554,365.77243 478.24879,363 474.98978,363 c -2.24906,0 -11.03728,8.55792 -52.59502,51.21673 -27.44212,28.1692 -69.13226,70.9247 -92.64476,95.01222 -39.18882,40.14722 -42.75,44.07584 -42.75,47.16083 0,1.85093 0.66956,3.92101 1.48791,4.60018 1.68572,1.39903 258.94218,40.72043 267.56209,40.89661 3.13355,0.064 6.07248,-0.40905 6.75,-1.08657 z M 423.5,575.48233 c -66,-10.0461 -121.93946,-18.57101 -124.30991,-18.94424 -2.37046,-0.37323 -4.17046,-1.04976 -4,-1.50338 0.17045,-0.45363 32.50555,-33.83452 71.85577,-74.17975 39.35022,-40.34523 78.67793,-80.67725 87.3949,-89.62672 8.71698,-8.94947 16.05275,-16.06806 16.30172,-15.8191 0.24896,0.24897 -14.02897,32.32126 -31.72874,71.27177 -21.91478,48.22614 -31.90486,71.2592 -31.31457,72.19863 0.8592,1.36739 17.66104,10.17212 98.80083,51.77499 23.1,11.84409 42.4275,21.94212 42.95,22.44008 0.57525,0.54824 -0.41095,0.85568 -2.5,0.77937 -1.8975,-0.0693 -57.45,-8.34555 -123.45,-18.39165 z"
       id="path6584"
       inkscape:connector-curvature="0" />
    <path
       style="fill:#000000;fill-opacity:0;stroke:#000000;stroke-width:3.5;stroke-linejoin:round;stroke-miterlimit:4;stroke-dasharray:none;stroke-opacity:1"
       d="M 0,386.5 0,0 386.5,0 773,0 773,386.5 773,773 386.5,773 0,773 0,386.5 Z m 688.761,323.48268 c 0.2047,-33.2169 -0.011,-42.5237 -1,-43.15155 -2.03968,-1.29482 -9.42054,-0.94628 -10.62218,0.5016 -0.73324,0.88351 -1.19585,10.52649 -1.37244,28.60825 L 675.5,723.21649 647.13762,693.55656 c -18.30545,-19.14291 -28.94305,-29.54816 -30,-29.34474 -1.48073,0.285 -1.66263,4.32643 -1.8987,42.18587 -0.19256,30.88152 0.0466,42.2414 0.91118,43.28317 0.79797,0.96149 2.79706,1.31776 6.26108,1.11581 L 627.5,750.5 628,722.83145 c 0.275,-15.21771 0.76696,-27.93467 1.09325,-28.25992 0.32628,-0.32524 13.31245,12.70938 28.85816,28.96584 15.54571,16.25645 28.77875,29.386 29.40676,29.17677 0.82627,-0.27528 1.21396,-12.08446 1.40283,-42.73146 z m 43.46374,40.97171 c 5.88329,-1.63393 11.96072,-6.84792 15.02526,-12.89057 2.20495,-4.34773 2.75,-6.78067 2.75,-12.27525 0,-13.86928 -5.14272,-19.844 -23.5,-27.30192 -9.23274,-3.75093 -12.5,-6.75666 -12.5,-11.49943 0,-8.99311 14.39849,-12.84594 20.70203,-5.53957 2.66754,3.09191 5.52464,3.23919 9.3936,0.48426 3.5957,-2.56037 3.66803,-4.8709 0.27858,-8.89903 -7.39352,-8.78671 -24.25298,-10.63256 -34.43601,-3.77021 -8.91017,6.00456 -12.35024,17.8528 -7.76078,26.72959 2.92334,5.65423 9.41578,10.51296 19.93321,14.91736 10.65639,4.4626 14.88937,8.57802 14.88937,14.47583 0,8.41323 -7.84025,15.48555 -15.56127,14.03708 -4.97716,-0.93372 -10.03961,-5.57097 -11.12783,-10.19319 -1.01667,-4.31827 -3.36482,-5.12898 -9.51695,-3.28575 -3.20247,0.95948 -3.79395,1.56753 -3.79395,3.90021 0,7.05022 8.81731,18.24203 16.5,20.94344 3.93204,1.38259 14.02395,1.47268 18.72474,0.16715 z M 75,733.29675 c 0.305774,-10.52059 0.927432,-17.62942 1.600345,-18.30034 0.799462,-0.79711 3.243926,1.58275 8.939529,8.70324 4.31155,5.39019 11.159441,13.73785 15.217536,18.55035 l 7.37835,8.75 11.30968,0 c 7.84271,0 11.61911,-0.38319 12.31909,-1.25 0.55518,-0.6875 2.69111,-5.14242 4.74651,-9.89981 3.30312,-7.64537 4.08556,-8.71951 6.73802,-9.25 4.7486,-0.94972 30.09584,-0.66767 31.70918,0.35284 0.80203,0.50732 3.50203,5.11293 6,10.23469 L 185.5,750.5 l 11.10153,0.28136 c 8.10012,0.2053 11.38445,-0.0651 12.148,-1 0.57556,-0.70475 2.6908,-10.73136 4.70052,-22.28136 2.00972,-11.55 3.99003,-22.07823 4.40068,-23.39607 0.61606,-1.977 2.64406,1.91456 11.59512,22.25 C 237.54663,744.75769 240.72889,751 242.01014,751 c 1.28122,0 4.46169,-6.23816 12.55623,-24.62775 7.99785,-18.16989 11.03277,-24.13537 11.57401,-22.75 0.40348,1.03276 2.39413,11.55275 4.42365,23.37775 2.02952,11.825 4.13798,22.0625 4.68545,22.75 1.33821,1.68048 10.20287,1.6148 11.61446,-0.0861 0.83074,-1.00098 -0.95683,-11.72251 -7.12756,-42.75 -7.35111,-36.96259 -8.43865,-41.4139 -10.11822,-41.4139 -1.50858,0 -4.36451,5.70257 -14.39842,28.75 -6.88412,15.8125 -12.80551,28.75 -13.15864,28.75 -0.62242,0 -2.65204,-4.47453 -18.37055,-40.5 -5.83424,-13.37157 -7.82005,-17 -9.30397,-17 -1.68337,0 -2.70631,4.12295 -9.49682,38.27691 -4.18563,21.05229 -7.8503,38.51696 -8.1437,38.81037 -0.29341,0.2934 -1.94465,-2.53121 -3.66944,-6.27691 -32.07431,-69.6556 -32.63869,-70.81436 -34.63054,-71.10197 -2.18111,-0.31494 -1.44323,-1.79543 -26.69971,53.57011 -6.09142,13.35318 -11.56379,24.12417 -12.16084,23.93554 C 118.14412,742.25863 88.014336,705.78807 88.006274,704.48897 88.002823,703.9329 95.65,695.83787 105,686.5 c 9.35,-9.33787 17,-17.49726 17,-18.13198 C 122,666.67798 119.5296,666 113.37149,666 l -5.46493,0 -15.591667,16 C 83.739473,690.8 76.335496,698 75.86161,698 75.387725,698 75,691.07314 75,682.60699 75,665.54378 75.189055,666 68.118213,666 66.073196,666 63.86,666.54 63.2,667.2 c -1.76198,1.76198 -1.720044,80.87996 0.0438,82.6438 0.752746,0.75275 3.220271,1.12781 6.25,0.95 L 74.5,750.5 75,733.29675 Z m 72.52573,-17.3778 c 1.07822,-3.3972 9.57387,-22.351 10.40799,-23.22027 0.59013,-0.615 8.29593,15.10206 11.79195,24.05132 0.37365,0.9565 -2.2528,1.25 -11.18607,1.25 -11.37087,0 -11.6572,-0.0541 -11.01387,-2.08105 z m 157.89248,34.47406 C 306.82525,749.85308 307,745.22496 307,708.5 c 0,-36.72496 -0.17475,-41.35308 -1.58179,-41.89301 -2.44752,-0.9392 -7.34185,-0.71823 -9.48395,0.42819 -1.86318,0.99715 -1.93426,2.51482 -1.93426,41.3 0,29.98375 0.3064,40.57122 1.2,41.46482 1.26235,1.26235 7.52657,1.62589 10.21821,0.59301 z M 342.8,749.8 c 0.88736,-0.88736 1.2,-10.26667 1.2,-36 l 0,-34.8 7.91821,0 c 4.35502,0 8.63002,-0.27314 9.5,-0.60699 2.25423,-0.86503 2.25423,-10.92099 0,-11.78602 -2.57378,-0.98766 -46.7847,-0.66079 -48.39548,0.3578 -0.88407,0.55905 -1.47272,2.46029 -1.46594,4.73469 0.0211,7.08006 0.33555,7.30052 10.41183,7.30052 l 9.03138,0 0,35.41667 c 0,27.39766 0.28302,35.53087 1.25,35.92105 2.45945,0.99241 9.3722,0.64008 10.55,-0.53772 z m 90.6325,-1.34478 C 442.62517,745.16097 449,736.2982 449,726.81212 c 0,-7.51651 -4.47938,-15.70763 -10.84475,-19.83101 l -2.34475,-1.51889 2.59475,-4.88005 C 440.35122,696.9223 441,694.23113 441,689.81894 c 0,-10.53932 -4.46357,-17.35209 -13.61102,-20.77459 -5.61584,-2.10116 -21.48549,-3.73891 -25.78155,-2.66067 L 399,667.0381 l 0,41.39762 c 0,32.14871 0.27927,41.52442 1.25,41.96519 0.6875,0.31217 7.325,0.39981 14.75,0.19474 9.59277,-0.26493 14.92759,-0.88442 18.4325,-2.14043 z M 412.75,738.43858 C 412.3375,738.01403 412,732.29089 412,725.72049 l 0,-11.94618 6.75,0.39473 c 9.36459,0.54764 14.33704,3.13652 16.16184,8.41458 1.28258,3.70972 1.23679,4.44222 -0.5,8 -1.21454,2.48797 -3.21407,4.5534 -5.48226,5.66294 -3.9222,1.91865 -14.98849,3.41792 -16.17958,2.19202 z m -0.0723,-36.09425 C 412.30495,701.97162 412,696.51094 412,690.2095 l 0,-11.45716 5.56493,0.46149 c 7.89892,0.65504 10.86364,3.71991 10.86364,11.23064 0,6.56437 -2.71166,10.18302 -8.3385,11.12754 -1.97454,0.33144 -4.29762,0.79328 -5.1624,1.02631 -0.86479,0.23302 -1.87729,0.11873 -2.25,-0.25399 z m 55.74054,48.04868 C 469.77203,749.8735 470,747.41146 470,733.30968 c 0,-12.73285 0.28401,-16.38329 1.25,-16.06678 0.6875,0.22526 6.44168,7.80026 12.78707,16.83333 l 11.53708,16.42377 10.46292,0.29158 c 5.75461,0.16037 11.40566,0.0568 12.55788,-0.23014 1.49338,-0.3719 3.31331,-3.21835 6.33784,-9.91269 l 4.24289,-9.39098 5.16216,-0.62019 c 6.72818,-0.80834 22.13014,-0.71114 26.9463,0.17005 3.62119,0.66256 3.96221,1.07992 7.91952,9.69237 2.27446,4.95 4.6216,9.33061 5.21586,9.73469 0.59427,0.40408 3.4571,0.74158 6.36186,0.75 3.79179,0.011 5.44438,-0.40945 5.85929,-1.49067 0.6121,-1.59512 -35.73182,-81.94996 -38.1999,-84.45831 -1.26507,-1.28571 -1.60428,-1.28571 -2.78152,0 -0.73742,0.80536 -9.38725,19.12679 -19.22185,40.71429 -9.83461,21.5875 -18.11877,39.23431 -18.40925,39.21513 -1.22538,-0.0809 -21.07437,-29.08132 -20.5192,-29.97961 0.335,-0.54204 1.19001,-0.98552 1.90003,-0.98552 0.71002,0 3.09767,-1.30879 5.3059,-2.90842 13.61753,-9.86449 11.93664,-33.56735 -2.92077,-41.18672 C 485.0577,666.45021 460.89525,664.50475 458.2,667.2 c -1.7728,1.7728 -1.72429,82.42178 0.05,83.13772 1.80874,0.72984 8.31812,0.76524 10.16821,0.0553 z M 535.99272,717.25 c -0.0134,-1.38371 10.49948,-25.20272 11.13414,-25.22651 0.34477,-0.0129 1.64533,2.33901 2.89014,5.22651 1.24481,2.8875 3.75815,8.7375 5.58521,13 l 3.32193,7.75 -11.46207,0 c -6.30414,0 -11.46535,-0.3375 -11.46935,-0.75 z M 470,692.13889 470,679 l 4.97976,0 c 10.2745,0 16.25599,4.59959 16.42926,12.6336 0.16736,7.76024 -5.03864,12.15976 -15.51262,13.10951 l -5.8964,0.53467 0,-13.13889 z m 132.88901,57.49484 c 0.8137,-0.98044 1.06007,-12.77045 0.87245,-41.75 L 603.5,667.5 l -2.21186,-0.97071 c -2.06557,-0.9065 -1.26821,-1.93169 12.05548,-15.5 7.84705,-7.99111 15.12826,-16.32929 16.18047,-18.52929 2.77426,-5.80051 2.67028,-19.31573 -0.19712,-25.6224 -2.87052,-6.31354 -8.69207,-12.50282 -14.76351,-15.69608 -4.39422,-2.31112 -6.253,-2.66337 -14.06346,-2.66514 -10.09394,-0.002 -14.2745,1.57478 -21.51528,8.11639 -10.48857,9.47579 -13.16435,29.46178 -4.77761,35.68495 2.19665,1.62996 4.91851,2.12956 14.43465,2.64946 11.02745,0.60248 12.54794,1.05534 12.49304,3.72094 -0.008,0.40596 -1.72604,1.21813 -3.81705,1.80481 -4.6566,1.30651 -5.14838,3.15978 -2.36447,8.91056 1.84376,3.80871 1.97495,4.96895 1.04326,9.22653 -0.58614,2.67849 -1.95015,6.08926 -3.03113,7.57949 C 591.08872,668.7967 591,670.74157 591,709.29284 c 0,22.20561 0.3,40.67383 0.66667,41.04049 1.24803,1.24803 10.06197,0.69857 11.22234,-0.6996 z M 141.35837,664.12862 c 1.0221,-0.40195 2.3721,-1.68699 3,-2.85564 0.6279,-1.16866 11.93062,-13.29566 25.11717,-26.9489 C 221.81752,580.12962 318.44718,480.42334 336.48222,462 346.98118,451.275 374.68021,422.7035 398.03562,398.50777 445.41563,349.42306 528.5706,263.49998 550.953,240.5 c 8.02847,-8.25 22.9171,-23.55 33.08584,-34 10.16874,-10.45 31.50136,-32.5 47.40584,-49 15.90447,-16.5 32.54829,-33.5571 36.98627,-37.90467 7.68599,-7.52942 8.06905,-8.11479 8.06905,-12.33062 0,-8.381142 -0.0994,-8.391951 -43.86372,-4.772 -16.57495,1.37099 -41.38628,3.38638 -55.13628,4.47864 -13.75,1.09226 -30.4,2.43191 -37,2.977 -15.73195,1.29929 -73.34621,5.93582 -143,11.50797 -30.8,2.46393 -58.475,4.72854 -61.5,5.03246 -3.025,0.30393 -16.75,1.43294 -30.5,2.50892 -13.75,1.07597 -33.325,2.63502 -43.5,3.46454 -10.175,0.82952 -41.225,3.30718 -69,5.50591 -57.78027,4.57401 -63.72055,5.23667 -76.34313,8.51629 -42.092835,10.93664 -79.431358,43.99522 -97.791611,86.5822 C 13.937685,244.49625 9.6009769,259.86286 8.0069711,271.54169 6.2922577,284.1049 7.1970359,321.84816 9.4562728,332 16.165608,362.14828 29.759327,386.79353 51.96751,409.07236 72.753961,429.92493 91.628592,441.03486 118,447.94023 l 10.5,2.74943 0.12587,105.34544 0.12586,105.34545 2.23492,1.80972 c 2.26954,1.83777 6.99702,2.26547 10.37172,0.93835 z M 136.75456,549.24529 136.5,443.57479 l -3,-0.7558 c -1.65,-0.41568 -6.71945,-1.6501 -11.26544,-2.74315 C 111.39145,437.4687 97.743975,431.95092 87.36038,425.97592 27.205191,391.36106 -0.12714546,316.50577 22.504904,248.35573 c 14.294318,-43.04332 48.109202,-77.6258 89.292196,-91.31912 4.78659,-1.59155 12.10858,-3.58789 16.27109,-4.43632 4.1625,-0.84843 38.3625,-4.02985 76,-7.06983 37.63749,-3.03998 82.15681,-6.64618 98.93181,-8.01377 16.775,-1.36758 50.3,-4.07949 74.5,-6.02645 47.3471,-3.80921 103.46427,-8.34799 142,-11.48503 13.2,-1.07455 43.8,-3.54122 68,-5.48149 24.2,-1.94026 51.425,-4.13041 60.5,-4.86701 9.075,-0.73659 16.87564,-1.13555 17.33477,-0.88658 0.45912,0.24897 -4.04839,5.46505 -10.0167,11.59128 C 649.34977,126.48763 631.43468,145 615.50676,161.5 599.57884,178 578.8958,199.375 569.54445,209 c -25.77458,26.52881 -47.33265,48.75989 -64.98627,67.015 -8.76801,9.06675 -22.72387,23.46 -31.01304,31.985 -8.28917,8.525 -35.07338,36.2 -59.52046,61.5 -24.44708,25.3 -52.81707,54.55 -63.04442,65 -10.22735,10.45 -32.71628,33.625 -49.9754,51.5 -17.25912,17.875 -37.50012,38.8 -44.97999,46.5 -7.47988,7.7 -27.74256,28.625 -45.02819,46.5 -17.28562,17.875 -41.00422,42.26855 -52.70798,54.2079 l -21.27958,21.7079 -0.25456,-105.67051 z m 426.4167,52.09972 c 2.58156,-2.33628 2.36416,-7.51246 -0.42126,-10.02997 -1.2375,-1.11847 -23.48182,-12.89201 -49.43183,-26.16343 -25.95001,-13.27142 -50.47501,-25.8599 -54.5,-27.9744 -4.02499,-2.11451 -15.08067,-7.79237 -24.56817,-12.61748 -9.4875,-4.8251 -17.25,-9.08915 -17.25,-9.47566 0,-0.38651 14.62052,-32.85104 32.49004,-72.14341 17.86952,-39.29236 32.49452,-72.67816 32.5,-74.19066 0.0129,-3.57006 -3.22573,-6.75 -6.87465,-6.75 -3.04786,0 -3.59664,0.54855 -114.54916,114.5 -20.34997,20.9 -45.45235,46.58683 -55.78308,57.08185 C 287.59097,551.04742 286,552.96127 286,556.17686 c 0,2.12352 0.71777,4.16274 1.81459,5.15535 1.3364,1.20942 14.05148,3.48748 48.25,8.64456 25.53948,3.8513 74.78541,11.2914 109.43541,16.53355 34.65,5.24215 72.225,10.88595 83.5,12.54178 11.275,1.65583 20.95,3.18597 21.5,3.4003 2.88597,1.12467 10.98719,0.41668 12.67126,-1.10739 z M 478,582.92039 c -35.475,-5.4097 -70.8,-10.77906 -78.5,-11.9319 -33.82761,-5.06465 -93.38908,-14.09503 -97.5,-14.7824 -2.475,-0.41384 -4.5,-1.28234 -4.5,-1.93001 0,-0.64767 8.325,-9.64728 18.5,-19.99913 10.175,-10.35185 26.83171,-27.36151 37.01492,-37.79925 33.29284,-34.125 96.25552,-98.76147 105.90207,-108.71735 5.19037,-5.35681 9.6024,-9.5743 9.8045,-9.3722 0.2021,0.20211 -3.21865,8.18495 -7.60166,17.73965 -33.06632,72.08262 -55.04979,121.51753 -54.62851,122.84485 0.27423,0.86404 4.66337,3.68088 9.75364,6.25965 9.35666,4.74015 44.11847,22.55681 86.25504,44.20877 25.65591,13.18334 43.78641,22.65266 44.41667,23.19824 0.97021,0.83987 -7.61797,-0.37128 -68.91667,-9.71892 z"
       id="path6586"
       inkscape:connector-curvature="0" />
  </g>
</svg>
